<svg width="11" height="11" viewBox="0 0 11 11" fill="none" xmlns="http://www.w3.org/2000/svg">
<path d="M5.5 0.5C6.16304 0.5 6.79893 0.763392 7.26777 1.23223C7.73661 1.70107 8 2.33696 8 3C8 3.66304 7.73661 4.29893 7.26777 4.76777C6.79893 5.23661 6.16304 5.5 5.5 5.5C4.83696 5.5 4.20107 5.23661 3.73223 4.76777C3.26339 4.29893 3 3.66304 3 3C3 2.33696 3.26339 1.70107 3.73223 1.23223C4.20107 0.763392 4.83696 0.5 5.5 0.5ZM5.5 6.75C8.2625 6.75 10.5 7.86875 10.5 9.25V10.5H0.5V9.25C0.5 7.86875 2.7375 6.75 5.5 6.75Z" fill="#959595"/>
</svg>
