<svg width="18" height="17" viewBox="0 0 18 17" fill="none" xmlns="http://www.w3.org/2000/svg">
<circle cx="9" cy="7.75" r="6" fill="white"/>
<path d="M0.5625 8.5C0.5625 7.39197 0.780742 6.29479 1.20477 5.27111C1.62879 4.24742 2.25029 3.31728 3.03379 2.53379C3.81728 1.75029 4.74742 1.12879 5.77111 0.704767C6.79479 0.280742 7.89197 0.0625 9 0.0625C10.108 0.0625 11.2052 0.280742 12.2289 0.704767C13.2526 1.12879 14.1827 1.75029 14.9662 2.53379C15.7497 3.31728 16.3712 4.24742 16.7952 5.27111C17.2193 6.29479 17.4375 7.39197 17.4375 8.5C17.4375 10.7378 16.5486 12.8839 14.9662 14.4662C13.3839 16.0486 11.2378 16.9375 9 16.9375C6.76224 16.9375 4.61612 16.0486 3.03379 14.4662C1.45145 12.8839 0.5625 10.7378 0.5625 8.5ZM9 4.28125C8.81352 4.28125 8.63468 4.35533 8.50282 4.48719C8.37095 4.61905 8.29688 4.79789 8.29688 4.98438V7.79688H5.48438C5.29789 7.79688 5.11905 7.87095 4.98719 8.00282C4.85533 8.13468 4.78125 8.31352 4.78125 8.5C4.78125 8.68648 4.85533 8.86532 4.98719 8.99718C5.11905 9.12905 5.29789 9.20312 5.48438 9.20312H8.29688V12.0156C8.29688 12.2021 8.37095 12.3809 8.50282 12.5128C8.63468 12.6447 8.81352 12.7188 9 12.7188C9.18648 12.7188 9.36532 12.6447 9.49718 12.5128C9.62905 12.3809 9.70312 12.2021 9.70312 12.0156V9.20312H12.5156C12.7021 9.20312 12.8809 9.12905 13.0128 8.99718C13.1447 8.86532 13.2188 8.68648 13.2188 8.5C13.2188 8.31352 13.1447 8.13468 13.0128 8.00282C12.8809 7.87095 12.7021 7.79688 12.5156 7.79688H9.70312V4.98438C9.70312 4.79789 9.62905 4.61905 9.49718 4.48719C9.36532 4.35533 9.18648 4.28125 9 4.28125Z" fill="#88765C"/>
</svg>
