<svg width="30" height="30" viewBox="0 0 30 30" fill="none" xmlns="http://www.w3.org/2000/svg">
<path fill-rule="evenodd" clip-rule="evenodd" d="M15 27.5C21.9036 27.5 27.5 21.9036 27.5 15C27.5 8.09644 21.9036 2.5 15 2.5C8.09644 2.5 2.5 8.09644 2.5 15C2.5 21.9036 8.09644 27.5 15 27.5ZM15 30C23.2843 30 30 23.2843 30 15C30 6.71573 23.2843 0 15 0C6.71573 0 0 6.71573 0 15C0 23.2843 6.71573 30 15 30Z" fill="#E06C6C"/>
<path fill-rule="evenodd" clip-rule="evenodd" d="M9.93873 10.4184C10.4966 9.86046 11.4011 9.86046 11.959 10.4184L19.5816 18.0409C20.1395 18.5988 20.1395 19.5033 19.5816 20.0612C19.0237 20.6191 18.1192 20.6191 17.5613 20.0612L9.93873 12.4387C9.38084 11.8808 9.38084 10.9762 9.93873 10.4184Z" fill="#E06C6C"/>
<path fill-rule="evenodd" clip-rule="evenodd" d="M9.93873 20.2958C10.4966 20.8536 11.4011 20.8536 11.959 20.2958L19.5816 12.6732C20.1395 12.1153 20.1395 11.2108 19.5816 10.6529C19.0237 10.095 18.1192 10.095 17.5613 10.6529L9.93873 18.2755C9.38084 18.8333 9.38084 19.7379 9.93873 20.2958Z" fill="#E06C6C"/>
</svg>
