<svg width="21" height="22" viewBox="0 0 21 22" fill="none" xmlns="http://www.w3.org/2000/svg">
<path d="M17.1 5.88H14.7V4.28C14.7 3.574 14.1619 3 13.5 3H7.50005C6.83817 3 6.30005 3.574 6.30005 4.28V5.88H3.90005C3.56817 5.88 3.30005 6.166 3.30005 6.52V7.16C3.30005 7.248 3.36755 7.32 3.45005 7.32H4.58255L5.04567 17.78C5.07567 18.462 5.60442 19 6.2438 19H14.7563C15.3975 19 15.9244 18.464 15.9544 17.78L16.4175 7.32H17.55C17.6325 7.32 17.7 7.248 17.7 7.16V6.52C17.7 6.166 17.4319 5.88 17.1 5.88ZM13.35 5.88H7.65005V4.44H13.35V5.88Z" fill="#3E9F88"/>
</svg>
