<svg width="19" height="19" viewBox="0 0 19 19" fill="none" xmlns="http://www.w3.org/2000/svg">
<path d="M9.0439 13.0684C9.09471 13.1422 9.16271 13.2026 9.24202 13.2442C9.32134 13.2859 9.4096 13.3077 9.4992 13.3077C9.5888 13.3077 9.67706 13.2859 9.75637 13.2442C9.83569 13.2026 9.90368 13.1422 9.95449 13.0684L14.9395 5.86893C14.9972 5.78589 15.031 5.68862 15.0373 5.5877C15.0436 5.48679 15.0222 5.38607 14.9752 5.29651C14.9283 5.20694 14.8577 5.13194 14.7711 5.07967C14.6846 5.0274 14.5853 4.99984 14.4842 5L4.51419 5C4.4133 5.00042 4.31443 5.02833 4.22821 5.08073C4.14199 5.13312 4.07169 5.20803 4.02487 5.29739C3.97805 5.38675 3.95647 5.48718 3.96247 5.58789C3.96846 5.68859 4.0018 5.78575 4.05889 5.86893L9.0439 13.0684Z" fill="white"/>
</svg>
