<svg width="10" height="8" viewBox="0 0 10 8" fill="none" xmlns="http://www.w3.org/2000/svg">
<path d="M4.59461 7.71051C4.63977 7.7761 4.70021 7.82973 4.77071 7.86678C4.84121 7.90383 4.91967 7.92319 4.99931 7.92319C5.07896 7.92319 5.15741 7.90383 5.22791 7.86678C5.29842 7.82973 5.35885 7.7761 5.40402 7.71051L9.83514 1.31095C9.88643 1.23714 9.91651 1.15068 9.9221 1.06098C9.9277 0.971273 9.9086 0.88175 9.86689 0.802135C9.82517 0.72252 9.76243 0.655858 9.68548 0.609392C9.60853 0.562926 9.52032 0.538433 9.43043 0.538575H0.568198C0.478514 0.538945 0.390627 0.563753 0.31399 0.61033C0.237352 0.656907 0.174864 0.723492 0.133244 0.802922C0.0916236 0.882353 0.072447 0.971626 0.0777761 1.06114C0.0831053 1.15065 0.112738 1.23702 0.163489 1.31095L4.59461 7.71051Z" fill="#494949"/>
</svg>
