<svg width="21" height="22" viewBox="0 0 21 22" fill="none" xmlns="http://www.w3.org/2000/svg">
<path d="M17.9042 6.31117L15.1642 3.57117C14.8066 3.23527 14.338 3.04253 13.8475 3.02962C13.3571 3.01672 12.879 3.18454 12.5042 3.50117L3.5042 12.5012C3.18097 12.8271 2.97971 13.2544 2.9342 13.7112L2.5042 17.8812C2.49073 18.0276 2.50974 18.1753 2.55986 18.3136C2.60999 18.4518 2.69001 18.5774 2.7942 18.6812C2.88764 18.7739 2.99846 18.8472 3.1203 18.8969C3.24213 18.9467 3.3726 18.9719 3.5042 18.9712H3.5942L7.7642 18.5912C8.221 18.5457 8.64824 18.3444 8.9742 18.0212L17.9742 9.02117C18.3235 8.65214 18.5123 8.15968 18.4992 7.65171C18.4861 7.14373 18.2721 6.66168 17.9042 6.31117ZM14.5042 9.65117L11.8242 6.97117L13.7742 4.97117L16.5042 7.70117L14.5042 9.65117Z" fill="#3E9F88"/>
</svg>
