<svg width="17" height="16" viewBox="0 0 17 16" fill="none" xmlns="http://www.w3.org/2000/svg">
<path d="M15.0998 2.88H12.6998V1.28C12.6998 0.574 12.1617 0 11.4998 0H5.4998C4.83793 0 4.2998 0.574 4.2998 1.28V2.88H1.8998C1.56793 2.88 1.2998 3.166 1.2998 3.52V4.16C1.2998 4.248 1.3673 4.32 1.4498 4.32H2.5823L3.04543 14.78C3.07543 15.462 3.60418 16 4.24355 16H12.7561C13.3973 16 13.9242 15.464 13.9542 14.78L14.4173 4.32H15.5498C15.6323 4.32 15.6998 4.248 15.6998 4.16V3.52C15.6998 3.166 15.4317 2.88 15.0998 2.88ZM11.3498 2.88H5.6498V1.44H11.3498V2.88Z" fill="#3E9F88"/>
</svg>
