<svg width="28" height="24" viewBox="0 0 28 24" fill="none" xmlns="http://www.w3.org/2000/svg">
<path d="M26.7084 11.8128L14.6615 0.821853C14.5748 0.742502 14.4718 0.679548 14.3583 0.636595C14.2449 0.593642 14.1233 0.571533 14.0006 0.571533C13.8778 0.571533 13.7562 0.593642 13.6428 0.636595C13.5293 0.679548 13.4263 0.742502 13.3396 0.821853L1.2927 11.8128C0.941739 12.1333 0.742859 12.5685 0.742859 13.0225C0.742859 13.9651 1.58225 14.7315 2.61467 14.7315H3.88399V22.5742C3.88399 23.0468 4.30223 23.4287 4.8199 23.4287H12.1287V17.4472H15.4044V23.4287H23.1812C23.6989 23.4287 24.1171 23.0468 24.1171 22.5742V14.7315H25.3864C25.8836 14.7315 26.3604 14.5526 26.7113 14.2295C27.4396 13.5619 27.4396 12.4804 26.7084 11.8128Z" fill="white"/>
</svg>
