<svg width="21" height="22" viewBox="0 0 21 22" fill="none" xmlns="http://www.w3.org/2000/svg">
<path d="M10.2209 3.35077C10.3068 3.30502 10.4027 3.2811 10.5 3.2811C10.5973 3.2811 10.6932 3.30502 10.7791 3.35077L19.686 8.10114C19.7809 8.15182 19.8602 8.22731 19.9155 8.31956C19.9708 8.4118 20 8.51732 20 8.62487C20 8.73242 19.9708 8.83794 19.9155 8.93019C19.8602 9.02243 19.7809 9.09792 19.686 9.1486L10.7791 13.899C10.6932 13.9447 10.5973 13.9686 10.5 13.9686C10.4027 13.9686 10.3068 13.9447 10.2209 13.899L1.31397 9.1486C1.21911 9.09792 1.1398 9.02243 1.08451 8.93019C1.02921 8.83794 1 8.73242 1 8.62487C1 8.51732 1.02921 8.4118 1.08451 8.31956C1.1398 8.22731 1.21911 8.15182 1.31397 8.10114L10.2209 3.35077Z" fill="#3E9F88"/>
<path d="M3.52289 11.6733L1.31397 12.8514C1.21911 12.9021 1.1398 12.9776 1.08451 13.0698C1.02921 13.1621 1 13.2676 1 13.3751C1 13.4827 1.02921 13.5882 1.08451 13.6805C1.1398 13.7727 1.21911 13.8482 1.31397 13.8989L10.2209 18.6492C10.3068 18.695 10.4027 18.7189 10.5 18.7189C10.5973 18.7189 10.6932 18.695 10.7791 18.6492L19.686 13.8989C19.7809 13.8482 19.8602 13.7727 19.9155 13.6805C19.9708 13.5882 20 13.4827 20 13.3751C20 13.2676 19.9708 13.1621 19.9155 13.0698C19.8602 12.9776 19.7809 12.9021 19.686 12.8514L17.4771 11.6733L11.3373 14.9463C11.0795 15.0836 10.792 15.1553 10.5 15.1553C10.208 15.1553 9.92049 15.0836 9.66275 14.9463L3.52289 11.6733Z" fill="#3E9F88"/>
</svg>
