<svg width="21" height="22" viewBox="0 0 21 22" fill="none" xmlns="http://www.w3.org/2000/svg">
<path d="M19.1495 8.44839H16.7403L16.1664 6.79973C16.1267 6.68691 16.0541 6.5894 15.9583 6.5205C15.8626 6.45161 15.7484 6.41469 15.6314 6.4148H10.1965C9.95739 6.4148 9.74304 6.56913 9.66332 6.79973L9.0876 8.44839H6.6784C5.89542 8.44839 5.26123 9.09841 5.26123 9.90096V18.1806C5.26123 18.9831 5.89542 19.6332 6.6784 19.6332H19.1495C19.9325 19.6332 20.5667 18.9831 20.5667 18.1806V9.90096C20.5667 9.09841 19.9325 8.44839 19.1495 8.44839ZM12.914 16.728C11.348 16.728 10.0796 15.428 10.0796 13.8229C10.0796 12.2178 11.348 10.9178 12.914 10.9178C14.4799 10.9178 15.7483 12.2178 15.7483 13.8229C15.7483 15.428 14.4799 16.728 12.914 16.728ZM11.2134 13.8229C11.2134 14.2852 11.3925 14.7285 11.7115 15.0554C12.0304 15.3823 12.4629 15.566 12.914 15.566C13.365 15.566 13.7976 15.3823 14.1165 15.0554C14.4354 14.7285 14.6146 14.2852 14.6146 13.8229C14.6146 13.3606 14.4354 12.9172 14.1165 12.5903C13.7976 12.2635 13.365 12.0798 12.914 12.0798C12.4629 12.0798 12.0304 12.2635 11.7115 12.5903C11.3925 12.9172 11.2134 13.3606 11.2134 13.8229Z" fill="#3E9F88"/>
<path d="M1.5 16.5022V14.3936H1.80444V16.5024V17.0024H2.30444H4.41333V17.3069L2.30494 17.3069C2.30487 17.3069 2.3048 17.3069 2.30473 17.3069C2.09139 17.3066 1.88686 17.2217 1.736 17.0709C1.58514 16.92 1.50027 16.7155 1.5 16.5022Z" fill="#3E9F88" stroke="#3E9F88"/>
<path d="M1.5 9.17578H1.80444V10.7847H1.5V9.17578Z" fill="#3E9F88" stroke="#3E9F88"/>
<path d="M16.1533 3.45851L16.1533 5.5669H15.8489V3.45801V2.95801H15.3489H13.24V2.65356H15.3486C15.5619 2.65383 15.7665 2.7387 15.9173 2.88956C16.0682 3.04042 16.1531 3.24495 16.1533 3.4583C16.1533 3.45837 16.1533 3.45844 16.1533 3.45851Z" fill="#3E9F88" stroke="#3E9F88"/>
<path d="M8.02222 2.65356H9.6311V2.95801H8.02222V2.65356Z" fill="#3E9F88" stroke="#3E9F88"/>
<path d="M2.30473 2.65356H4.41333V2.95801H2.30444H1.80444V3.45801V5.5669H1.5V3.4583C1.50027 3.24495 1.58514 3.04042 1.736 2.88956C1.88686 2.7387 2.09139 2.65383 2.30473 2.65356Z" fill="#3E9F88" stroke="#3E9F88"/>
</svg>
