<svg width="21" height="22" viewBox="0 0 21 22" fill="none" xmlns="http://www.w3.org/2000/svg">
<path d="M15.533 14.5495C15.4752 14.6074 15.3978 14.6399 15.3172 14.6399C15.2366 14.6399 15.1591 14.6074 15.1014 14.5495L14.6535 14.1883C14.6247 14.1593 14.6018 14.1247 14.5862 14.0865C14.5705 14.0482 14.5625 14.0072 14.5625 13.9657C14.5625 13.9242 14.5705 13.8831 14.5862 13.8449C14.6018 13.8066 14.6247 13.772 14.6535 13.7431L16.9255 11.2232L15.1258 9.54322L12.8539 12.0631C12.7961 12.1211 12.7187 12.1536 12.6381 12.1536C12.5575 12.1536 12.48 12.1211 12.4223 12.0631L11.9744 11.6348C11.9187 11.5766 11.8875 11.4981 11.8875 11.4164C11.8875 11.3346 11.9187 11.2561 11.9744 11.198L14.2463 8.67805L12.4467 6.99811L10.1747 9.51802C10.117 9.576 10.0395 9.60845 9.95894 9.60845C9.87834 9.60845 9.80091 9.576 9.74314 9.51802L9.27898 9.03084C9.25017 9.00188 9.22727 8.96727 9.21164 8.92904C9.19601 8.89081 9.18795 8.84974 9.18795 8.80825C9.18795 8.76676 9.19601 8.72568 9.21164 8.68745C9.22727 8.64922 9.25017 8.61461 9.27898 8.58565L11.5509 6.06574L9.75129 4.3858L7.47933 6.90571C7.45126 6.93543 7.4177 6.95905 7.38064 6.97517C7.34358 6.9913 7.30376 6.99961 7.26354 6.99961C7.22331 6.99961 7.18349 6.9913 7.14643 6.97517C7.10937 6.95905 7.07581 6.93543 7.04774 6.90571L6.59986 6.47733C6.54365 6.41774 6.5122 6.33788 6.5122 6.25473C6.5122 6.17159 6.54365 6.09173 6.59986 6.03214L8.87182 3.51223L7.07217 1.83228C6.95402 1.72028 6.81564 1.63339 6.66493 1.57657C6.51421 1.51975 6.35413 1.49411 6.19381 1.50113C6.03349 1.50815 5.87608 1.54769 5.73058 1.61748C5.58507 1.68727 5.45433 1.78595 5.34581 1.90788L0.321446 7.46849C0.213105 7.58965 0.129034 7.7317 0.0740603 7.88647C0.0190864 8.04124 -0.00570753 8.20569 0.0011023 8.37037C0.00791213 8.53505 0.0461915 8.69672 0.113743 8.8461C0.181293 8.99548 0.276785 9.12962 0.394735 9.24083L13.0004 21.1684C13.1179 21.2802 13.2556 21.3669 13.4056 21.4236C13.5557 21.4803 13.7151 21.5059 13.8748 21.4989C14.0344 21.4918 14.1912 21.4524 14.336 21.3827C14.4808 21.313 14.6108 21.2145 14.7186 21.0928L19.6779 15.5238C19.7864 15.402 19.8707 15.2592 19.9258 15.1037C19.9809 14.9483 20.0057 14.7832 19.9989 14.6178C19.9921 14.4524 19.9538 14.29 19.8861 14.14C19.8184 13.9899 19.7228 13.855 19.6046 13.7431L17.8049 12.0631L15.533 14.5495Z" fill="#3E9F88"/>
</svg>
