<svg width="24" height="23" viewBox="0 0 24 23" fill="none" xmlns="http://www.w3.org/2000/svg">
<path d="M19.7913 5.99438H16.9163V4.19751C16.9163 3.40464 16.2716 2.76001 15.4788 2.76001H8.29126C7.49839 2.76001 6.85376 3.40464 6.85376 4.19751V5.99438H3.97876C3.5812 5.99438 3.26001 6.31558 3.26001 6.71313V7.43188C3.26001 7.53071 3.34087 7.61157 3.4397 7.61157H4.79634L5.35112 19.3586C5.38706 20.1246 6.02046 20.7288 6.78638 20.7288H16.9836C17.7518 20.7288 18.383 20.1268 18.4189 19.3586L18.9737 7.61157H20.3303C20.4291 7.61157 20.51 7.53071 20.51 7.43188V6.71313C20.51 6.31558 20.1888 5.99438 19.7913 5.99438ZM15.2991 5.99438H8.47095V4.3772H15.2991V5.99438Z" fill="white"/>
</svg>
