<svg width="21" height="22" viewBox="0 0 21 22" fill="none" xmlns="http://www.w3.org/2000/svg">
<path d="M10.5 4.87497C11.7081 4.87497 12.6875 3.8956 12.6875 2.68749C12.6875 1.47937 11.7081 0.5 10.5 0.5C9.29187 0.5 8.3125 1.47937 8.3125 2.68749C8.3125 3.8956 9.29187 4.87497 10.5 4.87497Z" fill="#3E9F88"/>
<path d="M13.125 15.4826V13.625H14C14.2418 13.625 14.4375 13.4293 14.4375 13.1875V7.96997C14.4375 7.52093 14.2222 7.1125 13.8607 6.87752C12.7097 6.1298 11.8732 5.75 10.5 5.75C9.12685 5.75 8.2903 6.1298 7.13928 6.87793C6.77785 7.1125 6.56251 7.52093 6.56251 7.96997V13.1875C6.56251 13.4293 6.7582 13.625 7.00003 13.625H7.87501V15.4826C5.00043 15.7042 0.875 16.3804 0.875 18.4375C0.875 19.1841 1.41534 19.8045 2.47059 20.2852L2.30969 20.5784C2.22593 20.7309 2.24045 20.9185 2.3473 21.056C2.43105 21.165 2.56009 21.2265 2.69339 21.2265C2.72841 21.2265 2.7643 21.2222 2.79933 21.2133L4.54934 20.7757C4.67325 20.745 4.77751 20.6617 4.83473 20.5476C4.89195 20.4335 4.89625 20.3002 4.84671 20.1823L4.193 18.6224C4.12807 18.4678 3.98021 18.3635 3.81274 18.3546C3.64355 18.3422 3.48634 18.434 3.40599 18.581L3.30952 18.7568C3.29447 18.7492 3.28491 18.7355 3.26925 18.7288C2.98981 18.6083 2.82234 18.5045 2.72407 18.431C3.24985 18.0219 5.07516 17.4605 7.87493 17.2306V18.4374C7.87493 18.6793 8.07062 18.875 8.31245 18.875H12.6875C12.9293 18.875 13.125 18.6793 13.125 18.4374V17.2307C15.9393 17.4618 17.7693 18.0278 18.2844 18.4374C17.623 18.9634 14.8015 19.7499 10.5 19.7499C10.0163 19.7499 9.62499 20.1417 9.62499 20.6249C9.62499 21.1081 10.0164 21.5 10.5 21.5C11.4852 21.5 20.125 21.4141 20.125 18.4375C20.125 16.3804 15.9996 15.7042 13.125 15.4826Z" fill="#3E9F88"/>
</svg>
