<svg width="22" height="22" viewBox="0 0 22 22" fill="none" xmlns="http://www.w3.org/2000/svg">
<path d="M21.4081 10.733L21.1755 10.4389C20.3906 9.50308 19.4937 8.66722 18.5049 7.95009C16.4964 6.39199 14.042 5.51736 11.5007 5.4541C8.95945 5.51741 6.50509 6.39204 4.49649 7.95009C3.50783 8.66706 2.61093 9.50267 1.8259 10.4382L1.59333 10.7323C1.5329 10.8083 1.5 10.9025 1.5 10.9996C1.5 11.0967 1.5329 11.1909 1.59333 11.2669L1.8259 11.561C2.61095 12.4967 3.50785 13.3325 4.49649 14.0498C6.50506 15.6079 8.95944 16.4825 11.5007 16.5458C14.042 16.4826 16.4964 15.6079 18.5049 14.0498C19.4939 13.3319 20.3908 12.495 21.1755 11.5581L21.4081 11.264C21.4676 11.1883 21.5 11.0948 21.5 10.9985C21.5 10.9022 21.4676 10.8087 21.4081 10.733ZM11.5007 15.2634C10.6575 15.2634 9.83316 15.0134 9.13203 14.5449C8.43091 14.0764 7.88444 13.4106 7.56175 12.6315C7.23905 11.8525 7.15462 10.9952 7.31913 10.1682C7.48364 9.34114 7.8897 8.58146 8.48596 7.9852C9.08222 7.38894 9.8419 6.98288 10.6689 6.81837C11.496 6.65386 12.3532 6.73829 13.1323 7.06098C13.9113 7.38368 14.5772 7.93014 15.0457 8.63127C15.5142 9.3324 15.7642 10.1567 15.7642 10.9999C15.7642 12.1307 15.315 13.2151 14.5155 14.0147C13.7159 14.8143 12.6315 15.2634 11.5007 15.2634Z" fill="#3E9F88"/>
<path d="M11.5004 8.08252C10.9233 8.08252 10.3593 8.25362 9.8795 8.5742C9.39972 8.89478 9.02579 9.35042 8.80497 9.88352C8.58415 10.4166 8.52637 11.0032 8.63894 11.5692C8.75152 12.1351 9.02938 12.6549 9.4374 13.0629C9.84541 13.471 10.3653 13.7488 10.9312 13.8614C11.4971 13.974 12.0837 13.9162 12.6168 13.6954C13.1499 13.4746 13.6056 13.1006 13.9261 12.6208C14.2467 12.1411 14.4178 11.577 14.4178 11C14.4178 10.2262 14.1105 9.48416 13.5633 8.93702C13.0162 8.38989 12.2741 8.08252 11.5004 8.08252ZM13.7287 11C13.728 11.5907 13.4929 12.1571 13.0752 12.5748C12.6575 12.9926 12.0911 13.2276 11.5004 13.2283C11.3814 13.2283 11.2672 13.1811 11.1831 13.0969C11.099 13.0128 11.0517 12.8987 11.0517 12.7797C11.0517 12.6607 11.099 12.5465 11.1831 12.4624C11.2672 12.3783 11.3814 12.331 11.5004 12.331C11.8532 12.3306 12.1916 12.1903 12.4411 11.9407C12.6906 11.6912 12.831 11.3529 12.8314 11C12.8314 10.881 12.8786 10.7669 12.9628 10.6827C13.0469 10.5986 13.161 10.5513 13.28 10.5513C13.399 10.5513 13.5132 10.5986 13.5973 10.6827C13.6814 10.7669 13.7287 10.881 13.7287 11Z" fill="#3E9F88"/>
</svg>
