<svg width="28" height="22" viewBox="0 0 28 22" fill="none" xmlns="http://www.w3.org/2000/svg">
<path d="M13.6105 0.325498C13.7304 0.26166 13.8642 0.228271 14 0.228271C14.1358 0.228271 14.2696 0.26166 14.3895 0.325498L26.819 6.95458C26.9514 7.02531 27.062 7.13065 27.1392 7.25938C27.2164 7.3881 27.2571 7.53536 27.2571 7.68544C27.2571 7.83552 27.2164 7.98278 27.1392 8.1115C27.062 8.24022 26.9514 8.34557 26.819 8.4163L14.3895 15.0454C14.2696 15.1092 14.1358 15.1426 14 15.1426C13.8642 15.1426 13.7304 15.1092 13.6105 15.0454L1.181 8.4163C1.04863 8.34557 0.937953 8.24022 0.860786 8.1115C0.783618 7.98278 0.742859 7.83552 0.742859 7.68544C0.742859 7.53536 0.783618 7.3881 0.860786 7.25938C0.937953 7.13065 1.04863 7.02531 1.181 6.95458L13.6105 0.325498Z" fill="white"/>
<path d="M4.26352 11.9396L1.181 13.5836C1.04863 13.6543 0.937953 13.7597 0.860786 13.8884C0.783618 14.0171 0.742859 14.1644 0.742859 14.3145C0.742859 14.4646 0.783618 14.6118 0.860786 14.7405C0.937953 14.8693 1.04863 14.9746 1.181 15.0453L13.6105 21.6744C13.7304 21.7383 13.8642 21.7716 14 21.7716C14.1358 21.7716 14.2696 21.7383 14.3895 21.6744L26.819 15.0453C26.9514 14.9746 27.062 14.8693 27.1392 14.7405C27.2164 14.6118 27.2571 14.4646 27.2571 14.3145C27.2571 14.1644 27.2164 14.0171 27.1392 13.8884C27.062 13.7597 26.9514 13.6543 26.819 13.5836L23.7365 11.9396L15.1684 16.507C14.8087 16.6986 14.4075 16.7987 14 16.7987C13.5925 16.7987 13.1913 16.6986 12.8316 16.507L4.26352 11.9396Z" fill="white"/>
</svg>
