<svg width="15" height="15" viewBox="0 0 15 15" fill="none" xmlns="http://www.w3.org/2000/svg">
<path d="M12.6562 6.5625H11.9531V4.45312C11.9531 1.99805 9.95508 0 7.5 0C5.04492 0 3.04688 1.99805 3.04688 4.45312V6.5625H2.34375C1.56738 6.5625 0.9375 7.19238 0.9375 7.96875V13.5938C0.9375 14.3701 1.56738 15 2.34375 15H12.6562C13.4326 15 14.0625 14.3701 14.0625 13.5938V7.96875C14.0625 7.19238 13.4326 6.5625 12.6562 6.5625ZM9.60938 6.5625H5.39062V4.45312C5.39062 3.29004 6.33691 2.34375 7.5 2.34375C8.66309 2.34375 9.60938 3.29004 9.60938 4.45312V6.5625Z" fill="#959595"/>
</svg>
