<svg width="104" height="27" viewBox="0 0 104 27" fill="none" xmlns="http://www.w3.org/2000/svg">
<path d="M31.042 17.1243C31.052 17.161 31.0914 17.2201 31.1581 17.2962C31.2842 17.68 31.3237 18.0538 31.2742 18.4202C31.2446 18.7743 31.0566 19.0967 30.7108 19.3844C30.2957 19.7311 30.1746 20.0188 30.3474 20.2501C30.5304 20.5181 30.8443 20.5427 31.289 20.3214C31.6176 20.1493 32.3516 19.9083 33.4907 19.6009C34.0493 19.4484 34.3162 19.2838 34.2865 19.1116C34.2765 18.91 34.0393 18.8336 33.5772 18.8805C33.2782 18.9197 32.9645 18.9493 32.6357 18.969C32.317 18.9961 32.196 18.8386 32.2725 18.4918C32.2625 18.2335 32.307 17.8671 32.4035 17.3975C32.4605 17.2426 32.4579 17.1147 32.3888 17.009C33.2586 16.9499 33.9974 16.9449 34.6053 16.9942C34.509 17.031 34.4175 17.1098 34.3284 17.2229C34.0887 17.5132 33.7305 17.7713 33.2584 18.0025C32.9 18.155 32.8187 18.3002 33.0113 18.4354C33.2732 18.5879 33.7796 18.5314 34.531 18.2608C34.541 18.2705 34.5803 18.2852 34.6471 18.3051C35.198 18.4501 35.979 19.0404 36.9947 20.0783C37.4668 20.4621 37.9115 20.5579 38.3266 20.366C39.2336 19.9823 39.7746 19.6552 39.9476 19.3848C40.1504 19.0698 39.9848 18.9249 39.456 18.9543C38.7591 19.0402 37.8621 18.8903 36.7623 18.5065C36.2409 18.3049 35.754 17.9776 35.2995 17.5277C35.2995 17.2964 35.2502 17.1269 35.1537 17.0211C35.6554 17.0602 36.0533 17.1366 36.3424 17.2521C36.671 17.3776 36.9208 17.3676 37.0938 17.2227C37.279 17.0702 37.4053 16.8833 37.4718 16.662C37.5089 16.5095 37.4718 16.3842 37.3557 16.2882C37.1531 16.1924 36.3772 16.1577 35.0252 16.1874C34.4173 16.1874 33.755 16.1924 33.041 16.2021C31.9415 16.2021 31.1777 16.2045 30.7525 16.2144C30.7625 16.1283 30.7723 16.0522 30.7821 15.9858C31.6793 15.8112 33.456 15.7792 36.1101 15.885C36.4091 15.885 36.5795 15.816 36.6167 15.6831C36.656 15.5577 36.6413 15.4471 36.5748 15.3511C36.4587 15.255 35.5986 15.201 33.9972 15.1912C32.0747 15.1642 31.0192 15.169 30.824 15.2059C30.824 15.1765 30.824 15.1592 30.824 15.1493C30.9129 15.0632 31.3281 14.9474 32.0695 14.8025C32.9789 14.687 34.1156 14.7114 35.4873 14.8739C36.1346 14.9723 36.6067 14.7681 36.9058 14.2688C36.9058 14.2418 36.9108 14.2174 36.9206 14.1977C36.9601 14.0452 36.7623 13.9617 36.3274 13.9517C33.2853 13.9517 31.7237 13.9468 31.6369 13.9394C31.4615 13.9294 31.2885 13.9247 31.1155 13.9247C31.6172 13.8092 32.3214 13.7551 33.2284 13.7648C34.3678 13.7648 35.0522 13.7845 35.2845 13.8239C35.7862 13.91 36.1766 13.8338 36.4585 13.5929C36.6982 13.4107 36.8143 13.0222 36.8045 12.4245C36.8145 11.9843 36.8588 11.5662 36.9356 11.1727C36.9949 10.7595 36.891 10.4422 36.6317 10.2209C36.3128 9.98988 35.6604 9.89859 34.6768 9.94791C34.6473 9.76339 34.5853 9.60613 34.489 9.47071C34.3062 9.25915 34.0839 9.24444 33.8218 9.42896C33.6983 9.52479 33.6192 9.69698 33.592 9.94791C33.2634 9.94791 32.905 9.95527 32.5196 9.97495C32.4901 9.76339 32.4133 9.58623 32.2873 9.44108C32.1045 9.23947 31.8869 9.24444 31.6374 9.45579C31.5113 9.55183 31.4422 9.73614 31.4346 10.0043C30.3917 10.0043 29.7914 10.0708 29.638 10.206C29.4254 10.3881 29.3539 10.7593 29.4206 11.3152C29.4206 11.5465 29.4502 12.0998 29.5071 12.9731C29.4971 13.4427 29.6332 13.765 29.9122 13.9396C30.0085 13.9963 30.1692 14.0209 30.3917 14.011C30.0927 14.1068 29.8753 14.2643 29.7392 14.4856C29.6527 14.6011 29.6675 14.9135 29.7838 15.4227C29.7838 16.9501 28.7162 18.1332 26.5837 18.9695C26.3118 19.0826 26.1734 19.1981 26.1636 19.3138C26.1736 19.5548 26.4774 19.7984 27.0756 20.0493C27.3942 20.1648 27.6587 20.1404 27.8713 19.9779C28.6918 19.3335 29.275 18.8293 29.6234 18.4628C29.9522 18.089 30.2263 17.6759 30.4489 17.2233C30.6047 17.1866 30.8023 17.1519 31.042 17.1251V17.1243ZM33.5479 12.2521C33.5183 12.4637 33.5083 12.6553 33.5183 12.8277C33.2193 12.8277 32.8808 12.8424 32.5053 12.8721C32.5446 12.6703 32.5546 12.4293 32.5348 12.1515C33.0265 12.1221 33.3651 12.1122 33.5479 12.1221C33.5479 12.1615 33.5479 12.2032 33.5479 12.2525V12.2521ZM34.561 12.1217C35.0626 12.1117 35.4458 12.1316 35.7051 12.1807C35.6951 12.439 35.6558 12.6086 35.5891 12.685C35.5793 12.685 35.2283 12.7267 34.5314 12.8154C34.561 12.6136 34.571 12.3825 34.561 12.1219V12.1217ZM33.5922 11.0985C33.5822 11.1943 33.5775 11.2951 33.5775 11.4009C33.4316 11.3912 33.2858 11.3912 33.1425 11.4009C32.9104 11.4009 32.6978 11.4009 32.505 11.4009C32.505 11.1993 32.505 10.9927 32.505 10.7811C32.6878 10.7444 33.051 10.7394 33.5922 10.7664C33.5922 10.8649 33.5922 10.973 33.5922 11.0985ZM34.6475 10.7811C35.1689 10.7911 35.4828 10.8402 35.5891 10.9263C35.6286 10.9657 35.6608 11.0935 35.6903 11.3148C35.4482 11.3248 35.0824 11.3442 34.5908 11.3739C34.6008 11.1623 34.6203 10.9657 34.6477 10.7811H34.6475ZM31.5065 12.2372C31.4968 12.5076 31.5065 12.7265 31.5337 12.9013C31.467 12.8913 31.3902 12.8913 31.304 12.9013C30.9851 12.911 30.7725 12.8766 30.6665 12.8005C30.5997 12.7611 30.5454 12.5792 30.5082 12.2521C30.711 12.2127 31.042 12.1907 31.5065 12.1807C31.5065 12.1907 31.5065 12.2078 31.5065 12.2374V12.2372ZM31.5115 11.0985C31.5115 11.1943 31.5115 11.2951 31.5115 11.4009C31.0766 11.3912 30.7354 11.3739 30.4835 11.3442C30.4835 11.1426 30.5032 11.0271 30.5404 10.9975C30.6293 10.9114 30.9508 10.8547 31.5117 10.8253C31.5117 10.8917 31.5117 10.9828 31.5117 11.0983L31.5115 11.0985ZM43.5363 12.5126C43.5263 12.6651 43.5413 13.3858 43.5783 14.6721C43.6376 16.2683 43.6846 17.1857 43.7241 17.4267C43.7635 17.6356 43.7759 17.8152 43.7661 17.9579C43.7661 18.0735 43.8304 18.2089 43.9565 18.3612C44.1097 18.5457 44.2555 18.6562 44.389 18.6932C44.5644 18.7326 44.782 18.6882 45.0415 18.5628C45.3899 18.4103 46.6527 18.3292 48.8349 18.3194C50.7181 18.3194 52.0994 18.4105 52.9766 18.5924C53.4782 18.6588 53.8021 18.6171 53.9477 18.462C54.0912 18.2604 54.1727 17.9357 54.1925 17.4831C54.2518 14.6007 54.3283 13.0021 54.4246 12.6847C54.5407 12.2419 54.5704 11.8878 54.5111 11.6174C54.4148 11.2043 54.2318 10.941 53.9601 10.8255C53.7204 10.7297 53.4017 10.705 53.0062 10.7541C52.7169 10.7911 51.9683 10.8158 50.7624 10.8255C48.4444 10.7664 46.7218 10.7764 45.5925 10.8549C45.3306 10.8919 45.1058 10.8649 44.9104 10.7664C44.6807 10.6706 44.4953 10.6239 44.3618 10.6239C44.0628 10.663 43.8011 10.801 43.5785 11.042C43.4548 11.2806 43.4253 11.5463 43.492 11.834C43.5315 12.0455 43.5463 12.2716 43.5365 12.5126H43.5363ZM48.3281 17.1511C48.2985 17.2372 48.2861 17.3209 48.2861 17.397C46.403 17.407 45.2984 17.3256 44.9698 17.1511C44.797 17.0356 44.6907 16.3494 44.6511 15.0902C44.6807 15.0902 44.7179 15.0902 44.7672 15.0902C45.2886 15.0041 46.5045 14.9574 48.4148 14.9474C48.4148 16.0985 48.3876 16.834 48.3283 17.1511H48.3281ZM49.7044 17.2718C49.665 17.0012 49.6352 16.2242 49.6181 14.9351C51.3849 14.9254 52.5143 14.9745 53.0062 15.0803C53.0729 15.0803 53.1396 15.0803 53.2089 15.0803C53.1989 15.6092 53.1742 16.1378 53.1372 16.6667C53.1077 16.9644 53.0383 17.1413 52.9344 17.198C52.8355 17.2372 52.6923 17.2815 52.4995 17.3282C52.3141 17.3577 51.3849 17.3776 49.7046 17.3849C49.7046 17.3481 49.7046 17.3088 49.7046 17.2718H49.7044ZM48.3007 12.0059C48.3376 12.306 48.3724 12.9824 48.3996 14.04C46.5658 14.0473 45.3401 14.0056 44.7224 13.9095C44.6853 13.8996 44.6557 13.8996 44.6359 13.9095C44.6259 13.5357 44.6309 13.1546 44.6507 12.7708C44.6507 12.6748 44.7322 12.5299 44.8978 12.338C45.0213 12.1855 45.1819 12.0797 45.3747 12.0206C45.8961 11.8952 46.8599 11.819 48.2709 11.792C48.2709 11.8485 48.2809 11.9198 48.3005 12.0059H48.3007ZM49.7044 11.9692C49.7144 11.9028 49.7191 11.834 49.7191 11.7673C51.6888 11.7673 52.7686 11.8878 52.9614 12.1264C53.1368 12.3577 53.2233 12.9528 53.2233 13.9145C53.1837 13.9145 53.1492 13.9145 53.122 13.9145C52.7166 13.9712 51.5427 14.0153 49.6031 14.045C49.5931 13.0267 49.6276 12.3332 49.7044 11.9692ZM64.0077 10.8255C64.1337 12.852 64.1287 15.4272 63.9929 18.5507C63.9535 19.136 64.0177 19.5295 64.1807 19.7311C64.4698 20.0288 64.7269 20.0582 64.9492 19.8172C65.189 19.5492 65.2755 19.0302 65.2088 18.2604C65.142 17.338 65.1742 14.9278 65.31 11.0271C65.3496 10.4982 65.2581 10.1 65.0357 9.83175C64.8232 9.59077 64.5563 9.58579 64.24 9.81704C64.0348 9.96954 63.9583 10.3063 64.0077 10.8253V10.8255ZM63.0959 14.4138C63.2687 14.2589 63.3084 14.0768 63.2095 13.8654C63.1133 13.6835 62.8981 13.5014 62.5597 13.3194C61.8824 13.1351 61.3612 12.9727 60.9954 12.8275C60.6667 12.6454 60.1997 12.6947 59.5917 12.9727C59.2926 13.1176 59.2383 13.3294 59.4311 13.6071C59.6339 13.8948 60.0884 14.0447 60.7928 14.0523C61.4303 14.0817 61.8109 14.1778 61.9369 14.3424C61.9467 15.0335 61.6131 15.6336 60.9384 16.1428C60.4935 16.4405 59.8562 16.7528 59.0257 17.0799C58.5536 17.2618 58.3115 17.5448 58.3017 17.9309C58.3115 18.2286 58.4228 18.4202 58.6354 18.5065C59.0209 18.6616 59.6634 18.4918 60.5605 18.0023C61.1979 17.5891 61.6848 17.1857 62.0235 16.7922C62.3421 16.416 62.6512 15.7396 62.95 14.7608C62.9896 14.5862 63.0365 14.4705 63.0959 14.414V14.4138ZM66.7583 13.3465C66.7483 13.3194 66.7287 13.2997 66.7013 13.2898C66.469 13.1446 66.2664 13.1299 66.0934 13.2454C65.9375 13.3709 65.8932 13.6439 65.9623 14.067C66.0586 14.7112 66.2809 15.3016 66.6272 15.8402C66.9263 16.31 67.5218 16.9175 68.4088 17.6553C69.0561 18.0981 69.5875 18.2431 70.0027 18.0882C70.8406 17.7611 71.3298 17.4831 71.4633 17.2519C71.6089 17.0403 71.4731 16.9027 71.0579 16.8337C70.413 16.7476 69.4765 16.4452 68.2506 15.9263C67.7466 15.668 67.4277 15.3803 67.2942 15.063C67.1384 14.6498 67.0519 14.303 67.0323 14.0251C67.0223 13.966 67.0152 13.9193 67.0052 13.8799C68.4334 13.5061 69.2146 13.2602 69.3504 13.1444C69.5532 12.9725 69.6345 12.7806 69.5951 12.5688C69.5382 12.2417 69.3852 12.0351 69.133 11.949C68.7277 11.8335 67.937 12.3008 66.7583 13.346V13.3465ZM77.948 14.1114C77.5031 14.9474 76.5739 15.7149 75.1531 16.4158C74.7479 16.6174 74.5253 16.8487 74.4882 17.1093C74.4488 17.3773 74.5649 17.6086 74.8342 17.8003C75.1059 17.9724 75.5532 17.8863 76.1809 17.5396C76.7888 17.1362 77.3696 16.546 77.9182 15.7688C77.8613 18.1987 77.8663 19.5146 77.933 19.7162C78.0293 20.0138 78.2097 20.1737 78.4692 20.1934C78.7113 20.2007 78.9141 20.0632 79.0771 19.7752C79.2228 19.5146 79.2649 18.9392 79.208 18.0462C79.1686 16.6518 79.1463 15.2252 79.1365 13.7642C79.4551 13.7544 79.7642 13.7495 80.063 13.7495C80.5351 13.7789 80.8588 13.6733 81.0318 13.4347C81.1776 13.2232 81.1824 13.0116 81.0466 12.8003C80.9205 12.6157 80.5969 12.5446 80.0754 12.5837C79.7294 12.5937 79.4156 12.6131 79.1365 12.6404C79.1069 11.9787 79.1217 11.445 79.1784 11.0418C79.218 11.0418 79.2699 11.0468 79.339 11.0565C79.7148 11.1229 79.9939 11.1032 80.1793 10.9975C80.3326 10.9114 80.3845 10.7762 80.3376 10.5942C80.298 10.4417 80.1348 10.3163 79.8457 10.2202C79.4305 10.0483 79.0526 9.9226 78.7163 9.84408C78.4172 9.77767 78.1851 9.70628 78.0195 9.63014C77.7304 9.50468 77.3401 9.64009 76.8482 10.0335C76.3268 10.4368 76.144 10.7344 76.2972 10.9263C76.4233 11.0788 76.6704 11.1229 77.0362 11.0567C77.3255 11.0174 77.6096 10.9877 77.8913 10.9706C77.9778 11.5757 78.0073 12.1364 77.9778 12.6553C77.2833 12.6553 76.616 12.6136 75.9786 12.5249C75.593 12.4881 75.2224 12.6748 74.864 13.0882C74.6216 13.4055 74.5747 13.6882 74.7181 13.9392C74.9603 14.2271 75.3187 14.2639 75.7905 14.0523C76.1957 13.8801 76.9199 13.794 77.9628 13.794C77.9528 13.8901 77.948 13.9959 77.948 14.1114ZM80.3526 14.7729C79.9374 14.65 79.6655 14.6401 79.5421 14.7458C79.426 14.8613 79.416 14.9697 79.5125 15.0753C79.7546 15.3457 79.9698 15.7 80.165 16.1426C80.2317 16.3542 80.3997 16.4697 80.6716 16.4894C80.9409 16.5164 81.1437 16.4033 81.2796 16.1426C81.423 15.8449 81.4178 15.5843 81.2648 15.3656C81.1089 15.1244 80.8051 14.9278 80.353 14.7727L80.3526 14.7729ZM85.7668 14.9327C85.7668 16.5757 85.757 17.4637 85.7396 17.5989C85.6236 18.0417 85.3664 18.3908 84.9711 18.6515C84.5855 18.9098 84.2273 19.0155 83.8984 18.9688C83.1942 18.9098 82.8086 18.9147 82.7421 18.9809C82.6532 19.1064 82.6926 19.2662 82.8558 19.4581C83.1575 19.7852 83.6096 20.0138 84.2175 20.149C84.692 20.2351 85.2234 20.149 85.8114 19.8908C86.2735 19.6595 86.6121 19.3177 86.8247 18.8652C86.9779 18.4814 87.0027 17.6895 86.8962 16.4894C86.8099 13.6928 86.8542 11.8582 87.0272 10.9825C87.1805 10.5694 87.1237 10.1956 86.8544 9.85857C86.6419 9.56092 86.385 9.43545 86.0859 9.48456C85.8166 9.54123 85.656 9.8019 85.609 10.2618C85.5794 10.6749 85.5892 11.2332 85.6362 11.9341C85.6657 12.5121 85.6905 13.0875 85.7103 13.6632C85.5075 13.6361 84.9811 13.7395 84.131 13.9805C83.8124 14.0469 83.6196 13.855 83.5526 13.4049C83.5231 12.9621 83.5231 12.635 83.5526 12.4234C83.6194 11.9341 83.5279 11.5798 83.2759 11.3585C83.0634 11.1766 82.8384 11.0929 82.5963 11.1125C82.4233 11.142 82.2774 11.2527 82.1614 11.4446C82.0651 11.6267 82.1046 11.9586 82.2774 12.4381C82.4802 12.871 82.5913 13.203 82.6111 13.4343C82.6208 13.6729 82.5715 13.9139 82.4652 14.1525C82.3687 14.364 82.2157 14.5583 82.0031 14.7305C81.7906 14.9024 81.6547 15.0796 81.5978 15.2641C81.5384 15.4657 81.578 15.6429 81.7138 15.7954C81.8375 15.9503 82.0031 16.0561 82.2055 16.1125C82.3785 16.142 82.6404 15.992 82.9864 15.6673C83.6537 14.9738 84.5705 14.7303 85.7394 14.9319C85.7394 14.9319 85.7468 14.9319 85.7666 14.9319L85.7668 14.9327ZM98.8642 20.2206C99.3659 20.3067 99.7563 20.2306 100.038 19.992C100.278 19.8075 100.394 19.419 100.384 18.8237C100.384 18.1792 100.429 17.5692 100.515 16.9938C100.575 16.5806 100.471 16.2633 100.211 16.042C99.8925 15.811 99.3389 15.7249 98.5456 15.7837C98.5456 15.7147 98.5604 15.6386 98.5902 15.5525C98.6173 15.4073 98.6001 15.2598 98.5308 15.1049C99.4378 15.1049 100.468 15.3559 101.615 15.8551C102.146 16.0567 102.702 15.801 103.28 15.0902C103.367 14.9673 103.463 14.8319 103.57 14.687C103.745 14.3893 103.649 14.2418 103.28 14.2418C102.875 14.2688 102.215 14.2639 101.296 14.2271C100.92 14.2171 100.394 14.2074 99.7195 14.1977C99.7195 14.1877 99.7245 14.183 99.7343 14.183C99.9371 14.0575 100.12 13.9664 100.283 13.91C100.671 13.7281 100.777 13.391 100.602 12.9017C100.332 12.2867 100.004 12.2277 99.6182 12.7271C99.3289 13.256 98.9755 13.738 98.5604 14.1685C97.9524 14.1414 97.5423 14.1315 97.3297 14.1414C97.3297 14.0259 97.3297 13.8611 97.3297 13.6495C97.5721 13.6398 97.8414 13.6398 98.1402 13.6495C98.5258 13.6495 98.753 13.5636 98.8223 13.3912C98.8792 13.2093 98.8545 13.0642 98.7482 12.9584C98.6047 12.8329 98.165 12.7665 97.431 12.7566C97.6338 12.4983 97.5793 12.2573 97.2704 12.036C98.3824 11.9966 99.245 12.0016 99.8628 12.0507C100.473 12.0801 100.906 11.8958 101.168 11.5023C101.341 11.1186 101.462 10.7695 101.528 10.4521C101.598 10.1618 101.523 9.91849 101.311 9.71667C101.138 9.5421 100.622 9.4387 99.7615 9.39954C99.638 9.36017 98.5284 9.3552 96.4377 9.38483C95.3825 9.38483 94.2953 9.40928 93.1759 9.456C92.8001 9.46595 92.5456 9.56178 92.4097 9.7463C92.2367 10.0046 92.207 10.2455 92.3232 10.4645C92.4393 10.7816 92.511 11.1482 92.5408 11.5614C92.5978 11.8591 92.689 12.0754 92.8151 12.2082C92.9116 12.2967 93.0646 12.314 93.2772 12.2673C93.6826 12.2008 94.592 12.1321 96.0006 12.0654C96.0402 12.0555 96.0921 12.0555 96.1588 12.0654C96.0452 12.1909 96.0304 12.3877 96.1169 12.6558C96.1169 12.6852 96.1169 12.7172 96.1169 12.7566C94.7256 12.6999 93.9297 12.7713 93.7273 12.9731C93.5443 13.1451 93.5 13.3322 93.5963 13.5338C93.7223 13.7748 94.046 13.8462 94.5674 13.7501C95.3286 13.6076 95.8745 13.5682 96.2034 13.637C96.2034 13.8459 96.2034 14.0207 96.2034 14.1536C95.326 14.1462 94.4118 14.1585 93.4676 14.1979C93.0796 14.2076 92.8251 14.2126 92.699 14.2126C92.1678 14.2518 91.7007 14.4142 91.2954 14.7019C90.9667 14.9996 90.8802 15.2873 91.0335 15.5676C91.2363 15.8356 91.6092 15.8973 92.1481 15.7545C93.4035 15.3708 94.5624 15.1495 95.6253 15.0904C94.0312 16.3596 92.5212 17.1612 91.093 17.4983C90.7051 17.4983 90.421 17.6237 90.238 17.8721C90.1219 18.0466 90.1464 18.2508 90.3095 18.4918C90.4849 18.733 90.6877 18.8756 90.9174 18.9247C91.4982 19.0205 92.6177 18.4574 94.2783 17.2374C94.4511 17.0948 94.6193 16.9644 94.785 16.8489C94.795 16.9743 94.7998 17.1095 94.7998 17.2521C94.8567 18.9811 94.9332 19.9182 95.0295 20.0634C95.0888 20.1592 95.1753 20.2503 95.2914 20.3364C95.4644 20.4324 95.8228 20.4324 96.3614 20.3364C97.0954 20.1642 97.9283 20.1248 98.8649 20.2209L98.8642 20.2206ZM95.9137 18.4202C96.5042 18.3047 97.3817 18.28 98.5506 18.3491C98.7927 18.3564 99.0473 18.3811 99.3166 18.4202C99.3092 18.7646 99.2598 18.9859 99.1733 19.0819C99.104 19.141 98.9607 19.1704 98.7384 19.1704C98.3528 19.1607 97.5892 19.1875 96.4501 19.2565C96.2475 19.2665 96.1141 19.2466 96.045 19.1975C95.9585 19.1408 95.8967 18.8803 95.8572 18.4202C95.8672 18.4202 95.8867 18.4202 95.9141 18.4202H95.9137ZM99.2746 17.397C98.4048 17.5125 97.3197 17.5175 96.015 17.4117C95.9013 17.3823 95.8322 17.3774 95.8122 17.397C95.8122 17.07 95.8417 16.8781 95.9011 16.819C95.9976 16.7526 96.4794 16.7009 97.3493 16.6616C98.4293 16.6321 99.0373 16.6616 99.1731 16.7476C99.2398 16.8141 99.2892 17.0304 99.3163 17.397C99.3089 17.3871 99.2942 17.3871 99.2744 17.397H99.2746ZM96.7687 15.8108C96.5092 15.8108 96.2671 15.8205 96.0447 15.8402C96.5464 15.3777 96.8133 15.1294 96.8405 15.09C96.8331 15.08 96.8331 15.0729 96.8405 15.063C97.1989 15.053 97.5373 15.058 97.8562 15.0753C97.8266 15.1047 97.8068 15.1443 97.7968 15.1908C97.7673 15.2596 97.8116 15.4564 97.9279 15.7835C97.5795 15.7835 97.1939 15.7909 96.769 15.8106L96.7687 15.8108ZM97.463 10.2622C97.5323 10.4934 97.5323 10.7294 97.463 10.9704C97.4358 11.0368 97.421 11.1132 97.421 11.1993C96.9761 11.1993 96.509 11.209 96.015 11.2287C96.015 11.172 96.0126 11.0122 96.0026 10.7539C96.0026 10.5523 96.0126 10.3457 96.0297 10.1341C96.5612 10.1047 97.0356 10.1047 97.4508 10.1341C97.4508 10.1711 97.4558 10.2155 97.463 10.262V10.2622ZM98.5208 11.1132C98.4639 10.941 98.4739 10.6581 98.5504 10.2622C98.5504 10.2254 98.5554 10.1908 98.5652 10.1614C99.1829 10.1713 99.6698 10.196 100.028 10.2352C100.124 10.2622 100.171 10.2966 100.171 10.336C100.181 10.5746 100.176 10.8106 100.157 11.0418C100.157 11.0786 100.07 11.118 99.8971 11.1573C99.482 11.1573 99.0225 11.1671 98.5208 11.1844C98.5208 11.1573 98.5208 11.1327 98.5208 11.113V11.1132ZM94.9302 10.336C94.9969 10.6336 95.0019 10.8869 94.9449 11.0985C94.9349 11.1376 94.9252 11.1896 94.9154 11.2583C94.5596 11.2484 94.1914 11.2534 93.8158 11.2731C93.7193 11.2436 93.6652 11.204 93.6552 11.1575C93.5884 10.9163 93.5934 10.6436 93.67 10.336C93.67 10.326 93.6995 10.3016 93.7565 10.2622C94.0751 10.2055 94.4631 10.1711 94.9154 10.1614C94.9154 10.2008 94.9204 10.2574 94.9302 10.336Z" fill="#332C2B"/>
<path d="M30.0986 2.99587C29.6573 2.97035 29.2518 2.95023 28.8807 2.93682C28.7801 2.93682 28.7188 2.90459 28.6975 2.83904C28.6886 2.77891 28.7253 2.7112 28.8081 2.63765C28.8999 2.57189 28.9835 2.53101 29.0574 2.51413C29.1233 2.50094 29.215 2.51759 29.3322 2.5654C29.3713 2.57427 29.4393 2.59439 29.5356 2.62424C29.6271 2.63311 29.8271 2.65214 30.1377 2.68329C30.2505 2.68329 30.3344 2.71315 30.3857 2.77436C30.4383 2.82217 30.4426 2.87668 30.3992 2.9366C30.3511 2.98008 30.2507 2.99998 30.0986 2.99566V2.99587ZM30.1242 3.94075C30.1722 3.98856 30.179 4.04632 30.1442 4.11641C30.1353 4.16421 30.1107 4.36214 30.0716 4.7089C30.0503 5.04355 29.9653 5.34704 29.8169 5.62069C29.6817 5.87746 29.4528 6.16429 29.1287 6.4812C28.911 6.70682 28.7479 6.81585 28.6384 6.80698C28.5423 6.79811 28.4754 6.74122 28.4349 6.63673C28.4136 6.53766 28.4641 6.43772 28.5858 6.33757C29.0048 5.99838 29.2952 5.7137 29.4561 5.48354C29.6137 5.26225 29.7143 5.04117 29.7578 4.81966C29.7969 4.60182 29.7834 4.39394 29.7186 4.19385C29.6873 4.12917 29.625 4.09823 29.5287 4.10256C29.2841 4.10256 29.0438 4.12484 28.8081 4.16832C28.6295 4.21613 28.4875 4.19839 28.3826 4.11597C28.2954 4.02923 28.3111 3.93816 28.4295 3.84255C28.5601 3.75126 28.6932 3.71795 28.8284 3.74477C29.0731 3.78803 29.4172 3.82264 29.863 3.84925C29.9892 3.85704 30.0762 3.88819 30.1244 3.94032L30.1242 3.94075ZM31.7339 2.52646C31.9004 2.54874 32.0634 2.56756 32.2256 2.5853C32.4221 2.58984 32.697 2.5853 33.05 2.57189C33.1941 2.56302 33.2856 2.58746 33.3247 2.64414C33.3606 2.69195 33.356 2.75208 33.3126 2.8265C33.2689 2.88663 33.1774 2.91324 33.0376 2.90437C32.7537 2.8955 32.4388 2.89767 32.0947 2.91108C31.9161 2.91108 31.7741 2.92903 31.6692 2.96343C31.5205 2.99804 31.4222 2.98246 31.3742 2.918C31.3305 2.85224 31.3507 2.7655 31.4333 2.65669C31.5248 2.55329 31.6255 2.51002 31.7339 2.52668V2.52646ZM32.3629 6.26683C32.3886 5.27631 32.3999 4.68792 32.3953 4.50124C32.3875 4.35782 32.3719 4.2356 32.3495 4.13544C32.3495 4.12765 32.3473 4.12333 32.3427 4.12333C32.1684 4.11446 31.9965 4.11662 31.8267 4.13003C31.5731 4.14691 31.3809 4.17806 31.2503 4.22132C31.1286 4.25571 31.0258 4.29033 30.9432 4.32472C30.8034 4.38572 30.6939 4.37707 30.6159 4.29919C30.5546 4.21245 30.57 4.10581 30.6617 3.98012C30.7265 3.90225 30.8069 3.86677 30.903 3.87564C30.9945 3.88019 31.2225 3.86461 31.5846 3.83C31.9465 3.79539 32.3151 3.78674 32.6905 3.80447C33.0837 3.82113 33.5675 3.88019 34.1439 3.98012C34.2354 3.98899 34.2522 4.04113 34.1965 4.13566C34.1485 4.22348 34.0805 4.3059 33.9931 4.38378C33.9194 4.44499 33.8209 4.4517 33.6981 4.40389C33.5373 4.32494 33.3775 4.26718 33.2211 4.22716C33.1072 4.20164 32.9585 4.17589 32.7753 4.14929C32.7753 4.15815 32.7731 4.17373 32.7685 4.19493C32.7518 4.29054 32.7337 4.43396 32.7159 4.62519C32.7561 5.22893 32.7796 5.80045 32.7885 6.33865C32.8018 6.58201 32.7861 6.76004 32.7427 6.87231C32.7081 6.97246 32.6466 7.02676 32.5594 7.03563C32.4847 7.03563 32.4288 6.98782 32.3886 6.89221C32.3584 6.80092 32.3495 6.59196 32.3629 6.26726V6.26683ZM38.5334 4.61134C38.5244 4.75022 38.5201 4.97368 38.5201 5.2828C38.529 5.57742 38.5468 5.78639 38.5727 5.90752V6.01871C38.7425 6.0053 38.9133 5.98756 39.0833 5.96636C39.1089 5.7972 39.1224 5.41713 39.1224 4.8268C39.1224 4.20531 39.1078 3.81378 39.0765 3.6537C39.0765 3.6405 39.0744 3.62926 39.0698 3.62147C38.699 3.62147 38.424 3.64699 38.2443 3.69934C38.0924 3.73395 37.9874 3.71838 37.9304 3.6537C37.887 3.57929 37.9091 3.48822 37.9965 3.38027C38.088 3.27579 38.1919 3.23015 38.3104 3.24356C38.5338 3.27363 38.7559 3.29591 38.9785 3.30802C39.2411 3.31257 39.6119 3.30023 40.0913 3.26909C40.2444 3.26022 40.3404 3.28682 40.3796 3.34804C40.4187 3.39477 40.4143 3.45815 40.3663 3.53602C40.3228 3.59724 40.2265 3.62493 40.0792 3.62168C39.8914 3.61282 39.6971 3.61065 39.496 3.61498V3.6405C39.4658 3.81832 39.4525 4.21634 39.4569 4.83242C39.5095 4.81122 39.5853 4.78115 39.6858 4.74113C39.8164 4.68121 39.9038 4.63773 39.9472 4.61113C39.9874 4.58993 40.0109 4.57003 40.0198 4.55207C40.0724 4.48761 40.1205 4.453 40.1639 4.44867C40.2031 4.44867 40.2578 4.48545 40.327 4.55878C40.393 4.61978 40.4252 4.67883 40.4252 4.73551C40.4252 4.77899 40.3704 4.82442 40.2622 4.87222C39.9783 4.93236 39.7707 4.97346 39.6399 4.99574C39.5662 4.99574 39.5047 4.99812 39.4567 5.00245C39.4567 5.42384 39.4634 5.723 39.4769 5.90082C39.7338 5.85301 39.9785 5.81407 40.2096 5.78422C40.3537 5.78422 40.4363 5.82316 40.4589 5.90082C40.4711 5.97523 40.4208 6.02325 40.308 6.04424C39.7618 6.16646 39.2756 6.26986 38.8479 6.35768C38.4369 6.43102 38.1552 6.49764 38.0022 6.55886C37.867 6.59347 37.7698 6.57681 37.7083 6.50651C37.6513 6.43318 37.7037 6.33302 37.8648 6.20734C37.9965 6.10286 38.1273 6.04618 38.258 6.0371V5.95252C38.258 5.87464 38.2445 5.65335 38.2189 5.28864C38.1965 4.92738 38.173 4.71496 38.1463 4.64941C38.125 4.55834 38.125 4.47809 38.1463 4.4093C38.1821 4.34354 38.228 4.31152 38.2849 4.31152C38.3451 4.31152 38.4045 4.33943 38.4614 4.39611C38.514 4.43959 38.5386 4.51054 38.534 4.61091L38.5334 4.61134ZM40.4906 4.92371C40.7654 4.53779 40.9688 4.16227 41.0994 3.79755C41.2257 3.43284 41.2624 3.06142 41.2111 2.68351C41.2022 2.57016 41.2301 2.50332 41.2961 2.48104C41.3744 2.45984 41.457 2.4832 41.5441 2.55329C41.6358 2.62229 41.695 2.69671 41.7217 2.77458C41.7474 2.84791 41.7474 2.91129 41.7217 2.96364C41.6335 3.15487 41.5385 3.41294 41.4335 3.73871C41.4246 3.78652 41.4046 3.84319 41.3744 3.90766C41.4926 3.90766 41.7384 3.9042 42.114 3.89554C42.4937 3.88213 42.8256 3.87326 43.1093 3.86872C43.2267 3.86872 43.3103 3.88213 43.3573 3.90766C43.3975 3.92994 43.4099 3.97775 43.3975 4.05108C43.3886 4.1123 43.3471 4.16897 43.2723 4.22132C43.2164 4.26458 43.1282 4.27475 43.0108 4.25355C42.8489 4.21894 42.5696 4.2012 42.1729 4.2012C41.7886 4.2012 41.4746 4.22565 41.2301 4.27345H41.2168C41.1296 4.4636 41.0144 4.68143 40.8706 4.92392C40.7834 5.06302 40.6962 5.16079 40.6091 5.21747C40.5343 5.26095 40.4717 5.26549 40.4191 5.23088C40.3832 5.19194 40.408 5.08962 40.4906 4.92392V4.92371ZM40.2872 6.5461C40.5184 6.5461 40.7462 6.51149 40.9688 6.4427C41.1911 6.38148 41.3698 6.30144 41.505 6.2015C41.6356 6.11022 41.7676 5.97804 41.8982 5.80326C41.9071 5.77773 41.9217 5.74983 41.9438 5.71868C41.9395 5.71868 41.9349 5.71197 41.9306 5.69986L41.9238 5.70656C41.8278 5.61549 41.7237 5.52767 41.61 5.44525C41.4961 5.35851 41.3552 5.28301 41.1844 5.21725C41.0314 5.15279 40.9577 5.08724 40.9621 5.0217C40.9755 4.95724 41.0427 4.9183 41.1655 4.9051C41.2827 4.89169 41.4135 4.9395 41.5576 5.04852C41.7497 5.1742 41.9262 5.31546 42.0882 5.47207C42.1138 5.40653 42.1429 5.33536 42.1731 5.25641C42.2347 5.07405 42.256 4.92847 42.2392 4.82052C42.2303 4.71604 42.2449 4.63384 42.2849 4.57262C42.324 4.52027 42.3742 4.49713 42.4346 4.50145C42.5529 4.50924 42.6246 4.58171 42.6513 4.71626C42.6591 4.77726 42.6513 4.83069 42.6246 4.8785C42.6033 4.92176 42.572 5.01391 42.5329 5.153C42.4716 5.35656 42.4022 5.53437 42.324 5.68666L42.8869 6.16927C43.1741 6.40722 43.4823 6.6296 43.8098 6.83315C43.8746 6.86776 43.8333 6.92206 43.6846 6.99669C43.5327 7.05336 43.3818 7.07218 43.2332 7.05445C43.0934 7.04212 42.956 6.94434 42.8209 6.76198C42.6198 6.48834 42.4477 6.26834 42.3036 6.10373L42.1729 5.9536C42.059 6.1193 41.9282 6.26705 41.7797 6.39727C41.6324 6.51841 41.4289 6.63738 41.1709 6.75528C40.9275 6.86755 40.7108 6.93742 40.523 6.96316C40.3832 6.99431 40.2615 6.99431 40.1565 6.96316C40.0694 6.92877 40.0124 6.88096 39.9868 6.82082C39.9779 6.7596 39.9957 6.6986 40.0394 6.63738C40.092 6.57746 40.1746 6.54631 40.2874 6.54631L40.2872 6.5461ZM48.101 2.37093C48.4418 2.46654 48.73 2.52884 48.9658 2.55891C49.053 2.56778 49.1378 2.60326 49.2206 2.66339C49.3077 2.7112 49.3512 2.77458 49.3512 2.85246C49.3345 2.9392 49.2551 3.06142 49.1154 3.21717C48.9891 3.35605 48.8976 3.45404 48.8406 3.51071C48.7848 3.55398 48.7826 3.61087 48.835 3.67966C49.0439 3.87997 49.1702 4.03658 49.2136 4.14885C49.2662 4.24901 49.2862 4.35782 49.2727 4.47463C49.2549 4.58798 49.2012 4.70479 49.1097 4.82723C49.0091 4.95291 48.8785 5.05069 48.7165 5.11969C48.5635 5.17637 48.4094 5.21076 48.2518 5.22417C48.1423 5.22417 48.0797 5.19865 48.0619 5.1463C48.0573 5.09395 48.1099 5.03944 48.2195 4.98298C48.4418 4.8785 48.6361 4.73594 48.8013 4.5525C48.893 4.42682 48.9265 4.30568 48.8995 4.18779C48.8561 4.04891 48.79 3.94876 48.7031 3.88862C48.6203 3.82308 48.5309 3.79971 48.4348 3.81637C48.352 3.84752 48.2929 3.83433 48.2584 3.77743C48.236 3.71297 48.2673 3.64526 48.3501 3.57626C48.5198 3.46291 48.6472 3.34372 48.7298 3.21717C48.817 3.08716 48.8672 2.96797 48.8793 2.85916C48.8715 2.80681 48.8213 2.77458 48.7298 2.76139C48.5679 2.68805 48.3523 2.65236 48.0817 2.6569C48.0817 2.66577 48.0795 2.6768 48.0749 2.69022C48.0436 2.76355 48.0247 2.86154 48.0158 2.98268C48.0069 3.65651 48.0112 4.85059 48.0291 6.56621C48.0291 6.70531 48.0091 6.81433 47.9699 6.89199C47.9354 6.96208 47.8895 6.99864 47.8326 7.00318C47.7891 7.00318 47.7432 6.9465 47.6952 6.83294C47.6517 6.71634 47.6361 6.53377 47.6493 6.28608C47.675 5.33882 47.6841 4.26026 47.675 3.04844C47.675 2.89161 47.6604 2.7748 47.6291 2.69692C47.6078 2.69692 47.5857 2.69476 47.5644 2.69022C47.5028 2.66361 47.475 2.61797 47.4794 2.5535C47.4915 2.48774 47.5487 2.42458 47.6491 2.36444C47.7408 2.30322 47.8915 2.30539 48.1006 2.37115L48.101 2.37093ZM52.0155 3.23707C51.7977 3.2282 51.496 3.2282 51.1128 3.23707C50.7901 3.23707 50.5364 3.25027 50.3532 3.27601C50.1913 3.29375 50.0896 3.32619 50.0448 3.37378C50.028 3.39498 50.0102 3.43933 49.9933 3.50379C49.9844 3.56047 49.9733 3.6537 49.9598 3.78392C49.9598 3.93189 49.9363 4.03204 49.8883 4.08417C49.8448 4.12744 49.7922 4.14864 49.7307 4.14864C49.6827 4.13977 49.6392 4.1097 49.6001 4.05757C49.5788 4.00522 49.5677 3.9029 49.5677 3.75169C49.589 3.63834 49.6281 3.49925 49.6851 3.33463C49.7118 3.20462 49.7577 3.10901 49.8224 3.04779C49.8883 2.98657 50.0324 2.95218 50.2547 2.94331C50.4727 2.93444 50.7218 2.93206 51.0009 2.9366C51.0009 2.85873 50.9963 2.7854 50.9877 2.71531C50.9831 2.65085 50.9685 2.58314 50.9418 2.51392C50.9116 2.40057 50.9485 2.33048 51.0535 2.30495C51.1585 2.27943 51.2524 2.29608 51.3352 2.3573C51.4134 2.41852 51.4313 2.51413 51.3878 2.64414C51.3654 2.70428 51.3419 2.80205 51.3152 2.9366C51.656 2.9366 51.9418 2.94115 52.1731 2.95001C52.3652 2.95001 52.5217 2.98225 52.6445 3.04779C52.7617 3.10447 52.8367 3.16677 52.8669 3.23685C52.8925 3.29353 52.906 3.39909 52.906 3.55592C52.9149 3.59032 52.9238 3.62926 52.9317 3.67252C52.9449 3.70367 52.9517 3.74931 52.9517 3.80923C52.9517 3.89706 52.9293 3.96823 52.8858 4.0249C52.851 4.07293 52.8121 4.10278 52.7686 4.11619C52.7384 4.11619 52.7026 4.10516 52.6637 4.08396C52.6334 4.05735 52.6089 3.98834 52.5921 3.87499C52.5743 3.81378 52.5587 3.7359 52.5463 3.64029C52.5374 3.549 52.5196 3.47134 52.4937 3.40558C52.4713 3.34545 52.4502 3.30997 52.4278 3.3011C52.3798 3.27557 52.2422 3.25329 52.0155 3.23664V3.23707ZM50.7264 3.72508C50.857 3.74282 50.9922 3.7584 51.132 3.77073C51.2896 3.77527 51.5117 3.77289 51.8001 3.7651C51.9307 3.75623 52.0112 3.77722 52.0425 3.82957C52.0772 3.87283 52.0727 3.92734 52.0292 3.99289C51.9944 4.04069 51.9131 4.06406 51.7869 4.06406C51.5556 4.05519 51.3009 4.05519 51.0216 4.06406C50.8731 4.06406 50.7568 4.07963 50.6742 4.1097C50.539 4.13955 50.4497 4.12744 50.406 4.07076C50.3712 4.00954 50.388 3.93189 50.4586 3.83606C50.5369 3.74499 50.6262 3.70821 50.7268 3.72487L50.7264 3.72508ZM51.2167 4.58236C51.4526 4.56894 51.8892 4.56462 52.5261 4.56894C52.6702 4.56894 52.7406 4.59685 52.736 4.65244C52.7271 4.70804 52.6724 4.76688 52.5719 4.83155C52.4848 4.88715 52.3709 4.90381 52.2311 4.88261C52.0916 4.86941 51.9151 4.86033 51.7017 4.85708C51.7017 4.90359 51.6949 4.96264 51.6814 5.03165C51.6647 5.07946 51.6256 5.35418 51.5641 5.85323C51.5641 6.00444 51.5875 6.13574 51.6356 6.24347C51.6714 6.30447 51.7295 6.35466 51.8121 6.39338C51.9171 6.42799 52.0903 6.46346 52.3294 6.49786C52.5652 6.51906 52.7571 6.51906 52.9058 6.49786C53.0755 6.47125 53.2309 6.41782 53.3705 6.33454C53.5011 6.26121 53.5492 6.30447 53.5146 6.46455C53.4798 6.61683 53.405 6.76025 53.2922 6.8948C53.1916 7.02157 53.0564 7.06829 52.8856 7.03822C52.4363 6.95148 52.0086 6.83467 51.603 6.68692C51.3461 6.55691 51.232 6.28651 51.2622 5.87854C51.3102 5.36154 51.3326 5.02581 51.328 4.86898V4.85686C51.2576 4.85686 51.1818 4.86011 51.0992 4.86898C51.0376 4.86898 50.9729 4.86898 50.9025 4.86898C50.9025 4.88672 50.8981 4.90575 50.8892 4.92782C50.8725 4.98795 50.8568 5.06691 50.8433 5.16252C50.8131 5.35375 50.7494 5.55276 50.6534 5.76194C50.5662 5.9655 50.4512 6.13985 50.3071 6.28327C50.1808 6.41782 50.03 6.53896 49.8557 6.64798C49.6894 6.74706 49.534 6.82363 49.391 6.87598C49.2814 6.89718 49.1943 6.89264 49.1284 6.86257C49.0669 6.82818 49.0302 6.78015 49.0178 6.71915C49.0089 6.65339 49.0367 6.59347 49.1028 6.5368C49.1675 6.48445 49.2749 6.43448 49.4234 6.38667C49.5496 6.36114 49.6981 6.28651 49.8681 6.16538C50.0389 6.05203 50.1763 5.92634 50.2802 5.78747C50.3852 5.64405 50.4623 5.48159 50.5103 5.29924C50.5573 5.11688 50.5751 4.98233 50.5619 4.8945C50.3965 4.90337 50.2524 4.92565 50.1306 4.96005C49.925 5.00785 49.7966 5.00569 49.744 4.95334C49.7005 4.89342 49.7005 4.82225 49.744 4.74092C49.792 4.66542 49.8813 4.61199 50.0122 4.58192C50.1385 4.5564 50.2658 4.54731 50.3919 4.5564C50.4399 4.57305 50.5449 4.58192 50.7057 4.58192C50.8633 4.58192 51.0331 4.58192 51.2163 4.58192L51.2167 4.58236ZM60.1288 4.10992C59.662 4.10992 59.3044 4.1322 59.0553 4.17546C58.8934 4.19666 58.776 4.18757 58.7013 4.14885C58.6409 4.10992 58.6095 4.0143 58.6095 3.86201C58.6095 3.75861 58.6063 3.63423 58.5974 3.4906C58.5928 3.34718 58.5885 3.22604 58.5839 3.12588C58.5839 3.02573 58.5839 2.95023 58.5839 2.8981C58.575 2.79794 58.5906 2.72461 58.6298 2.6768C58.6778 2.629 58.7469 2.60564 58.8386 2.60564C58.9962 2.60564 59.1816 2.60326 59.3962 2.59893V2.53317C59.3872 2.39408 59.4129 2.29846 59.4744 2.24633C59.5392 2.19398 59.605 2.20069 59.6709 2.26645C59.7313 2.32767 59.758 2.43085 59.7491 2.57881V2.59201C59.958 2.58314 60.1569 2.57881 60.3445 2.57881C60.3445 2.55329 60.3468 2.53317 60.3512 2.51976C60.3466 2.38975 60.3768 2.2963 60.4427 2.23962C60.5088 2.18836 60.5733 2.19636 60.6394 2.26623C60.692 2.32745 60.7131 2.43063 60.7042 2.5786H61.1689C61.3265 2.58314 61.4484 2.61537 61.5364 2.67637C61.6147 2.72439 61.6449 2.8133 61.6281 2.94331C61.6058 3.16893 61.5945 3.41921 61.5945 3.69264C61.5945 4.03615 61.4358 4.18173 61.1176 4.1296C61.008 4.12073 60.6785 4.11403 60.1288 4.1097V4.10992ZM60.3401 3.21479C60.3401 3.14924 60.3401 3.08478 60.3401 3.01924V2.81135C60.2149 2.81135 60.0762 2.81373 59.9256 2.81806H59.7502C59.7502 2.91713 59.7502 3.02594 59.7502 3.14275V3.21501C59.8698 3.21501 60.006 3.21501 60.1614 3.21501C60.2227 3.21501 60.2832 3.21501 60.3401 3.21501V3.21479ZM60.6685 3.16482C60.6685 3.17369 60.6685 3.18926 60.6685 3.21046C60.9524 3.20268 61.1556 3.19359 61.2773 3.18494C61.2728 3.00258 61.2528 2.8981 61.2182 2.87257C61.1745 2.83688 60.9959 2.81806 60.682 2.81373C60.6774 2.92254 60.6731 3.03935 60.6685 3.16504V3.16482ZM60.3066 3.68961C60.3066 3.61173 60.3112 3.53061 60.3201 3.44841C60.2508 3.44841 60.1771 3.44841 60.0999 3.44841H59.7637C59.7637 3.50509 59.7637 3.5529 59.7637 3.59183C59.7637 3.68745 59.7637 3.76748 59.7637 3.83324H59.89C60.0352 3.82438 60.1738 3.81983 60.3066 3.81983C60.3066 3.7809 60.3066 3.73741 60.3066 3.68982V3.68961ZM60.6485 3.62731C60.6485 3.6974 60.6485 3.76402 60.6485 3.82978C60.6966 3.82978 60.7492 3.83433 60.8061 3.84319C61.015 3.85206 61.1547 3.82762 61.2252 3.77094C61.2508 3.73201 61.2686 3.63856 61.2778 3.4906C61.1639 3.4694 60.9537 3.45836 60.6488 3.45836V3.62731H60.6485ZM59.4285 3.21046C59.4285 3.14578 59.4285 3.08262 59.4285 3.02248C59.4285 2.95672 59.4285 2.89139 59.4285 2.82671C59.1358 2.83126 58.9706 2.85678 58.9312 2.90459C58.9088 2.92233 58.8978 3.01578 58.8978 3.18494C59.0027 3.19381 59.1794 3.20268 59.4283 3.21046H59.4285ZM59.442 3.67966C59.442 3.60633 59.442 3.53408 59.442 3.46507C59.1851 3.46507 59.0051 3.47848 58.9058 3.50401C58.918 3.67749 58.9404 3.77527 58.9706 3.79755C59.0097 3.83195 59.1034 3.85206 59.252 3.85639C59.3046 3.85639 59.3683 3.85423 59.442 3.84968C59.442 3.79734 59.442 3.74066 59.442 3.67944V3.67966ZM59.9671 6.20799C60.1849 6.12903 60.3447 6.0557 60.4453 5.9867C60.5368 5.91207 60.6127 5.85323 60.6742 5.80996C60.7346 5.75762 60.7983 5.73209 60.8641 5.73209C60.9291 5.73209 60.9648 5.77773 60.9691 5.8688C60.9691 5.91661 60.9467 5.96896 60.9033 6.02563C60.968 6.0689 61.0685 6.12903 61.2039 6.20799C61.4351 6.32913 61.7166 6.44486 62.0485 6.55259C62.3758 6.65274 62.6227 6.70487 62.7881 6.70942C62.9846 6.70942 63.0483 6.75052 62.9781 6.83272C62.9088 6.90735 62.7782 6.99171 62.586 7.08733C62.3982 7.17407 62.2296 7.1652 62.0822 7.06072C61.6544 6.77496 61.3482 6.57919 61.165 6.47471C60.9906 6.37023 60.8665 6.30793 60.7918 6.28565C60.7313 6.26445 60.6698 6.25104 60.6085 6.24671C60.5916 6.24671 60.5759 6.24001 60.5627 6.22681C60.4755 6.25774 60.3705 6.29019 60.2488 6.32459C60.0836 6.35574 59.9628 6.35812 59.8891 6.33129C59.8276 6.29668 59.8532 6.25558 59.9674 6.20777L59.9671 6.20799ZM61.4597 4.65699H58.8869C58.8869 4.7314 58.8915 4.82485 58.9002 4.93734C58.9662 4.91181 59.0656 4.90056 59.2008 4.9051H60.2688C60.5827 4.90965 60.9122 4.91397 61.2565 4.9183C61.4397 4.9183 61.556 4.93734 61.6038 4.97606C61.6429 5.01175 61.6564 5.05956 61.6429 5.11948C61.6249 5.17615 61.5536 5.20622 61.4273 5.21055C60.8944 5.18935 60.4229 5.17615 60.0128 5.17161C59.6374 5.17161 59.3301 5.19173 59.0901 5.23045C59.0151 5.23932 58.9504 5.24148 58.8934 5.23715C58.8845 5.29275 58.8678 5.36067 58.8408 5.43855H58.8934H60.1178C60.7333 5.41735 61.2741 5.41064 61.7409 5.41951C61.8459 5.41951 61.922 5.43292 61.97 5.45845C62.0092 5.47965 62.0226 5.52399 62.0092 5.58845C62.0002 5.64967 61.9611 5.70419 61.892 5.75199C61.8351 5.78639 61.7501 5.79526 61.6362 5.77752C61.3793 5.7163 60.9313 5.68407 60.2945 5.67974C60.0106 5.67974 59.7515 5.68428 59.5159 5.69294C59.5159 5.71414 59.5113 5.74529 59.5024 5.78422C59.48 5.87097 59.4611 6.10113 59.4433 6.47471C59.4266 6.56146 59.4566 6.60472 59.5348 6.60472C59.7841 6.57919 60.0219 6.54458 60.2486 6.50024C60.3884 6.48791 60.462 6.50911 60.471 6.56578C60.471 6.61381 60.3905 6.66594 60.2286 6.72261C59.6835 6.88269 59.3281 7.00837 59.1616 7.10074C59.0221 7.18748 58.9158 7.18965 58.841 7.10636C58.7795 7.02849 58.8086 6.93071 58.926 6.8139C59.0534 6.70055 59.116 6.58136 59.116 6.45481C59.1551 6.05116 59.1516 5.81213 59.1036 5.7388C58.9808 5.7388 58.8656 5.75221 58.7563 5.77773H58.7306C58.6826 5.88654 58.6167 5.99448 58.5341 6.10351C58.4078 6.28132 58.237 6.47277 58.0236 6.67719C57.8223 6.86733 57.6482 6.95061 57.4995 6.92401C57.3376 6.88507 57.2481 6.83056 57.2313 6.76177C57.2313 6.70942 57.3341 6.62505 57.5384 6.50716C57.7441 6.39056 57.9273 6.25363 58.0881 6.09702C58.2457 5.94451 58.3696 5.78011 58.4613 5.60208C58.5485 5.41973 58.5987 5.27414 58.6122 5.16512C58.6254 5.06064 58.6254 4.96156 58.6122 4.86595C58.6032 4.77488 58.5796 4.68814 58.5406 4.60464C58.5361 4.59252 58.5317 4.57457 58.5272 4.55229C58.5183 4.50102 58.5228 4.46338 58.5406 4.44218C58.5406 4.43331 58.5474 4.42661 58.5598 4.42206C58.5865 4.38313 58.6648 4.36431 58.7954 4.36431L59.915 4.38983C60.1373 4.38983 60.6433 4.3788 61.4332 4.3576C61.5471 4.3576 61.6208 4.38313 61.6566 4.43548C61.6914 4.48328 61.6936 4.53563 61.6633 4.59231C61.641 4.63557 61.5729 4.65677 61.4601 4.65677L61.4597 4.65699Z" fill="#332C2B"/>
<path d="M69.3824 3.48425C68.3648 3.49204 67.5949 3.54872 67.0709 3.6532C66.8922 3.68781 66.7737 3.66661 66.7179 3.58766C66.6699 3.50978 66.7001 3.42087 66.8096 3.32072C66.9268 3.22943 67.0733 3.17514 67.2476 3.15848C67.3526 3.15848 67.6453 3.15177 68.1246 3.13836C68.1381 3.13836 68.1513 3.1362 68.1637 3.13166C68.1202 3.05832 68.0442 2.96942 67.9348 2.86472C67.822 2.76456 67.7762 2.67566 67.7975 2.59778C67.8242 2.51882 67.9114 2.48659 68.06 2.5C68.2041 2.50887 68.2889 2.58891 68.3148 2.7412C68.3415 2.85347 68.3785 2.96682 68.4265 3.07931C68.4265 3.08818 68.4332 3.10591 68.4456 3.13166H68.9762C68.9762 3.06698 68.9762 2.99256 68.9762 2.91036C68.9716 2.83249 68.9651 2.76045 68.956 2.69577C68.9527 2.63023 68.9414 2.56252 68.9236 2.49351C68.9147 2.36351 68.9549 2.28671 69.0431 2.26551C69.1325 2.23891 69.2083 2.27006 69.2709 2.35659C69.3235 2.42992 69.3392 2.53224 69.3179 2.66246C69.3133 2.68474 69.3068 2.73925 69.2976 2.82578V3.13166C69.3233 3.13166 69.3524 3.13382 69.3826 3.13836C69.5133 3.13836 69.6465 3.14052 69.7828 3.14507C69.7828 3.07952 69.7884 2.99062 69.8017 2.87813C69.8017 2.73925 69.7949 2.598 69.7828 2.45458C69.7828 2.32457 69.8262 2.24994 69.9134 2.23328C70.0006 2.21987 70.0699 2.25448 70.1223 2.33668C70.1749 2.42018 70.186 2.52337 70.156 2.65013C70.1514 2.67133 70.1403 2.72562 70.1223 2.81237C70.1177 2.8857 70.1112 2.95362 70.1034 3.01463C70.1034 3.05811 70.0988 3.10353 70.0899 3.15134C70.2429 3.15134 70.3916 3.15372 70.5346 3.15805C70.5613 3.11803 70.6072 3.05573 70.672 2.96898C70.8295 2.70767 70.9278 2.54976 70.9669 2.49308C71.0149 2.40634 71.0897 2.39531 71.1893 2.46063C71.2942 2.52077 71.3468 2.59518 71.3468 2.68193C71.3468 2.75526 71.2966 2.82081 71.1962 2.87748C71.148 2.89414 71.043 2.96639 70.8824 3.09207C70.8476 3.11435 70.8141 3.13771 70.7841 3.16324C71.269 3.17211 71.6264 3.18552 71.8576 3.20326C72.1547 3.21104 72.3638 3.21559 72.4856 3.21559C72.6129 3.21559 72.6386 3.27226 72.5649 3.38561C72.4945 3.49788 72.4119 3.6002 72.3158 3.69149C72.2286 3.76482 72.1091 3.77607 71.9561 3.72372C71.5583 3.61145 71.1338 3.54136 70.6791 3.51584C70.2301 3.48923 69.7976 3.47906 69.3831 3.48361L69.3824 3.48425ZM69.3657 5.82591C68.7154 5.82591 68.2217 5.85814 67.8853 5.92368C67.7336 5.95353 67.6284 5.93471 67.5714 5.86463C67.5277 5.7913 67.5558 5.71234 67.6564 5.63014C67.7614 5.55226 67.8898 5.50662 68.0429 5.49321H68.5858C68.7823 5.48434 69.0505 5.48218 69.3913 5.4865C69.3913 5.36991 69.3913 5.24963 69.3913 5.12849H69.3322C68.9223 5.12849 68.5904 5.15078 68.338 5.19404C68.1715 5.22411 68.0631 5.20183 68.0107 5.12849C67.9748 5.05062 67.9883 4.98291 68.0498 4.92602C68.1146 4.86588 68.2487 4.83928 68.4487 4.84815C68.776 4.84815 69.092 4.84815 69.3981 4.84815V4.82803C69.3981 4.67011 69.3824 4.54898 69.3524 4.46569C69.2261 4.46569 69.0875 4.47348 68.9401 4.49122C68.5291 4.50896 68.263 4.53556 68.1413 4.57126C68.015 4.60133 67.9403 4.58337 67.919 4.51783C67.9101 4.44341 67.9357 4.36208 67.9972 4.27317C68.0631 4.19529 68.1759 4.16415 68.338 4.1821C68.4552 4.18534 68.6241 4.19205 68.8419 4.20092C68.8073 4.14857 68.7547 4.08649 68.6845 4.01186C68.6275 3.94739 68.5671 3.88834 68.5013 3.83621C68.4443 3.78386 68.4298 3.7274 68.4554 3.66726C68.4821 3.61491 68.5515 3.58376 68.6654 3.57619C68.7693 3.57619 68.8462 3.61513 68.8942 3.69279C68.9066 3.72285 68.9268 3.76287 68.9525 3.81068C68.9792 3.84053 69.0229 3.92728 69.0842 4.0707C69.1099 4.10531 69.1298 4.15095 69.1422 4.20763H69.5724C69.6528 4.20763 69.7332 4.20525 69.8126 4.20092C69.873 4.11418 69.9367 4.01424 70.0025 3.90175C70.0675 3.78386 70.1132 3.69711 70.1401 3.64044C70.2316 3.48469 70.3255 3.48036 70.4216 3.62724C70.5087 3.76612 70.4998 3.87731 70.3948 3.95951C70.3379 3.98179 70.262 4.0363 70.166 4.12283C70.1358 4.14403 70.1021 4.16847 70.0677 4.194C70.3816 4.194 70.5983 4.18729 70.7157 4.17496C71.0262 4.16177 71.1849 4.18945 71.1938 4.25954C71.2073 4.32963 71.1693 4.40729 71.0821 4.49403C70.9993 4.56866 70.8687 4.58856 70.69 4.55309C70.4498 4.48733 70.1549 4.45747 69.8062 4.4618C69.7715 4.54854 69.7515 4.67531 69.7471 4.84101C70.0488 4.84555 70.3648 4.84879 70.6967 4.85312C70.8921 4.85312 71.0152 4.87324 71.063 4.91196C71.111 4.94765 71.1256 4.9987 71.1088 5.06879C71.091 5.12547 71.0128 5.1577 70.873 5.16657L69.7469 5.12763V5.49213C70.3233 5.501 70.72 5.51657 70.9378 5.53777C71.196 5.54664 71.379 5.55334 71.4886 5.55789C71.5924 5.55789 71.6148 5.60569 71.5535 5.70131C71.4931 5.80038 71.4183 5.88821 71.3312 5.96154C71.2575 6.03054 71.1525 6.04158 71.0173 5.99377C70.7637 5.91589 70.4911 5.86809 70.1984 5.85035C70.0464 5.83824 69.8956 5.83131 69.7469 5.83131C69.7469 6.06148 69.7515 6.33274 69.7602 6.64532C69.7602 6.7842 69.74 6.89322 69.701 6.9711C69.6652 7.04119 69.6195 7.07796 69.5626 7.08229C69.5189 7.08229 69.4733 7.02561 69.4239 6.91226C69.3805 6.79566 69.3659 6.61309 69.3783 6.36519C69.3783 6.19624 69.3805 6.01627 69.385 5.82482H69.3659L69.3657 5.82591ZM67.7023 6.79977C67.9122 6.65635 68.1279 6.50169 68.3513 6.33728C68.4943 6.20728 68.6128 6.14389 68.7043 6.14822C68.7825 6.15255 68.8395 6.19365 68.8742 6.27152C68.901 6.34594 68.8875 6.41278 68.8351 6.474C68.7782 6.53522 68.643 6.60855 68.4295 6.69529L67.7425 6.9499C67.7066 6.95877 67.6788 6.9566 67.6575 6.94319C67.6397 6.92978 67.6351 6.90858 67.6442 6.87743C67.6564 6.85191 67.6766 6.82508 67.7023 6.79956V6.79977ZM71.0806 6.85212C70.7622 6.6821 70.4996 6.54971 70.2951 6.4541C70.2079 6.41516 70.1699 6.35848 70.1834 6.28515C70.2101 6.21182 70.2705 6.15514 70.3666 6.11599C70.4581 6.07705 70.5398 6.09371 70.6089 6.16834C70.6615 6.22848 70.858 6.40088 71.1977 6.68318C71.2725 6.7299 71.3251 6.78441 71.3553 6.84542C71.381 6.89322 71.3755 6.92783 71.3351 6.9499C71.2916 6.95877 71.2066 6.92545 71.0804 6.85212H71.0806ZM79.4697 3.11284C79.7971 3.10397 80.2798 3.1018 80.9167 3.10613C81.0608 3.10613 81.1312 3.13382 81.1266 3.19071C81.1177 3.24739 81.0629 3.30731 80.9623 3.37307C80.8751 3.42974 80.7623 3.4464 80.6228 3.42542C80.3389 3.38648 79.9547 3.3709 79.4697 3.37977C79.4697 3.50091 79.4743 3.65104 79.4832 3.82907C79.4832 3.96816 79.4641 4.07697 79.4241 4.15484C79.3893 4.22493 79.3435 4.26171 79.2865 4.26603C79.243 4.26603 79.1972 4.20936 79.1491 4.09579C79.1057 3.97919 79.0911 3.79662 79.1035 3.54872C79.1035 3.49637 79.1057 3.44424 79.1102 3.39189C78.5908 3.39643 78.1941 3.43645 77.9194 3.50978C77.7137 3.55759 77.5855 3.55542 77.5329 3.50307C77.4892 3.44186 77.4892 3.37069 77.5329 3.28849C77.5809 3.20953 77.6703 3.1561 77.8011 3.12495C77.9285 3.09942 78.0548 3.09055 78.1808 3.09942C78.2423 3.12062 78.3751 3.13187 78.5797 3.13187C78.7505 3.13187 78.9316 3.12949 79.1237 3.12517C79.1237 3.09964 79.1261 3.07282 79.1304 3.04751C79.1304 2.90409 79.117 2.79506 79.0913 2.72173H78.6323C78.3662 2.71286 78.1876 2.69404 78.0961 2.66289C78.0133 2.63737 77.9765 2.60622 77.9844 2.57161C77.9978 2.54608 78.0504 2.53051 78.1419 2.52618C78.2995 2.51277 78.561 2.4894 78.9274 2.45501C79.2939 2.41932 79.5341 2.38947 79.648 2.36394C79.7608 2.33733 79.8358 2.31159 79.8703 2.28498C79.9486 2.23372 80.0079 2.21381 80.0468 2.22723C80.0859 2.2361 80.1296 2.28715 80.1774 2.38276C80.2166 2.4695 80.2322 2.53959 80.2233 2.59172C80.2144 2.6352 80.145 2.66506 80.0144 2.68301L79.5228 2.70183C79.4928 2.77646 79.4747 2.91317 79.4702 3.11327L79.4697 3.11284ZM77.4153 4.36359C77.794 4.18123 78.0635 4.01791 78.2197 3.87449C78.3247 3.77001 78.4321 3.75098 78.5403 3.81544C78.6453 3.87211 78.6721 3.95237 78.6197 4.05685C78.5627 4.15246 78.4577 4.22017 78.3047 4.25911C78.1304 4.30692 77.9539 4.37354 77.7753 4.4605C77.6088 4.53492 77.4523 4.57385 77.3038 4.57818C77.269 4.57818 77.2469 4.55828 77.2377 4.51934C77.2377 4.4804 77.2971 4.42827 77.4153 4.36359ZM79.8105 3.73778C79.8329 3.71225 79.8888 3.71766 79.9805 3.75768C80.4396 3.97011 80.7949 4.12478 81.0486 4.22039C81.1525 4.25478 81.1749 4.30497 81.1134 4.36922C81.0518 4.42589 80.9693 4.4804 80.8643 4.53275C80.7647 4.56715 80.6576 4.54833 80.5437 4.4737C80.2868 4.27014 80.0577 4.07005 79.8566 3.87449C79.8086 3.81328 79.7929 3.76763 79.8108 3.73778H79.8105ZM80.4396 5.28208C80.9323 5.31669 81.4974 5.38764 82.1345 5.49667C82.2351 5.50554 82.2527 5.56459 82.1871 5.67232C82.1301 5.77248 82.0564 5.86138 81.9647 5.94034C81.8819 6.01367 81.7726 6.02492 81.6374 5.97257C81.3535 5.84256 81.0745 5.74457 80.7995 5.67903C80.6732 5.64442 80.5202 5.61673 80.3415 5.59445C80.2142 5.76793 79.9986 5.96586 79.6936 6.18694C79.9294 6.30029 80.1863 6.44155 80.4656 6.61049C80.6969 6.72385 80.8275 6.81513 80.8588 6.88392C80.8845 6.94514 80.8867 7.00182 80.8645 7.05308C80.8432 7.09743 80.7908 7.12533 80.708 7.13874C80.6332 7.14329 80.4935 7.07991 80.2889 6.94968C79.9573 6.74072 79.6556 6.5562 79.3852 6.39591C78.9574 6.67842 78.5362 6.90404 78.1217 7.0732C77.9172 7.1342 77.7755 7.1554 77.6972 7.13874C77.6225 7.11214 77.5788 7.06433 77.5655 6.99533C77.5655 6.92956 77.5901 6.87073 77.6381 6.81967C77.6907 6.77187 77.8381 6.71303 78.0826 6.64294C78.3049 6.59059 78.5842 6.48503 78.9205 6.32387C78.9731 6.29835 79.0322 6.2672 79.097 6.2328L78.7764 6.05715C78.3799 5.84927 78.1508 5.71364 78.0893 5.6535C78.0715 5.63122 78.0593 5.61024 78.0502 5.58774C77.7531 5.61781 77.5175 5.66345 77.3429 5.72467C77.1297 5.79476 76.9519 5.859 76.8124 5.92022C76.6515 5.99355 76.5298 5.98598 76.4461 5.89361C76.3725 5.80233 76.3903 5.68357 76.4987 5.53561C76.6037 5.4056 76.7322 5.34892 76.8852 5.36666C77.0382 5.37553 77.4071 5.35109 77.9913 5.29441C78.0439 5.28662 78.1008 5.28013 78.1611 5.27559C78.2539 5.17111 78.4125 5.0344 78.6392 4.86523C78.8616 4.68742 79.0033 4.55071 79.0648 4.45509C79.1128 4.38046 79.1676 4.34391 79.2289 4.34391C79.2893 4.34391 79.3352 4.36727 79.3665 4.41508C79.3665 4.41962 79.3708 4.43281 79.3787 4.45509H79.3919C79.859 4.70646 80.184 4.94765 80.3672 5.17782C80.3939 5.2001 80.4176 5.23449 80.4398 5.2823L80.4396 5.28208ZM79.7323 5.54231C79.3178 5.51679 78.9157 5.51441 78.5279 5.53561C78.5536 5.56676 78.5995 5.60137 78.6653 5.64009C78.8172 5.74024 79.0531 5.87025 79.3726 6.03141C79.3847 6.03141 79.4028 6.0392 79.4241 6.05693C79.538 5.99139 79.6408 5.92022 79.7323 5.84235C79.8629 5.729 79.959 5.63555 80.0205 5.56221L79.7323 5.5421V5.54231ZM78.6195 5.24314C78.9994 5.22086 79.3848 5.22086 79.7779 5.24314C79.8562 5.24314 79.9431 5.24531 80.0394 5.24877C79.8349 5.07961 79.5925 4.89725 79.3132 4.7017C79.2819 4.73285 79.2383 4.76054 79.1826 4.78628C79.1467 4.79515 79.0272 4.8886 78.8218 5.06663C78.739 5.12763 78.6721 5.18668 78.6195 5.24336V5.24314ZM88.4555 2.50671C89.0843 2.49351 89.5884 2.48897 89.9681 2.49351C90.138 2.49784 90.2687 2.53029 90.3602 2.59129C90.4473 2.64797 90.4808 2.74358 90.4584 2.87813C90.4404 2.93827 90.426 3.01484 90.4126 3.10613C90.4215 3.29281 90.3823 3.42304 90.2943 3.49637C90.2115 3.55759 90.0855 3.57879 89.9155 3.56213C89.8062 3.55326 89.4721 3.54872 88.9135 3.54872C88.4464 3.54872 88.0867 3.571 87.833 3.61448C87.6587 3.63568 87.5324 3.62659 87.4544 3.58787C87.3929 3.54007 87.3605 3.43883 87.3562 3.282C87.3562 3.23419 87.3516 3.17535 87.3429 3.10635C87.3383 3.04059 87.334 2.98391 87.3294 2.9361C87.3294 2.8883 87.3272 2.85369 87.3227 2.8327C87.3149 2.72822 87.3338 2.64818 87.3818 2.59151C87.4344 2.5437 87.5081 2.51709 87.6042 2.51363C87.84 2.51363 88.1236 2.51147 88.4555 2.50693V2.50671ZM90.0194 2.80588C89.95 2.75353 89.5134 2.73471 88.7111 2.74704C88.091 2.74704 87.7483 2.77603 87.6835 2.8327C87.6746 2.84049 87.6746 2.90603 87.6835 3.02739C87.6957 3.14074 87.7113 3.20412 87.7291 3.21645C87.7683 3.25214 87.8643 3.2688 88.0163 3.2688C88.1693 3.2688 88.3873 3.26426 88.6709 3.25539C89.073 3.24328 89.3825 3.24328 89.6003 3.25539C89.8192 3.27334 89.9611 3.25214 90.0259 3.19093C90.0391 3.16865 90.0459 3.10202 90.0459 2.98845C90.0459 2.88397 90.037 2.82405 90.0192 2.8061L90.0194 2.80588ZM90.198 6.05693C88.8285 6.00913 87.9113 6.01367 87.4487 6.07035C87.3225 6.07922 87.2242 6.04136 87.1549 5.95916C87.0979 5.86809 87.0656 5.73786 87.0566 5.56892C87.0477 4.7216 87.0477 4.24591 87.0566 4.14122C87.0701 4.05447 87.1114 3.99001 87.1807 3.94674C87.2423 3.90673 87.3249 3.89223 87.4298 3.9011C87.5305 3.91776 87.8511 3.91776 88.3916 3.9011C88.9291 3.87449 89.5614 3.87882 90.2898 3.91322C90.456 3.91776 90.5645 3.94891 90.6171 4.0045C90.6697 4.05231 90.6897 4.14792 90.6762 4.29134V5.24877C90.6716 5.36212 90.674 5.4666 90.6829 5.56221C90.6829 5.75344 90.6393 5.88799 90.5523 5.96586C90.4684 6.02687 90.3511 6.05693 90.198 6.05693ZM87.4007 5.07961C87.6498 5.10967 88.1491 5.12525 88.9 5.12525C89.6462 5.11184 90.1111 5.09518 90.2943 5.0729V4.81267H90.2876C90.1 4.77373 89.6118 4.75599 88.8218 4.76032C88.0967 4.76032 87.6209 4.77827 87.394 4.81267C87.394 4.84728 87.3964 4.89054 87.4007 4.94268V5.07939V5.07961ZM90.2887 5.41209C90.1009 5.37315 89.616 5.35541 88.8352 5.35974C88.1101 5.35974 87.6376 5.37748 87.4142 5.41209C87.4231 5.53777 87.4387 5.61218 87.46 5.63338C87.5394 5.7078 87.9997 5.74673 88.842 5.75128C89.6799 5.74241 90.147 5.70109 90.243 5.62668C90.2643 5.60115 90.28 5.5289 90.2889 5.41209H90.2887ZM87.4018 4.4804C87.6633 4.51026 88.1582 4.52583 88.8876 4.52583C89.6338 4.51263 90.1009 4.49598 90.2887 4.47348C90.2841 4.3478 90.2663 4.27555 90.2361 4.25889C90.1265 4.18102 89.644 4.14338 88.7892 4.1477C87.9423 4.1477 87.4909 4.18232 87.434 4.25219C87.4251 4.25673 87.4138 4.33222 87.4016 4.48019L87.4018 4.4804ZM88.1738 6.57848C88.0476 6.69075 87.8967 6.8041 87.7224 6.91659C87.5559 7.00441 87.404 7.06649 87.2644 7.10565C87.0453 7.14891 86.8891 7.14459 86.793 7.09332C86.7102 7.03232 86.6834 6.96223 86.7137 6.88435C86.7495 6.8067 86.8556 6.74764 87.0353 6.7087C87.2307 6.66977 87.4566 6.60184 87.7089 6.50623C87.8921 6.42835 88.0408 6.31933 88.1547 6.18045C88.2017 6.10712 88.2519 6.08268 88.3045 6.10928C88.3525 6.12724 88.3792 6.185 88.3838 6.28493C88.3838 6.37168 88.3134 6.46945 88.1738 6.57848ZM89.3917 6.16142C89.4308 6.12248 89.481 6.12572 89.5423 6.17375C89.6942 6.26936 89.8629 6.36043 90.0461 6.44826C90.2293 6.52159 90.408 6.58497 90.5823 6.63624C90.7399 6.64511 90.8316 6.70416 90.8573 6.81297C90.8796 6.90858 90.8538 6.99987 90.779 7.0864C90.7097 7.15973 90.616 7.18201 90.4973 7.15086C90.3365 7.11192 90.1422 7.00203 89.9153 6.81967C89.6964 6.64965 89.5334 6.4939 89.4238 6.35048C89.3634 6.26374 89.3523 6.20057 89.3914 6.16142H89.3917ZM97.8145 3.06698H98.4692C98.6648 3.07044 98.8704 3.07476 99.0836 3.07931C99.2547 3.07931 99.3607 3.09704 99.4042 3.13166C99.4444 3.16605 99.4568 3.21169 99.4444 3.26837C99.4355 3.31618 99.3673 3.34495 99.241 3.35295C98.8926 3.34084 98.582 3.33391 98.3116 3.33391C98.0671 3.33391 97.8671 3.34733 97.7095 3.37285C97.5608 3.39405 97.4672 3.37501 97.4278 3.31401C97.3976 3.24933 97.4076 3.19049 97.4602 3.13836C97.5128 3.08601 97.6313 3.06265 97.8145 3.06719V3.06698ZM97.9127 3.64628C98.2916 3.63308 98.8132 3.63525 99.4768 3.65298C99.7863 3.65298 99.9874 3.68089 100.079 3.73756C100.171 3.78537 100.232 3.83534 100.262 3.88747C100.289 3.93095 100.278 4.00429 100.23 4.10877C100.194 4.1821 100.162 4.29329 100.132 4.44103C100.109 4.58013 100.068 4.72138 100.008 4.86459C99.9717 4.98572 99.9115 5.06814 99.8233 5.11141C99.7496 5.14255 99.6581 5.1471 99.5485 5.12482C99.2436 5.03807 98.838 4.99914 98.3318 5.00822C97.8291 5.00822 97.4739 5.05365 97.2637 5.14493C97.19 5.17933 97.1218 5.17933 97.0614 5.14493C97.0044 5.106 96.9586 5.01255 96.924 4.86459C96.8368 4.39539 96.7734 4.1198 96.734 4.03738C96.6995 3.92403 96.6971 3.83945 96.7273 3.78277C96.7664 3.73043 96.8647 3.70057 97.0222 3.6917C97.2311 3.67829 97.5282 3.66402 97.9125 3.64606L97.9127 3.64628ZM98.6848 3.93312C98.6759 3.99433 98.6715 4.13884 98.6715 4.369C98.6715 4.58705 98.6761 4.71922 98.6848 4.76703C98.9463 4.76703 99.1953 4.77589 99.431 4.79255C99.5616 4.79709 99.6422 4.79039 99.6735 4.77373C99.6992 4.76032 99.7192 4.73263 99.7315 4.68915C99.7974 4.48019 99.8344 4.29091 99.8433 4.12196C99.8433 4.06074 99.8231 4.01532 99.7842 3.98525C99.7494 3.95864 99.6468 3.94415 99.4768 3.93961C99.1929 3.93074 98.9295 3.92857 98.6848 3.9329V3.93312ZM98.3185 4.73479C98.3318 4.68245 98.3353 4.55027 98.3318 4.33677C98.3318 4.12889 98.3272 3.99758 98.3185 3.94653C98.3185 3.93766 98.3161 3.93095 98.3118 3.92641C97.8449 3.92641 97.4974 3.94199 97.2707 3.97184C97.197 3.98071 97.149 3.99974 97.1266 4.03089C97.1188 4.05209 97.112 4.09319 97.1074 4.15419C97.1074 4.30216 97.1331 4.47564 97.1857 4.67574C97.1992 4.73696 97.2205 4.77806 97.2518 4.79926C97.2774 4.80813 97.3411 4.81029 97.4417 4.80596C97.7423 4.78368 98.0327 4.77135 98.312 4.76703C98.312 4.75816 98.3144 4.74712 98.3188 4.73479H98.3185ZM97.6504 4.46029C97.5811 4.49144 97.5017 4.47802 97.4146 4.42135C97.3798 4.38695 97.3598 4.34347 97.3565 4.29134C97.3565 4.23899 97.3889 4.20027 97.4537 4.17474C97.533 4.13473 97.6156 4.13364 97.7028 4.16804C97.7899 4.20243 97.8793 4.22796 97.971 4.24591C98.0503 4.26365 98.0892 4.29134 98.0892 4.33049C98.0892 4.35278 98.0579 4.37376 97.9977 4.39604C97.8447 4.40491 97.7284 4.42611 97.6504 4.46072V4.46029ZM99.2479 4.17453C99.3216 4.12672 99.4088 4.12888 99.5092 4.18123C99.5483 4.20243 99.5753 4.24137 99.5885 4.29805C99.5885 4.34585 99.5618 4.38912 99.5092 4.42805C99.4399 4.48473 99.3505 4.50247 99.241 4.4804C99.1403 4.45488 99.0354 4.44579 98.9271 4.45488C98.8521 4.44601 98.8108 4.42373 98.8019 4.38912C98.8019 4.35472 98.8287 4.3279 98.8813 4.31124C99.0465 4.2723 99.1695 4.22558 99.2477 4.17453H99.2479ZM97.3431 3.1972C96.8236 3.49183 96.3867 3.69863 96.0337 3.81544C95.894 3.85892 95.7844 3.87211 95.7064 3.85546C95.6451 3.83318 95.5882 3.78321 95.5366 3.70533C95.5008 3.62638 95.4964 3.56646 95.5234 3.52319C95.5579 3.48425 95.6451 3.4531 95.7846 3.43191C95.9377 3.41871 96.1824 3.34733 96.5186 3.21624C96.8538 3.09055 97.2057 2.92594 97.5722 2.7213C97.9384 2.51666 98.1631 2.36545 98.2457 2.26551C98.2983 2.1911 98.3529 2.15433 98.4098 2.15433C98.4624 2.15433 98.5037 2.17207 98.5339 2.20668C98.5429 2.21555 98.5518 2.23112 98.5607 2.2521C98.6344 2.30878 98.7808 2.39769 98.9986 2.51904C99.3394 2.71027 99.7539 2.89046 100.242 3.06049C100.727 3.22056 101.093 3.30731 101.343 3.32072C101.539 3.32072 101.602 3.35966 101.533 3.4384C101.471 3.51173 101.343 3.60063 101.146 3.70533C100.967 3.79208 100.8 3.78775 100.642 3.69214C99.9304 3.28849 99.4288 3.01484 99.136 2.87164C98.8521 2.73255 98.6522 2.65035 98.5339 2.62352C98.4603 2.598 98.3853 2.58458 98.3116 2.58458C98.106 2.73233 97.7832 2.93589 97.3431 3.1972ZM98.1286 5.34633L99.2736 5.33421C99.4444 5.33876 99.5753 5.37099 99.6668 5.43199C99.7539 5.48758 99.7863 5.5832 99.765 5.71775C99.7337 5.9836 99.7192 6.27585 99.7192 6.5973C99.7281 6.78398 99.6879 6.91421 99.6009 6.98862C99.5181 7.04984 99.392 7.07104 99.2212 7.0533H98.495C98.1588 7.04551 97.8997 7.06217 97.7165 7.10565C97.5411 7.12793 97.4148 7.11884 97.3368 7.08012C97.2752 7.03232 97.2429 6.93 97.2385 6.77425C97.2385 6.65657 97.2339 6.51293 97.225 6.34399C97.2172 6.01821 97.2107 5.79476 97.2061 5.67254C97.1972 5.56914 97.2161 5.4878 97.2642 5.43242C97.3168 5.38462 97.3915 5.35779 97.4876 5.35347C97.6663 5.35347 97.8797 5.35109 98.129 5.34676L98.1286 5.34633ZM97.5263 5.99788C97.6828 6.01562 98.0123 6.02665 98.515 6.03119C98.973 6.02232 99.2647 6.01108 99.392 5.99788C99.3875 5.79432 99.3653 5.67643 99.3262 5.64658C99.2779 5.60764 98.9486 5.59423 98.3375 5.60764C97.8704 5.60764 97.6135 5.62884 97.5654 5.67232C97.543 5.6946 97.5309 5.80233 97.5263 5.9981V5.99788ZM98.4692 6.27823C97.9753 6.27823 97.6637 6.29142 97.533 6.31717C97.5543 6.54733 97.5811 6.67842 97.6113 6.70849C97.6369 6.72969 97.7095 6.74288 97.8269 6.74742C97.9408 6.74742 98.104 6.74288 98.3185 6.73423C98.6191 6.7219 98.8502 6.7219 99.0123 6.73423C99.1699 6.7431 99.276 6.72644 99.3329 6.68296C99.372 6.63515 99.3942 6.51272 99.3988 6.31717C99.2849 6.29164 98.9754 6.27823 98.4694 6.27823H98.4692Z" fill="#332C2B"/>
<path d="M26.4126 24.8052V21.7011H26.8264V24.8052H26.4126ZM27.5009 24.8052V22.5551H27.8449V22.8997C27.9328 22.74 28.0143 22.6347 28.089 22.5841C28.1638 22.5328 28.246 22.5075 28.3351 22.5075C28.4644 22.5075 28.5957 22.5479 28.7294 22.6282L28.5929 22.9802C28.5 22.9282 28.407 22.9021 28.314 22.9021C28.2305 22.9021 28.1558 22.9274 28.0897 22.9773C28.0236 23.0271 27.9764 23.0965 27.948 23.1854C27.9052 23.3206 27.8841 23.4686 27.8841 23.6298V24.8054H27.5007L27.5009 24.8052ZM28.9515 24.8052V22.5551H29.2956V22.8997C29.3834 22.74 29.4649 22.6347 29.5396 22.5841C29.6144 22.5328 29.6966 22.5075 29.7857 22.5075C29.915 22.5075 30.0463 22.5479 30.18 22.6282L30.0435 22.9802C29.9507 22.9282 29.8576 22.9021 29.7646 22.9021C29.6811 22.9021 29.6064 22.9274 29.5403 22.9773C29.4742 23.0271 29.4271 23.0965 29.3986 23.1854C29.3558 23.3206 29.3347 23.4686 29.3347 23.6298V24.8054H28.9513L28.9515 24.8052ZM30.4064 22.1346V21.7011H30.7899V22.1346H30.4064ZM30.4064 24.8052V22.5551H30.7899V24.8052H30.4064ZM31.3039 24.9917L31.6743 25.0436C31.6895 25.1578 31.7329 25.2409 31.8042 25.2937C31.8992 25.3638 32.0294 25.3992 32.1942 25.3992C32.3713 25.3992 32.5085 25.364 32.6052 25.2937C32.7017 25.2236 32.7671 25.1245 32.8012 24.9982C32.821 24.921 32.8304 24.7583 32.8288 24.5104C32.661 24.707 32.4528 24.8052 32.2029 24.8052C31.8923 24.8052 31.6512 24.694 31.4813 24.4708C31.3106 24.2482 31.2256 23.9808 31.2256 23.6696C31.2256 23.455 31.265 23.2568 31.3426 23.0755C31.4202 22.8943 31.5334 22.7547 31.6817 22.6557C31.8299 22.5566 32.004 22.5075 32.2044 22.5075C32.4709 22.5075 32.6908 22.6159 32.8636 22.8326V22.5553H33.2164V24.4983C33.2164 24.8487 33.1809 25.0966 33.109 25.2424C33.0379 25.3884 32.9238 25.5039 32.7693 25.5885C32.6139 25.6731 32.423 25.7157 32.1963 25.7157C31.927 25.7157 31.7099 25.6558 31.5445 25.5351C31.3782 25.415 31.2982 25.2338 31.3041 24.9917H31.3039ZM31.6175 23.6419C31.6175 23.9358 31.6762 24.1504 31.794 24.2856C31.9123 24.4208 32.0596 24.4888 32.2368 24.4888C32.4133 24.4888 32.5606 24.4217 32.6804 24.2871C32.7995 24.1528 32.8591 23.9417 32.8591 23.6542C32.8591 23.3795 32.7973 23.1722 32.6747 23.0327C32.5519 22.8932 32.4039 22.8238 32.2311 22.8238C32.0605 22.8238 31.916 22.8923 31.7962 23.0297C31.6771 23.167 31.6175 23.3708 31.6175 23.6417V23.6419ZM35.2738 24.5234C35.1315 24.6441 34.9943 24.7287 34.8628 24.7786C34.7313 24.8284 34.5905 24.853 34.4394 24.853C34.1912 24.853 34.0002 24.7931 33.8667 24.6724C33.733 24.5524 33.6663 24.3986 33.6663 24.2114C33.6663 24.1015 33.6917 24.0012 33.7417 23.9101C33.7926 23.819 33.8587 23.7468 33.9399 23.6918C34.0219 23.6371 34.1136 23.5951 34.2158 23.5668C34.2912 23.5473 34.4053 23.5285 34.557 23.5097C34.8663 23.4736 35.095 23.4294 35.241 23.3788C35.2423 23.3269 35.2432 23.2936 35.2432 23.2798C35.2432 23.1251 35.2069 23.0161 35.1343 22.9525C35.0363 22.8666 34.8904 22.8238 34.6972 22.8238C34.5164 22.8238 34.3829 22.8556 34.2971 22.9183C34.2108 22.9812 34.1475 23.0924 34.106 23.2527L33.7313 23.2008C33.7654 23.0412 33.8213 22.9118 33.8997 22.8134C33.9782 22.7152 34.0914 22.6399 34.2395 22.5865C34.3868 22.5339 34.559 22.5071 34.7535 22.5071C34.9467 22.5071 35.1041 22.5296 35.2254 22.575C35.346 22.6204 35.4353 22.6769 35.4918 22.7457C35.5486 22.8142 35.5883 22.901 35.6116 23.0057C35.624 23.0706 35.6305 23.1878 35.6305 23.3561V23.8619C35.6305 24.2151 35.6383 24.4386 35.6544 24.5331C35.6696 24.6276 35.7016 24.7183 35.7481 24.8048H35.3473C35.3088 24.7245 35.2843 24.6307 35.2734 24.5229L35.2738 24.5234ZM35.2434 23.678C35.1039 23.7342 34.895 23.782 34.6161 23.8212C34.4579 23.8435 34.3462 23.8688 34.2808 23.8969C34.2155 23.925 34.1653 23.9661 34.1297 24.0198C34.0943 24.0741 34.076 24.134 34.076 24.2006C34.076 24.301 34.1145 24.3856 34.1921 24.4526C34.2697 24.5199 34.3831 24.5539 34.5318 24.5539C34.6792 24.5539 34.8107 24.5221 34.9261 24.4578C35.0408 24.3942 35.1258 24.3068 35.1795 24.1963C35.2208 24.1102 35.2412 23.9837 35.2412 23.8169L35.2434 23.678ZM37.052 24.4647L37.1042 24.8016C36.9968 24.8241 36.9003 24.8355 36.8159 24.8355C36.6773 24.8355 36.5697 24.8139 36.4927 24.7698C36.4167 24.7258 36.3628 24.6685 36.3317 24.5971C36.3004 24.5255 36.2852 24.3752 36.2852 24.1461V22.8497H36.002V22.5551H36.2852V21.9987L36.6686 21.7696V22.5551H37.052V22.8497H36.6686V24.1677C36.6686 24.2768 36.6751 24.3471 36.689 24.3782C36.7021 24.4092 36.7238 24.4338 36.7542 24.4526C36.7847 24.4708 36.8281 24.4801 36.8849 24.4801C36.9268 24.4801 36.9829 24.4751 37.0518 24.465L37.052 24.4647ZM37.4304 22.1343V21.7008H37.8138V22.1343H37.4304ZM37.4304 24.805V22.5549H37.8138V24.805H37.4304ZM38.2544 23.6799C38.2544 23.2644 38.3705 22.9566 38.6037 22.7565C38.7976 22.5901 39.0349 22.5071 39.3144 22.5071C39.6244 22.5071 39.8784 22.6083 40.076 22.8106C40.2729 23.0122 40.3714 23.2919 40.3714 23.6481C40.3714 23.9371 40.3279 24.1641 40.2408 24.3295C40.1536 24.495 40.0265 24.6235 39.8595 24.7155C39.6933 24.8072 39.5111 24.8528 39.3142 24.8528C38.9977 24.8528 38.7421 24.7525 38.5469 24.5508C38.3515 24.3492 38.2544 24.0589 38.2544 23.6802V23.6799ZM38.6465 23.6806C38.6465 23.9681 38.7095 24.1835 38.836 24.3259C38.9632 24.4691 39.1221 24.5407 39.3144 24.5407C39.5048 24.5407 39.6628 24.4691 39.79 24.3252C39.9163 24.1814 39.9795 23.9625 39.9795 23.6683C39.9795 23.3909 39.9156 23.1807 39.7887 23.0381C39.6615 22.8949 39.5033 22.8235 39.3144 22.8235C39.1221 22.8235 38.963 22.8943 38.836 23.0368C38.7097 23.1792 38.6465 23.3938 38.6465 23.6806ZM40.8211 24.805V22.5549H41.1652V22.8742C41.3308 22.6291 41.5703 22.5071 41.8833 22.5071C42.0198 22.5071 42.1448 22.5317 42.2587 22.58C42.3726 22.6284 42.4582 22.6927 42.5149 22.7716C42.5714 22.8504 42.6114 22.9442 42.634 23.0526C42.6477 23.1234 42.6551 23.2471 42.6551 23.4234V24.805H42.2717V23.4379C42.2717 23.2826 42.2571 23.1662 42.2274 23.0896C42.1976 23.013 42.1446 22.9516 42.0691 22.9053C41.9937 22.8599 41.9044 22.8367 41.8029 22.8367C41.6401 22.8367 41.5001 22.888 41.3817 22.9914C41.2634 23.0939 41.2045 23.2899 41.2045 23.5774V24.805H40.8211ZM44.4039 24.805L45.6005 21.7008H46.0543L47.3241 24.805H46.8542L46.4933 23.8642H45.1799L44.8415 24.805H44.4037H44.4039ZM45.3014 23.5305H46.3642L46.0391 22.6697C45.9411 22.4082 45.8669 22.1921 45.8154 22.0216C45.7726 22.2239 45.7152 22.4227 45.6433 22.6193L45.3014 23.5305ZM47.5332 24.9915L47.9035 25.0434C47.9187 25.1576 47.9622 25.2407 48.0335 25.2935C48.1285 25.3636 48.2587 25.399 48.4234 25.399C48.6006 25.399 48.7377 25.3638 48.8344 25.2935C48.931 25.2234 48.9964 25.1243 49.0305 24.998C49.0503 24.9207 49.0596 24.7581 49.0581 24.5102C48.8903 24.7068 48.6821 24.805 48.4321 24.805C48.1215 24.805 47.8805 24.6938 47.7105 24.4706C47.5399 24.248 47.4549 23.9806 47.4549 23.6693C47.4549 23.4548 47.4943 23.2566 47.5718 23.0753C47.6494 22.8941 47.7627 22.7545 47.9109 22.6555C48.0592 22.5564 48.2333 22.5073 48.4336 22.5073C48.7001 22.5073 48.9201 22.6157 49.0929 22.8324V22.5551H49.4456V24.4981C49.4456 24.8485 49.4102 25.0964 49.3383 25.2422C49.2672 25.3882 49.1531 25.5037 48.9985 25.5883C48.8431 25.6729 48.6523 25.7155 48.4256 25.7155C48.1563 25.7155 47.9392 25.6556 47.7738 25.5349C47.6075 25.4148 47.5275 25.2335 47.5334 24.9915H47.5332ZM47.8468 23.6417C47.8468 23.9356 47.9055 24.1502 48.0233 24.2854C48.1415 24.4206 48.2889 24.4885 48.466 24.4885C48.6425 24.4885 48.7899 24.4215 48.9097 24.2869C49.0288 24.1526 49.0883 23.9415 49.0883 23.654C49.0883 23.3793 49.0266 23.172 48.904 23.0325C48.7812 22.893 48.6332 22.8235 48.4604 22.8235C48.2898 22.8235 48.1452 22.8921 48.0255 23.0295C47.9064 23.1668 47.8468 23.3706 47.8468 23.6414V23.6417ZM51.5685 24.0767L51.965 24.1286C51.9032 24.3577 51.7878 24.5361 51.6194 24.6627C51.4509 24.7892 51.236 24.8526 50.9738 24.8526C50.6443 24.8526 50.3829 24.7514 50.1896 24.5491C49.9966 24.3473 49.9001 24.0635 49.9001 23.6985C49.9001 23.3213 49.9973 23.028 50.1927 22.8199C50.3881 22.6111 50.6413 22.5071 50.9528 22.5071C51.254 22.5071 51.5001 22.6089 51.6911 22.8134C51.8822 23.018 51.9778 23.3055 51.9778 23.6763C51.9778 23.6988 51.9771 23.7325 51.9756 23.7775H50.292C50.3066 24.0239 50.3761 24.2134 50.5026 24.344C50.6283 24.4749 50.7856 24.5407 50.9738 24.5407C51.114 24.5407 51.2338 24.5037 51.3325 24.4301C51.432 24.3566 51.5105 24.2387 51.5685 24.0769V24.0767ZM50.314 23.4654H51.5729C51.5561 23.2759 51.5077 23.1344 51.4283 23.0396C51.307 22.893 51.1488 22.8192 50.9549 22.8192C50.7791 22.8192 50.632 22.8776 50.512 22.9949C50.3929 23.1119 50.3268 23.2687 50.3137 23.4654H50.314ZM52.4495 24.805V22.5549H52.7935V22.8742C52.9591 22.6291 53.1987 22.5071 53.5117 22.5071C53.6482 22.5071 53.7731 22.5317 53.887 22.58C54.0009 22.6284 54.0865 22.6927 54.1433 22.7716C54.1998 22.8504 54.2398 22.9442 54.2624 23.0526C54.2761 23.1234 54.2835 23.2471 54.2835 23.4234V24.805H53.9001V23.4379C53.9001 23.2826 53.8855 23.1662 53.8557 23.0896C53.8259 23.013 53.7729 22.9516 53.6975 22.9053C53.6221 22.8599 53.5327 22.8367 53.4312 22.8367C53.2684 22.8367 53.1285 22.888 53.01 22.9914C52.8918 23.0939 52.8329 23.2899 52.8329 23.5774V24.805H52.4495ZM56.349 23.9813L56.7237 24.0334C56.6824 24.2897 56.5776 24.4901 56.4085 24.6354C56.2394 24.7808 56.031 24.8528 55.7849 24.8528C55.4763 24.8528 55.2281 24.7524 55.0407 24.5515C54.8525 24.3505 54.759 24.063 54.759 23.6886C54.759 23.4457 54.7997 23.2341 54.8803 23.052C54.961 22.8705 55.0838 22.734 55.2492 22.6436C55.4139 22.5525 55.5932 22.5071 55.7878 22.5071C56.0325 22.5071 56.2336 22.5685 56.389 22.6922C56.545 22.8157 56.6452 22.9914 56.6889 23.2181L56.3185 23.2746C56.2829 23.1236 56.2205 23.01 56.1297 22.9334C56.0397 22.8577 55.9306 22.8192 55.803 22.8192C55.6098 22.8192 55.453 22.8878 55.3318 23.0251C55.2111 23.1632 55.1509 23.3799 55.1509 23.6778C55.1509 23.9798 55.209 24.1987 55.3252 24.3354C55.4422 24.4719 55.5939 24.5407 55.7806 24.5407C55.9317 24.5407 56.0571 24.495 56.1575 24.4033C56.2583 24.3122 56.3222 24.1714 56.3492 23.9813H56.349ZM57.0328 25.6701L56.9893 25.3175C57.0734 25.34 57.1462 25.3514 57.2086 25.3514C57.2942 25.3514 57.3625 25.3369 57.4133 25.3088C57.4649 25.2807 57.507 25.2409 57.5396 25.1903C57.5635 25.152 57.6027 25.0572 57.6566 24.9056C57.664 24.8846 57.6748 24.8537 57.6907 24.8124L56.8324 22.5551H57.2419L57.7137 23.8543C57.7755 24.0185 57.8298 24.1918 57.8785 24.3739C57.9228 24.2026 57.975 24.0336 58.0361 23.8673L58.5181 22.5551H58.9007L58.0461 24.8442C57.9539 25.0906 57.882 25.2597 57.8304 25.353C57.7622 25.478 57.6837 25.5697 57.5959 25.6281C57.5075 25.6867 57.402 25.7155 57.2801 25.7155C57.206 25.7155 57.1232 25.7004 57.0323 25.6701H57.0328ZM59.0055 24.805V24.3715H59.4412V24.805C59.4412 24.9649 59.4128 25.094 59.3556 25.1924C59.2989 25.2907 59.2082 25.3672 59.0841 25.4207L58.9796 25.2558C59.0609 25.2206 59.1204 25.1684 59.1582 25.1005C59.1967 25.0319 59.2185 24.9335 59.2228 24.805H59.0057H59.0055ZM64.0795 23.7161L64.4934 23.8201C64.4071 24.1576 64.2517 24.4141 64.0274 24.5911C63.8031 24.7682 63.5286 24.8569 63.204 24.8569C62.8687 24.8569 62.5957 24.789 62.3851 24.6525C62.1745 24.5167 62.0147 24.3194 61.9052 24.0615C61.7956 23.8028 61.7402 23.5261 61.7402 23.2298C61.7402 22.9068 61.8019 22.625 61.9262 22.3844C62.0503 22.1439 62.2268 21.9609 62.4555 21.836C62.6844 21.711 62.9363 21.6489 63.2106 21.6489C63.5227 21.6489 63.7848 21.7277 63.9969 21.8858C64.2095 22.0441 64.3578 22.2659 64.4412 22.5521L64.0361 22.6475C63.9641 22.4218 63.8589 22.2572 63.7218 22.1547C63.5846 22.0513 63.4118 22 63.2034 22C62.9645 22 62.7641 22.0571 62.6037 22.1713C62.4433 22.2856 62.3301 22.4396 62.2653 22.6317C62.2001 22.8246 62.1673 23.0234 62.1673 23.2278C62.1673 23.4915 62.2055 23.7219 62.2827 23.9185C62.3596 24.1158 62.4796 24.2625 62.6422 24.36C62.805 24.4576 62.9806 24.5061 63.1699 24.5061C63.401 24.5061 63.5955 24.4397 63.755 24.3075C63.9148 24.1744 64.023 23.978 64.0795 23.7165V23.7161ZM64.8122 23.6799C64.8122 23.2644 64.9283 22.9566 65.1615 22.7565C65.3554 22.5901 65.5928 22.5071 65.8723 22.5071C66.1822 22.5071 66.4363 22.6083 66.6339 22.8106C66.8308 23.0122 66.9292 23.2919 66.9292 23.6481C66.9292 23.9371 66.8858 24.1641 66.7986 24.3295C66.7115 24.495 66.5843 24.6235 66.4174 24.7155C66.2511 24.8072 66.069 24.8528 65.872 24.8528C65.5556 24.8528 65.3 24.7525 65.1048 24.5508C64.9094 24.3492 64.8122 24.0589 64.8122 23.6802V23.6799ZM65.2043 23.6806C65.2043 23.9681 65.2674 24.1835 65.3939 24.3259C65.521 24.4691 65.6799 24.5407 65.8723 24.5407C66.0627 24.5407 66.2207 24.4691 66.3478 24.3252C66.4741 24.1814 66.5374 23.9625 66.5374 23.6683C66.5374 23.3909 66.4735 23.1807 66.3465 23.0381C66.2194 22.8949 66.0611 22.8235 65.8723 22.8235C65.6799 22.8235 65.5208 22.8943 65.3939 23.0368C65.2676 23.1792 65.2043 23.3938 65.2043 23.6806ZM68.8556 24.805V24.4706C68.6798 24.7256 68.4418 24.8528 68.1403 24.8528C68.0075 24.8528 67.8834 24.8275 67.7678 24.7771C67.6524 24.7258 67.5667 24.6622 67.5109 24.5855C67.455 24.5082 67.4159 24.4143 67.3933 24.3029C67.3781 24.2277 67.3703 24.1091 67.3703 23.9475V22.5551H67.7537V23.8C67.7537 23.9988 67.7615 24.1331 67.7767 24.2017C67.8008 24.3021 67.8515 24.3804 67.9299 24.4373C68.0075 24.4944 68.1034 24.5232 68.2181 24.5232C68.3329 24.5232 68.4403 24.4944 68.5405 24.4358C68.6407 24.3771 68.712 24.2969 68.7539 24.1965C68.7954 24.0961 68.8165 23.9495 68.8165 23.7578V22.5549H69.1999V24.805H68.8559H68.8556ZM69.8018 24.805V22.5549H70.1458V22.8742C70.3115 22.6291 70.551 22.5071 70.864 22.5071C71.0005 22.5071 71.1255 22.5317 71.2393 22.58C71.3532 22.6284 71.4389 22.6927 71.4956 22.7716C71.5521 22.8504 71.5921 22.9442 71.6147 23.0526C71.6284 23.1234 71.6358 23.2471 71.6358 23.4234V24.805H71.2524V23.4379C71.2524 23.2826 71.2378 23.1662 71.208 23.0896C71.1783 23.013 71.1252 22.9516 71.0498 22.9053C70.9744 22.8599 70.8851 22.8367 70.7836 22.8367C70.6208 22.8367 70.4808 22.888 70.3623 22.9914C70.2441 23.0939 70.1852 23.2899 70.1852 23.5774V24.805H69.8018ZM73.7013 23.9813L74.076 24.0334C74.0347 24.2897 73.93 24.4901 73.7609 24.6354C73.5918 24.7808 73.3833 24.8528 73.1373 24.8528C72.8286 24.8528 72.5804 24.7524 72.3931 24.5515C72.2048 24.3505 72.1114 24.063 72.1114 23.6886C72.1114 23.4457 72.152 23.2341 72.2326 23.052C72.3133 22.8705 72.4361 22.734 72.6015 22.6436C72.7662 22.5525 72.9456 22.5071 73.1401 22.5071C73.3848 22.5071 73.5859 22.5685 73.7413 22.6922C73.8974 22.8157 73.9976 22.9914 74.0412 23.2181L73.6709 23.2746C73.6352 23.1236 73.5728 23.01 73.482 22.9334C73.392 22.8577 73.2829 22.8192 73.1553 22.8192C72.9621 22.8192 72.8054 22.8878 72.6841 23.0251C72.5635 23.1632 72.5033 23.3799 72.5033 23.6778C72.5033 23.9798 72.5613 24.1987 72.6776 24.3354C72.7945 24.4719 72.9462 24.5407 73.1329 24.5407C73.284 24.5407 73.4094 24.495 73.5098 24.4033C73.6107 24.3122 73.6746 24.1714 73.7015 23.9813H73.7013ZM74.4027 22.1343V21.7008H74.7861V22.1343H74.4027ZM74.4027 24.805V22.5549H74.7861V24.805H74.4027ZM75.3619 24.805V21.7008H75.7453V24.805H75.3619ZM77.889 23.6799C77.889 23.2644 78.0051 22.9566 78.2383 22.7565C78.4322 22.5901 78.6695 22.5071 78.9491 22.5071C79.259 22.5071 79.5131 22.6083 79.7107 22.8106C79.9076 23.0122 80.006 23.2919 80.006 23.6481C80.006 23.9371 79.9626 24.1641 79.8754 24.3295C79.7883 24.495 79.6611 24.6235 79.4942 24.7155C79.3279 24.8072 79.1458 24.8528 78.9488 24.8528C78.6324 24.8528 78.3768 24.7525 78.1816 24.5508C77.9862 24.3492 77.889 24.0589 77.889 23.6802V23.6799ZM78.2811 23.6806C78.2811 23.9681 78.3442 24.1835 78.4707 24.3259C78.5978 24.4691 78.7567 24.5407 78.9491 24.5407C79.1395 24.5407 79.2975 24.4691 79.4246 24.3252C79.5509 24.1814 79.6142 23.9625 79.6142 23.6683C79.6142 23.3909 79.5502 23.1807 79.4233 23.0381C79.2962 22.8949 79.1379 22.8235 78.9491 22.8235C78.7567 22.8235 78.5976 22.8943 78.4707 23.0368C78.3444 23.1792 78.2811 23.3938 78.2811 23.6806ZM80.5472 24.805V22.8497H80.2075V22.5551H80.5472V22.3165C80.5472 22.1655 80.5603 22.0534 80.5872 21.9805C80.6242 21.8823 80.6881 21.8021 80.7811 21.7406C80.8733 21.6792 81.0033 21.6489 81.1704 21.6489C81.2786 21.6489 81.3975 21.6619 81.5284 21.687L81.471 22.0208C81.3912 22.0071 81.3162 21.9998 81.2452 21.9998C81.1291 21.9998 81.0469 22.0245 80.9985 22.0736C80.9504 22.1227 80.9265 22.2146 80.9265 22.3487V22.5549H81.3667V22.8495H80.9309V24.8048H80.5475L80.5472 24.805ZM82.8262 24.805L84.0227 21.7008H84.4765L85.7463 24.805H85.2764L84.9156 23.8642H83.6021L83.2637 24.805H82.826H82.8262ZM83.7236 23.5305H84.7865L84.4613 22.6697C84.3633 22.4082 84.2892 22.1921 84.2377 22.0216C84.1949 22.2239 84.1375 22.4227 84.0655 22.6193L83.7236 23.5305ZM85.9554 24.9915L86.3258 25.0434C86.341 25.1576 86.3845 25.2407 86.4558 25.2935C86.5507 25.3636 86.6809 25.399 86.8457 25.399C87.0228 25.399 87.16 25.3638 87.2567 25.2935C87.3532 25.2234 87.4186 25.1243 87.4527 24.998C87.4725 24.9207 87.4819 24.7581 87.4803 24.5102C87.3126 24.7068 87.1043 24.805 86.8544 24.805C86.5438 24.805 86.3027 24.6938 86.1328 24.4706C85.9621 24.248 85.8772 23.9806 85.8772 23.6693C85.8772 23.4548 85.9165 23.2566 85.9941 23.0753C86.0717 22.8941 86.1849 22.7545 86.3332 22.6555C86.4814 22.5564 86.6555 22.5073 86.8559 22.5073C87.1224 22.5073 87.3423 22.6157 87.5151 22.8324V22.5551H87.8679V24.4981C87.8679 24.8485 87.8325 25.0964 87.7605 25.2422C87.6894 25.3882 87.5753 25.5037 87.4208 25.5883C87.2654 25.6729 87.0746 25.7155 86.8479 25.7155C86.5786 25.7155 86.3614 25.6556 86.196 25.5349C86.0297 25.4148 85.9498 25.2335 85.9556 24.9915H85.9554ZM86.269 23.6417C86.269 23.9356 86.3277 24.1502 86.4455 24.2854C86.5638 24.4206 86.7111 24.4885 86.8883 24.4885C87.0648 24.4885 87.2121 24.4215 87.3319 24.2869C87.451 24.1526 87.5106 23.9415 87.5106 23.654C87.5106 23.3793 87.4488 23.172 87.3262 23.0325C87.2034 22.893 87.0554 22.8235 86.8826 22.8235C86.712 22.8235 86.5675 22.8921 86.4477 23.0295C86.3286 23.1668 86.269 23.3706 86.269 23.6414V23.6417ZM88.4443 24.805V22.5549H88.7884V22.8995C88.8762 22.7398 88.9577 22.6345 89.0325 22.5839C89.1072 22.5326 89.1894 22.5073 89.2785 22.5073C89.4078 22.5073 89.5391 22.5477 89.6728 22.628L89.5363 22.9799C89.4435 22.928 89.3504 22.9018 89.2574 22.9018C89.174 22.9018 89.0992 22.9272 89.0331 22.9771C88.967 23.0269 88.9199 23.0963 88.8914 23.1852C88.8486 23.3204 88.8275 23.4684 88.8275 23.6295V24.8052H88.4441L88.4443 24.805ZM89.8993 22.1343V21.7008H90.2827V22.1343H89.8993ZM89.8993 24.805V22.5549H90.2827V24.805H89.8993ZM92.3438 23.9813L92.7185 24.0334C92.6772 24.2897 92.5725 24.4901 92.4034 24.6354C92.2343 24.7808 92.0258 24.8528 91.7798 24.8528C91.4712 24.8528 91.2229 24.7524 91.0356 24.5515C90.8474 24.3505 90.7539 24.063 90.7539 23.6886C90.7539 23.4457 90.7945 23.2341 90.8752 23.052C90.9558 22.8705 91.0786 22.734 91.244 22.6436C91.4088 22.5525 91.5881 22.5071 91.7826 22.5071C92.0274 22.5071 92.2284 22.5685 92.3838 22.6922C92.5399 22.8157 92.6401 22.9914 92.6838 23.2181L92.3134 23.2746C92.2778 23.1236 92.2154 23.01 92.1245 22.9334C92.0345 22.8577 91.9254 22.8192 91.7978 22.8192C91.6046 22.8192 91.4479 22.8878 91.3266 23.0251C91.206 23.1632 91.1458 23.3799 91.1458 23.6778C91.1458 23.9798 91.2038 24.1987 91.3201 24.3354C91.437 24.4719 91.5887 24.5407 91.7755 24.5407C91.9265 24.5407 92.0519 24.495 92.1523 24.4033C92.2532 24.3122 92.3171 24.1714 92.344 23.9813H92.3438ZM94.5219 24.805V24.4706C94.3461 24.7256 94.1081 24.8528 93.8066 24.8528C93.6738 24.8528 93.5497 24.8275 93.4341 24.7771C93.3187 24.7258 93.233 24.6622 93.1772 24.5855C93.1213 24.5082 93.0822 24.4143 93.0596 24.3029C93.0444 24.2277 93.0365 24.1091 93.0365 23.9475V22.5551H93.4199V23.8C93.4199 23.9988 93.4278 24.1331 93.443 24.2017C93.4671 24.3021 93.5177 24.3804 93.5962 24.4373C93.6738 24.4944 93.7697 24.5232 93.8844 24.5232C93.9992 24.5232 94.1066 24.4944 94.2068 24.4358C94.307 24.3771 94.3782 24.2969 94.4202 24.1965C94.4617 24.0961 94.4828 23.9495 94.4828 23.7578V22.5549H94.8662V24.805H94.5221H94.5219ZM95.4594 24.805V21.7008H95.8428V24.805H95.4594ZM97.2679 24.4647L97.3201 24.8016C97.2127 24.8241 97.1162 24.8355 97.0319 24.8355C96.8932 24.8355 96.7856 24.8139 96.7087 24.7698C96.6326 24.7258 96.5787 24.6685 96.5476 24.5971C96.5163 24.5255 96.5011 24.3752 96.5011 24.1461V22.8497H96.2179V22.5551H96.5011V21.9987L96.8845 21.7696V22.5551H97.2679V22.8497H96.8845V24.1677C96.8845 24.2768 96.8911 24.3471 96.905 24.3782C96.918 24.4092 96.9397 24.4338 96.9702 24.4526C97.0006 24.4708 97.0441 24.4801 97.1008 24.4801C97.1427 24.4801 97.1988 24.4751 97.2677 24.465L97.2679 24.4647ZM99.123 24.805V24.4706C98.9472 24.7256 98.7092 24.8528 98.4077 24.8528C98.2749 24.8528 98.1508 24.8275 98.0352 24.7771C97.9198 24.7258 97.8342 24.6622 97.7783 24.5855C97.7224 24.5082 97.6833 24.4143 97.6607 24.3029C97.6455 24.2277 97.6377 24.1091 97.6377 23.9475V22.5551H98.0211V23.8C98.0211 23.9988 98.0289 24.1331 98.0441 24.2017C98.0682 24.3021 98.1189 24.3804 98.1973 24.4373C98.2749 24.4944 98.3708 24.5232 98.4855 24.5232C98.6003 24.5232 98.7077 24.4944 98.8079 24.4358C98.9081 24.3771 98.9794 24.2969 99.0213 24.1965C99.0628 24.0961 99.0839 23.9495 99.0839 23.7578V22.5549H99.4673V24.805H99.1233H99.123ZM100.065 24.805V22.5549H100.409V22.8995C100.497 22.7398 100.578 22.6345 100.653 22.5839C100.728 22.5326 100.81 22.5073 100.899 22.5073C101.028 22.5073 101.16 22.5477 101.293 22.628L101.157 22.9799C101.064 22.928 100.971 22.9018 100.878 22.9018C100.794 22.9018 100.72 22.9272 100.654 22.9771C100.588 23.0269 100.54 23.0963 100.512 23.1852C100.469 23.3204 100.448 23.4684 100.448 23.6295V24.8052H100.065V24.805ZM103.062 24.0767L103.458 24.1286C103.397 24.3577 103.281 24.5361 103.113 24.6627C102.944 24.7892 102.729 24.8526 102.467 24.8526C102.138 24.8526 101.876 24.7514 101.683 24.5491C101.49 24.3473 101.394 24.0635 101.394 23.6985C101.394 23.3213 101.491 23.028 101.686 22.8199C101.881 22.6111 102.135 22.5071 102.446 22.5071C102.747 22.5071 102.993 22.6089 103.184 22.8134C103.376 23.018 103.471 23.3055 103.471 23.6763C103.471 23.6988 103.471 23.7325 103.469 23.7775H101.785C101.8 24.0239 101.87 24.2134 101.996 24.344C102.122 24.4749 102.279 24.5407 102.467 24.5407C102.607 24.5407 102.727 24.5037 102.826 24.4301C102.925 24.3566 103.004 24.2387 103.062 24.0769V24.0767ZM101.807 23.4654H103.066C103.05 23.2759 103.001 23.1344 102.922 23.0396C102.8 22.893 102.642 22.8192 102.448 22.8192C102.272 22.8192 102.125 22.8776 102.005 22.9949C101.886 23.1119 101.82 23.2687 101.807 23.4654Z" fill="#8B8B8C"/>
<path d="M14.1643 22.5236C13.9845 22.4877 13.7329 22.4877 13.4812 22.5596C12.942 22.6674 12.3668 22.955 11.8994 23.2426C11.9354 23.3864 12.0432 23.5302 12.223 23.6021C12.4027 23.674 12.6184 23.71 12.942 23.71C13.0858 23.71 13.2296 23.674 13.3734 23.6021C13.5172 23.5662 13.661 23.4943 13.8048 23.4224C13.9486 23.3505 14.0924 23.2426 14.2002 23.1348C14.344 23.0269 14.4519 22.9191 14.5598 22.8112C14.4879 22.6674 14.344 22.5596 14.1643 22.5236Z" fill="url(#paint0_linear)"/>
<path d="M16.8245 16.8073C16.6807 16.8792 16.501 17.023 16.3572 17.2388C16.2134 17.4185 16.1055 17.6342 15.9977 17.8499C16.1055 17.4185 16.1774 16.9871 16.1774 16.5916C16.2853 16.6276 16.4291 16.5916 16.5369 16.5197C16.6807 16.4478 16.8245 16.304 16.9324 16.0883C17.1481 15.6569 17.2559 15.0817 17.1121 14.5425C16.9683 14.5425 16.8605 14.5784 16.7167 14.6863C16.6088 14.7941 16.501 14.9739 16.3931 15.1536C16.2853 15.3693 16.2134 15.621 16.1774 15.8726C16.1774 15.585 16.1415 15.2974 16.1415 15.0098C16.1055 14.8301 16.1055 14.6503 16.0696 14.5065C16.3212 14.5065 16.5729 14.3268 16.6807 13.8954C16.7886 13.4639 16.7526 12.8887 16.501 12.4214C16.3572 12.4214 16.2493 12.5292 16.1774 12.6371C16.1415 12.709 16.1055 12.7809 16.0696 12.8528C16.0696 12.8887 16.0336 12.9247 16.0336 12.9966C16.0336 13.0325 15.9977 13.1044 15.9977 13.1404C15.9617 13.2482 15.9617 13.3561 15.9617 13.4639C15.9617 13.5718 15.9617 13.6797 15.9617 13.8235C15.9617 13.8594 15.9617 13.9313 15.9617 13.9673C15.9258 13.8954 15.9258 13.7875 15.8898 13.7156C15.6741 12.9247 15.3506 12.3135 15.1349 11.8821C15.027 11.6664 14.9192 11.5226 14.8473 11.4148C14.7754 11.3069 14.7394 11.235 14.7394 11.235C14.7394 11.1991 14.7394 11.1272 14.7035 11.0912C14.6675 11.0193 14.6316 10.9115 14.5956 10.8036C14.5597 10.6958 14.4877 10.6239 14.4158 10.516C14.3799 10.4801 14.3439 10.4082 14.308 10.3722C14.272 10.3363 14.2361 10.3003 14.1642 10.2284C14.1282 10.1925 14.0563 10.1565 14.0204 10.1206C13.9844 10.0846 13.9844 10.0846 13.9485 10.0487C13.9125 10.0487 13.9125 10.0127 13.8766 10.0127C13.7687 9.94083 13.6968 9.90488 13.589 9.83298C13.4092 9.76108 13.2295 9.72513 13.0497 9.72513C13.0857 9.86893 13.1576 10.0487 13.3014 10.1925C13.3733 10.2644 13.4092 10.3722 13.4811 10.4441C13.4811 10.4801 13.5171 10.4801 13.553 10.516C13.553 10.552 13.589 10.552 13.6249 10.5879C13.6609 10.6239 13.6968 10.6598 13.7328 10.6958C13.7687 10.7317 13.8047 10.7677 13.8766 10.8036C13.9125 10.8396 13.9485 10.8755 13.9844 10.9115C14.0563 10.9834 14.1642 11.0553 14.2361 11.0912C14.308 11.1631 14.4158 11.1991 14.4877 11.235C14.5597 11.271 14.6316 11.3069 14.7035 11.3069C14.7035 11.3429 14.7394 11.3788 14.7754 11.4148C14.8473 11.5226 14.9551 11.6664 15.063 11.8821C15.1708 12.0619 15.2787 12.2776 15.3506 12.4933C15.3506 12.4573 15.3146 12.4573 15.3146 12.4214C15.2787 12.3495 15.2068 12.2416 15.1349 12.1697C15.0989 12.1338 15.063 12.0978 15.027 12.0619C14.9911 12.0259 14.9551 11.99 14.9192 11.954C14.8473 11.8821 14.7754 11.8462 14.6675 11.8102C14.308 11.6664 14.0204 11.7024 13.8766 11.8821C13.9485 12.0259 14.0563 12.1697 14.2001 12.3135C14.272 12.3854 14.3439 12.4214 14.4158 12.4933C14.4877 12.5652 14.5597 12.6011 14.6316 12.6371C14.6675 12.673 14.7035 12.673 14.7394 12.709C14.7754 12.709 14.8113 12.7449 14.8473 12.7449C14.9192 12.7809 14.9911 12.7809 15.063 12.7809C15.2068 12.7809 15.3146 12.7809 15.4225 12.709V12.673C15.5303 12.9606 15.6741 13.3201 15.746 13.6797C15.782 13.7875 15.782 13.8954 15.8179 13.9673V14.0032C15.7101 13.7875 15.5663 13.5718 15.3865 13.428C15.3506 13.392 15.3146 13.3561 15.2787 13.3561C15.2427 13.3201 15.2068 13.3201 15.1708 13.2842C15.0989 13.2482 15.027 13.2123 14.9551 13.2123C14.8113 13.1763 14.6675 13.2123 14.5597 13.2842C14.5956 13.3561 14.6316 13.4639 14.6675 13.5359C14.7035 13.6078 14.7394 13.7156 14.7754 13.7875C14.8113 13.8235 14.8113 13.8594 14.8473 13.8954C14.8832 13.9313 14.8832 13.9673 14.9192 14.0032C14.9911 14.0751 15.027 14.147 15.0989 14.2189C15.3506 14.4706 15.6382 14.5784 15.8539 14.5065C15.8898 14.6503 15.8898 14.7582 15.8898 14.902C15.9258 15.1536 15.9258 15.4412 15.9258 15.6929C15.8898 15.4772 15.782 15.2974 15.6741 15.1177C15.5663 14.9379 15.3865 14.8301 15.2787 14.7941C15.1349 14.7582 14.9911 14.7582 14.8832 14.7941C14.9192 15.1536 15.027 15.585 15.2427 15.9086C15.3506 16.0883 15.4584 16.1962 15.6022 16.304C15.7101 16.3759 15.8179 16.4119 15.9258 16.4119C15.8898 16.7714 15.8179 17.1669 15.746 17.5264C15.746 17.3107 15.7101 17.0949 15.6382 16.9152C15.5303 16.6995 15.4225 16.5557 15.2787 16.4838C15.1349 16.4119 14.9911 16.3759 14.8473 16.3759C14.7754 16.7714 14.8113 17.2028 14.9192 17.5983C15.027 17.9578 15.2427 18.2094 15.4944 18.2813C15.3865 18.6408 15.2427 18.9644 15.063 19.3239C15.063 19.2879 15.0989 19.252 15.0989 19.1801C15.0989 19.1082 15.0989 19.0722 15.0989 19.0003C15.0989 18.8925 15.0989 18.7487 15.063 18.6408C15.027 18.533 15.027 18.4251 14.9551 18.3532C14.9192 18.2813 14.8473 18.1735 14.8113 18.1375C14.7035 18.0297 14.5597 17.9578 14.4158 17.9218C14.2361 18.2813 14.1642 18.7487 14.2001 19.1801C14.2361 19.5755 14.3799 19.8991 14.6316 20.0069C14.4158 20.3305 14.2001 20.654 13.9485 20.9417C13.9485 20.9417 13.9485 20.9417 13.9485 20.9057C13.9844 20.8338 14.0204 20.7979 14.0204 20.726C14.0563 20.654 14.0563 20.6181 14.0923 20.5462C14.1282 20.4743 14.1282 20.4383 14.1282 20.3664C14.1282 20.2945 14.1282 20.2586 14.1642 20.1867C14.1642 20.0788 14.1642 19.971 14.1282 19.8631C14.0923 19.7553 14.0563 19.6834 14.0204 19.6115C13.9485 19.4677 13.8047 19.3598 13.6609 19.2879C13.4092 19.6115 13.2295 20.0429 13.1576 20.5102C13.0857 20.9417 13.1935 21.3012 13.4092 21.4809C13.3014 21.5888 13.1576 21.7326 13.0138 21.8404C12.7981 22.0202 12.5824 22.164 12.4026 22.3437C12.4386 22.3078 12.5105 22.2359 12.5464 22.1999C12.5824 22.164 12.6183 22.0921 12.6902 22.0561C12.7262 21.9842 12.7621 21.9483 12.7981 21.8764C12.834 21.8045 12.87 21.7685 12.87 21.6966C12.9059 21.6247 12.9059 21.5888 12.9419 21.5169C13.0138 21.2652 13.0138 21.0495 12.9419 20.9057C12.9059 20.726 12.7981 20.5821 12.6543 20.5102C12.3307 20.7979 12.0072 21.1574 11.8634 21.5888C11.6836 22.0202 11.6836 22.4156 11.8993 22.6673C11.8993 22.6673 11.8634 22.6673 11.8634 22.7032C11.4679 22.9189 11.0725 23.0987 10.7129 23.2425C9.95799 23.5301 9.31088 23.6379 8.84352 23.7098C8.73567 23.7098 8.62782 23.7458 8.51997 23.7458C8.41212 23.7458 8.34021 23.7458 8.30426 23.7458C8.19641 23.7458 8.12451 23.7458 8.12451 23.7458V24.1053C8.12451 24.1053 8.19641 24.1053 8.34021 24.1053C8.41212 24.1053 8.48402 24.1053 8.59187 24.0693C8.69972 24.0693 8.80757 24.0334 8.91542 24.0334C9.38278 23.9615 10.0658 23.8177 10.8567 23.4941C11.2522 23.3503 11.6477 23.1346 12.0431 22.883C12.4386 22.6313 12.87 22.3437 13.2295 21.9842C13.2654 21.9483 13.3014 21.9123 13.3373 21.8764C13.4811 22.128 13.8766 22.2359 14.3799 22.0561C14.5237 22.0202 14.6316 21.9483 14.7754 21.8764C14.9192 21.8045 15.027 21.6966 15.1349 21.5888C15.2427 21.4809 15.3506 21.3731 15.4584 21.2293C15.5663 21.1214 15.6382 20.9776 15.7101 20.8338C15.6022 20.726 15.4584 20.654 15.2787 20.654C15.1708 20.654 15.0989 20.69 14.9911 20.69C14.8832 20.7259 14.7754 20.7619 14.6316 20.8338C14.3439 20.9776 14.0923 21.1574 13.8406 21.3731C14.1282 21.0495 14.4158 20.69 14.6675 20.2945C15.0989 20.654 15.4584 20.654 15.8898 20.3664C15.9977 20.2945 16.1055 20.1867 16.2134 20.1148C16.2493 20.0788 16.3212 20.0069 16.3572 19.935C16.3931 19.8631 16.465 19.8272 16.501 19.7553C16.5729 19.6474 16.6448 19.5036 16.7167 19.3598C16.7886 19.216 16.8245 19.0722 16.8605 18.9284C16.7526 18.8565 16.5729 18.8206 16.3931 18.8925C16.3212 18.9284 16.2134 18.9644 16.1415 19.0003C16.0336 19.0363 15.9617 19.1082 15.8539 19.216C15.6382 19.3958 15.4584 19.5755 15.3146 19.7912C15.3506 19.7193 15.3865 19.6474 15.4225 19.6115C15.5663 19.2879 15.7101 18.9644 15.8179 18.6408C16.0696 18.7487 16.3931 18.6768 16.7167 18.3173C16.7886 18.2094 16.8605 18.1016 16.9324 17.9937C17.0043 17.8859 17.0762 17.7421 17.1121 17.5983C17.1481 17.5264 17.1481 17.4545 17.184 17.3826C17.184 17.3107 17.22 17.2388 17.22 17.1669C17.2559 17.023 17.2559 16.8792 17.2559 16.7354C17.1121 16.6995 16.9683 16.7354 16.8245 16.8073Z" fill="url(#paint1_linear)"/>
<path d="M15.1709 11.6305C15.1709 11.6665 15.2068 11.7384 15.2068 11.7743C15.2068 11.8103 15.2428 11.8822 15.2428 11.9181C15.2787 12.026 15.3147 12.1338 15.3506 12.2417C15.3866 12.3495 15.4225 12.4574 15.4944 12.5293C15.6023 12.4933 15.7101 12.4214 15.818 12.3136C15.8539 12.2417 15.8899 12.1698 15.9258 12.0979C15.9258 12.0619 15.9618 12.026 15.9618 11.9541C15.9618 11.9181 15.9618 11.8462 15.9618 11.8103C15.9618 11.7024 15.9618 11.5946 15.9258 11.4867C15.8899 11.3789 15.8539 11.271 15.818 11.1632C15.7461 10.9475 15.6023 10.7318 15.4585 10.552C15.2428 10.6239 15.0989 10.9475 15.1349 11.3429C15.1349 11.4148 15.1349 11.5227 15.1709 11.6305Z" fill="url(#paint2_linear)"/>
<path d="M12.1153 25.867C7.08225 25.867 2.69629 21.7327 2.69629 16.5917C2.69629 14.5066 3.631 12.6012 4.78142 11.0554C4.96117 10.7677 10.2818 4.47644 11.7558 2.71487C12.1513 2.24751 11.8277 1.95991 11.8277 1.95991L10.4256 0.270235L10.3178 0.162384C10.3178 0.162384 10.2818 0.198334 10.2099 0.270235C9.31118 1.3128 3.95455 7.74794 2.87604 9.29381C1.11447 11.7025 0 14.183 0 16.5198C0 22.3079 4.52976 26.8376 10.3178 26.8376C12.7984 26.8376 15.0633 25.9748 16.8608 24.5368C15.4587 25.3637 13.8409 25.867 12.1153 25.867Z" fill="#0E98D0"/>
<path d="M21.5704 16.3402C21.6782 16.1964 21.7861 16.0166 21.8939 15.8369C21.9299 15.729 21.9658 15.6571 22.0018 15.5493C22.0377 15.4414 22.0737 15.3336 22.0737 15.2257C22.1456 15.01 22.1456 14.7943 22.1815 14.5786C22.1815 14.3629 22.1815 14.1472 22.1456 13.9315C21.9299 13.8956 21.6782 13.9315 21.4625 14.1113C21.3547 14.1832 21.2468 14.291 21.139 14.3989C21.0311 14.5067 20.9233 14.6505 20.8154 14.8303C20.5638 15.2257 20.384 15.6931 20.2402 16.1604C20.2762 16.0166 20.2762 15.8728 20.2762 15.6931C20.2762 15.729 20.2762 15.765 20.2402 15.8009C20.2762 15.6212 20.2762 15.4055 20.3121 15.2257C20.3481 14.8303 20.3481 14.4708 20.3481 14.0753C20.7795 14.1472 21.2828 13.8596 21.5704 13.2125C21.6423 13.0327 21.6782 12.853 21.7142 12.6732C21.7501 12.4935 21.7501 12.2778 21.7501 12.0621C21.7501 11.9542 21.7501 11.8464 21.7142 11.7745C21.7142 11.6666 21.6782 11.5588 21.6782 11.4869C21.6423 11.2712 21.5704 11.0914 21.4985 10.9117C21.2828 10.9117 21.0671 11.0195 20.8873 11.1993C20.7076 11.379 20.5638 11.6666 20.4559 11.9902C20.3121 12.3856 20.2762 12.853 20.2762 13.2844C20.2762 13.2125 20.2762 13.1046 20.2402 13.0327C20.1683 12.4216 20.0245 11.8104 19.8448 11.2352C20.0245 11.1993 20.2043 11.1274 20.384 10.9476C20.5638 10.7679 20.6716 10.5162 20.7076 10.1567C20.8154 9.47367 20.5638 8.64681 20.0964 8.03565C19.8807 8.0716 19.7369 8.2154 19.5931 8.4311C19.4853 8.64681 19.4134 8.89846 19.4134 9.22202C19.4134 9.54557 19.4493 9.86912 19.4853 10.1926C19.3055 9.79722 19.1258 9.40177 18.946 9.04226C18.8381 8.86251 18.7303 8.68276 18.6224 8.50301C18.946 8.3592 19.1258 7.96375 19.0539 7.38854C18.946 6.74143 18.5505 6.02242 17.9753 5.55506C17.7956 5.62697 17.6877 5.80672 17.6158 6.02242C17.5799 6.13027 17.5799 6.23812 17.5799 6.38193C17.5799 6.45383 17.5799 6.52573 17.6158 6.59763C17.6158 6.66953 17.6518 6.74143 17.6518 6.81333C17.6877 6.95713 17.7237 7.13689 17.7956 7.28069C17.7956 7.31664 17.8315 7.35259 17.8315 7.38854C17.4361 6.88523 17.0406 6.48978 16.6811 6.16622C16.753 6.09432 16.8249 5.98647 16.8609 5.84267C16.8968 5.73482 16.8968 5.62697 16.8609 5.51911C16.8609 5.44721 16.8249 5.37531 16.8249 5.33936C16.789 5.26746 16.789 5.19556 16.753 5.12366C16.6811 4.97986 16.6092 4.83605 16.5014 4.69225C16.3935 4.54845 16.2857 4.40465 16.1778 4.2968C15.9262 4.04514 15.6026 3.82944 15.315 3.64969C15.0274 3.86539 15.0274 4.33275 15.315 4.87201C15.3869 5.01581 15.4588 5.15961 15.5667 5.26746L15.6026 5.30341C15.5307 5.23151 15.4588 5.19556 15.3869 5.15961C15.2431 5.05176 15.1712 5.01581 15.1712 5.01581C15.1352 4.94391 15.0993 4.87201 15.0633 4.83605C14.9914 4.7282 14.8836 4.62035 14.7757 4.5125C14.6679 4.40465 14.5241 4.33275 14.4162 4.2249C14.3443 4.18895 14.2724 4.153 14.2005 4.08109C14.1286 4.04514 14.0567 4.00919 13.9489 3.97324C13.877 3.93729 13.7691 3.90134 13.6972 3.86539C13.6613 3.86539 13.6253 3.82944 13.5894 3.82944C13.5534 3.82944 13.5175 3.79349 13.4815 3.79349C13.3018 3.79349 13.122 3.75754 12.9782 3.75754C12.6906 3.75754 12.403 3.79349 12.2233 3.86539C12.3671 4.04514 12.5468 4.2249 12.7985 4.3687C12.9063 4.4406 13.0501 4.5125 13.1939 4.5844C13.2299 4.5844 13.2658 4.62035 13.3018 4.62035C13.3377 4.62035 13.3737 4.6563 13.4096 4.69225C13.4815 4.7282 13.5534 4.76415 13.6253 4.8001C13.6972 4.83605 13.7691 4.87201 13.841 4.87201C13.9129 4.90796 13.9848 4.94391 14.0567 4.94391C14.2005 4.97986 14.3443 5.01581 14.4881 5.05176C14.6319 5.08771 14.7757 5.08771 14.8836 5.12366C14.9914 5.12366 15.0993 5.12366 15.2071 5.12366C15.2431 5.15961 15.279 5.19556 15.351 5.23151C15.4948 5.33936 15.6745 5.48316 15.9262 5.66292C16.034 5.77077 16.1059 5.87862 16.2138 5.95052C16.2857 6.02242 16.3216 6.05837 16.3935 6.09432C16.3576 6.09432 16.3576 6.05837 16.3216 6.05837C16.2497 6.02242 16.2138 5.98647 16.1419 5.95052C16.07 5.91457 15.9981 5.91457 15.9262 5.87862C15.7824 5.84267 15.6745 5.80672 15.5307 5.80672C14.9914 5.77077 14.6319 5.98647 14.5241 6.31003C14.7038 6.45383 14.9195 6.59763 15.1712 6.70548C15.279 6.77738 15.4229 6.81333 15.5307 6.84928C15.6386 6.88523 15.7824 6.92118 15.8902 6.92118C15.9621 6.92118 16.034 6.92118 16.07 6.92118C16.1419 6.92118 16.1778 6.92118 16.2497 6.92118C16.3576 6.92118 16.4654 6.88523 16.5733 6.88523C16.753 6.81333 16.8968 6.74143 17.0047 6.59763C17.2923 6.88523 17.5799 7.20879 17.8675 7.60424C17.9394 7.7121 18.0472 7.81995 18.1191 7.96375C18.1551 8.03565 18.191 8.0716 18.227 8.1435C18.227 8.17945 18.2629 8.17945 18.2629 8.2154C18.0113 7.89185 17.6518 7.64019 17.2923 7.53234C17.2204 7.49639 17.1485 7.49639 17.1125 7.49639C17.0406 7.49639 16.9687 7.49639 16.9328 7.46044C16.8249 7.46044 16.7171 7.46044 16.6092 7.49639C16.3935 7.53234 16.2497 7.64019 16.1419 7.81995C16.2138 7.9278 16.3216 8.03565 16.3935 8.10755C16.5014 8.2154 16.5733 8.2873 16.6811 8.3592C16.7171 8.39515 16.789 8.4311 16.8609 8.46706C16.9328 8.50301 16.9687 8.53896 17.0406 8.57491C17.1485 8.64681 17.2923 8.71871 17.4001 8.75466C17.8675 8.97036 18.3348 8.93441 18.5865 8.71871C18.6584 8.86251 18.7662 9.00631 18.8382 9.15011C19.0898 9.61747 19.3055 10.1207 19.4853 10.66C19.3055 10.2646 19.0179 9.94103 18.6584 9.72532C18.4067 9.58152 18.1551 9.50962 17.9394 9.50962C17.7237 9.50962 17.5439 9.58152 17.4001 9.72532C17.6158 10.1926 17.9753 10.696 18.4427 11.0195C18.6584 11.1993 18.91 11.2712 19.1258 11.3431C19.3415 11.379 19.5212 11.379 19.701 11.2712C19.8807 11.8464 19.9886 12.4216 20.0605 13.0327C20.0605 12.9968 20.0605 12.9968 20.0245 12.9608C19.9167 12.6373 19.7369 12.3497 19.5212 12.134C19.3055 11.9183 19.0539 11.7745 18.8382 11.7385C18.6224 11.7026 18.4067 11.7385 18.227 11.8104C18.3348 12.3497 18.5865 12.9249 18.9819 13.3563C19.3415 13.7877 19.7369 13.9675 20.1324 13.9315C20.1324 14.3629 20.1324 14.8303 20.0964 15.2617C20.0964 15.2976 20.0964 15.3336 20.0964 15.4055V15.3695C20.0605 15.2976 20.0605 15.1898 20.0245 15.1179C19.9526 14.9741 19.9167 14.7943 19.8088 14.6505C19.7369 14.5067 19.6291 14.3989 19.5212 14.291C19.4134 14.1832 19.3055 14.1113 19.1977 14.0753C18.982 13.9675 18.7662 13.9675 18.5505 14.0034C18.5146 14.5786 18.6584 15.1898 18.946 15.765C19.1977 16.2323 19.5212 16.5559 19.8807 16.6278C19.8088 16.9873 19.701 17.3827 19.5572 17.7423C19.5572 17.7063 19.5572 17.7063 19.5572 17.6704C19.5572 17.5985 19.5212 17.4906 19.5212 17.4187C19.4853 17.3468 19.4853 17.2389 19.4493 17.167C19.3774 17.0232 19.3415 16.8794 19.2336 16.7356C19.1617 16.6278 19.0539 16.5199 18.9819 16.448C18.8022 16.3042 18.5865 16.2323 18.3708 16.2323C18.227 16.8075 18.191 17.4547 18.3348 18.1018C18.4427 18.6051 18.6943 18.9646 18.9819 19.1443C18.946 19.2162 18.9101 19.2881 18.8741 19.396C18.7662 19.5757 18.6943 19.7555 18.5865 19.8993C18.5865 19.8633 18.5865 19.8274 18.5865 19.7914C18.5865 19.6836 18.5865 19.6117 18.5865 19.5398C18.5505 19.1803 18.4427 18.8927 18.2989 18.7129C18.1551 18.4972 17.9394 18.3894 17.7237 18.3534C17.4361 18.8927 17.2204 19.5398 17.2204 20.2228C17.2204 20.6902 17.3282 21.1216 17.5439 21.3733C17.2204 21.7328 16.8968 22.0923 16.5373 22.3799C16.2857 22.5956 16.034 22.8113 15.7824 22.991C14.596 23.71 13.2299 24.1414 11.7919 24.1774C8.66416 24.2133 5.89597 22.3439 4.3501 19.5398C5.82407 22.991 8.73606 25.3278 12.0435 25.2919C14.2365 25.2559 16.2138 24.2133 17.7237 22.4877C17.8675 22.6315 18.0832 22.7034 18.3348 22.7394C18.6584 22.7753 19.0179 22.7034 19.4134 22.4877C19.6291 22.3799 19.8088 22.272 19.9886 22.1282C20.1683 21.9844 20.3481 21.8047 20.5278 21.6249C20.7076 21.4452 20.8514 21.2295 20.9592 21.0497C21.103 20.834 21.1749 20.6183 21.2828 20.4026C21.0671 20.2588 20.8154 20.2228 20.5278 20.2588C20.2043 20.2947 19.8807 20.4385 19.5212 20.6542C19.1617 20.8699 18.8022 21.1576 18.5146 21.4452C18.8381 20.9778 19.1258 20.4745 19.3415 19.9352C19.7369 20.1869 20.3481 20.1509 20.9952 19.6117C21.1749 19.4679 21.3187 19.3241 21.4625 19.1443C21.6063 18.9646 21.7142 18.7848 21.822 18.5691C21.9299 18.3534 22.0018 18.1737 22.0737 17.958C22.1456 17.7423 22.1815 17.5266 22.2175 17.3108C22.0018 17.203 21.7501 17.2389 21.4625 17.3468C21.3187 17.3827 21.1749 17.4906 21.0671 17.5625C20.9233 17.6704 20.7795 17.7782 20.6357 17.922C20.2043 18.3534 19.8088 18.8927 19.5212 19.4679C19.8088 18.7129 20.0605 17.922 20.2043 17.0951C20.5638 17.1311 21.103 16.9513 21.5704 16.3402ZM16.6092 6.23812L16.6452 6.27407C16.6092 6.27407 16.6092 6.27407 16.6092 6.23812C16.5733 6.23812 16.5733 6.23812 16.6092 6.23812Z" fill="url(#paint3_linear)"/>
<path d="M12.8341 15.1896C12.7263 14.866 12.4746 13.8594 10.6412 11.3788L8.87959 9.00613L7.11801 11.3788C5.32049 13.8594 5.03288 14.866 4.92503 15.1896C4.45767 16.8793 4.92503 18.0656 5.39239 18.7846C6.14735 19.8991 7.44157 20.5822 8.84364 20.5822C10.2457 20.5822 11.5399 19.8991 12.2949 18.7846C12.8341 18.0656 13.3015 16.8793 12.8341 15.1896Z" fill="#0E98D0"/>
<defs>
<linearGradient id="paint0_linear" x1="14.37" y1="4.30307" x2="13.1917" y2="23.4506" gradientUnits="userSpaceOnUse">
<stop stop-color="#F7A30A"/>
<stop offset="0.0705882" stop-color="#F7A30A"/>
<stop offset="0.5412" stop-color="#0DB02B"/>
<stop offset="1" stop-color="#006D45"/>
</linearGradient>
<linearGradient id="paint1_linear" x1="13.7231" y1="5.0963" x2="12.5984" y2="23.37" gradientUnits="userSpaceOnUse">
<stop stop-color="#F7A30A"/>
<stop offset="0.0705882" stop-color="#F7A30A"/>
<stop offset="0.5412" stop-color="#0DB02B"/>
<stop offset="1" stop-color="#006D45"/>
</linearGradient>
<linearGradient id="paint2_linear" x1="15.8896" y1="5.40463" x2="14.7566" y2="23.8195" gradientUnits="userSpaceOnUse">
<stop stop-color="#F7A30A"/>
<stop offset="0.0705882" stop-color="#F7A30A"/>
<stop offset="0.5412" stop-color="#0DB02B"/>
<stop offset="1" stop-color="#006D45"/>
</linearGradient>
<linearGradient id="paint3_linear" x1="14.0006" y1="5.09705" x2="12.8503" y2="23.7853" gradientUnits="userSpaceOnUse">
<stop stop-color="#F7A30A"/>
<stop offset="0.0705882" stop-color="#F7A30A"/>
<stop offset="0.5412" stop-color="#0DB02B"/>
<stop offset="1" stop-color="#006D45"/>
</linearGradient>
</defs>
</svg>
