<svg width="21" height="22" viewBox="0 0 21 22" fill="none" xmlns="http://www.w3.org/2000/svg">
<path d="M14.7284 11.0143C14.6317 11.0046 14.5346 10.9998 14.4374 10.9999C14.34 10.9997 14.2427 11.0047 14.1458 11.0146C13.5441 11.0921 12.9889 11.3794 12.5783 11.826C12.1676 12.2726 11.9277 12.8498 11.9009 13.4559C11.8776 14.1175 12.0951 14.765 12.5129 15.2785L14.4374 17.7947L16.3619 15.2786C16.7797 14.7652 16.9972 14.1176 16.9739 13.456C16.9471 12.8498 16.7071 12.2724 16.2963 11.8258C15.8855 11.3791 15.3303 11.0917 14.7284 11.0143ZM14.4374 14.9374C14.1778 14.9374 13.924 14.8604 13.7082 14.7162C13.4924 14.572 13.3241 14.367 13.2248 14.1272C13.1255 13.8873 13.0995 13.6234 13.1501 13.3688C13.2008 13.1142 13.3258 12.8804 13.5093 12.6968C13.6929 12.5132 13.9267 12.3882 14.1813 12.3376C14.4359 12.287 14.6998 12.3129 14.9397 12.4123C15.1795 12.5116 15.3845 12.6799 15.5287 12.8957C15.6729 13.1115 15.7499 13.3653 15.7499 13.6249C15.7495 13.9729 15.6111 14.3065 15.365 14.5525C15.119 14.7986 14.7854 14.937 14.4374 14.9374Z" fill="#3E9F88"/>
<path d="M9.0825 7.52279L0.65625 6.31909V17.5625C0.657275 18.4324 1.00331 19.2664 1.61844 19.8816C2.23357 20.4967 3.06757 20.8427 3.9375 20.8437H6.41812L9.0825 7.52279Z" fill="#3E9F88"/>
<path d="M10.3835 7.70862L7.75659 20.8437H17.0622C17.9321 20.8427 18.7661 20.4967 19.3813 19.8815C19.9964 19.2664 20.3424 18.4324 20.3435 17.5625V9.13137L10.3835 7.70862ZM17.4054 16.0758H17.4047L14.9585 19.2734C14.8973 19.3535 14.8185 19.4184 14.7281 19.4631C14.6377 19.5078 14.5383 19.531 14.4375 19.531C14.3367 19.531 14.2372 19.5078 14.1469 19.4631C14.0565 19.4184 13.9777 19.3535 13.9165 19.2734L11.4702 16.0758C10.8585 15.309 10.5462 14.3461 10.5913 13.3662C10.6373 12.4504 11.0062 11.5805 11.6326 10.9108C12.2591 10.2412 13.1025 9.8152 14.0132 9.70841C14.2952 9.68085 14.5791 9.68085 14.8611 9.70841C15.772 9.81498 16.6157 10.2409 17.2423 10.9106C17.8689 11.5802 18.238 12.4502 18.284 13.3662C18.3287 14.3461 18.0165 15.3089 17.4051 16.076L17.4054 16.0758Z" fill="#3E9F88"/>
<path d="M20.3438 7.80583V4.4375C20.3427 3.56757 19.9967 2.73357 19.3816 2.11844C18.7664 1.50331 17.9324 1.15727 17.0625 1.15625H3.9375C3.06757 1.15727 2.23357 1.50331 1.61844 2.11844C1.00331 2.73357 0.657275 3.56757 0.65625 4.4375V4.99347L20.3438 7.80583Z" fill="#3E9F88"/>
</svg>
