<svg width="36" height="44" viewBox="0 0 36 44" fill="none" xmlns="http://www.w3.org/2000/svg">
<path d="M1.31251 17.3132L1.31251 17.3131C1.31773 12.8887 3.07761 8.64709 6.2061 5.51859C9.33446 2.39024 13.5759 0.630375 18 0.625C22.4241 0.630375 26.6656 2.39024 29.7939 5.51859C32.9224 8.64709 34.6823 12.8887 34.6875 17.3131V17.3132C34.6927 20.9259 33.5126 24.4405 31.3283 27.318L31.2783 27.3838L31.2771 27.3876L31.2534 27.4186L31.0847 27.6386C30.9563 27.8058 30.8318 27.9669 30.8026 28.0024C30.8021 28.003 30.8017 28.0036 30.8012 28.0041L18 43.1019L5.2017 28.0079L5.19948 28.0053C5.19963 28.0055 5.19888 28.0046 5.19701 28.0023L5.18982 27.9936L5.16666 27.9646C5.14794 27.941 5.12446 27.911 5.09758 27.8765C5.04392 27.8074 4.97896 27.723 4.91584 27.6406C4.85284 27.5584 4.79215 27.4788 4.74718 27.4198L4.69329 27.349L4.67838 27.3294L4.67449 27.3243L4.67351 27.323L4.67326 27.3227C2.48783 24.4439 1.30721 20.9276 1.31251 17.3132ZM23.3566 25.5468L24.279 26.1338L24.1197 25.0521L23.2208 18.9486L27.7131 14.8262L28.5104 14.0945L27.4364 13.9616L21.3095 13.2032L18.4434 7.70633L17.9866 6.83033L17.5512 7.71713L14.8583 13.2017L8.56509 13.9614L7.48646 14.0916L8.28695 14.8262L12.7792 18.9486L11.8803 25.0521L11.721 26.1338L12.6435 25.5468L18 22.138L23.3566 25.5468Z" fill="#E06C6C" stroke="white"/>
</svg>
