<svg width="26" height="25" viewBox="0 0 26 25" fill="none" xmlns="http://www.w3.org/2000/svg">
<path d="M19.68 16.4301C19.6091 16.4991 19.514 16.5378 19.415 16.5378C19.316 16.5378 19.221 16.4991 19.15 16.4301L18.6 16.0001C18.5646 15.9656 18.5365 15.9244 18.5173 15.8789C18.4981 15.8334 18.4882 15.7845 18.4882 15.7351C18.4882 15.6857 18.4981 15.6368 18.5173 15.5913C18.5365 15.5458 18.5646 15.5046 18.6 15.4701L21.39 12.4701L19.18 10.4701L16.39 13.4701C16.3191 13.5391 16.224 13.5778 16.125 13.5778C16.026 13.5778 15.931 13.5391 15.86 13.4701L15.31 12.9601C15.2416 12.8909 15.2033 12.7975 15.2033 12.7001C15.2033 12.6028 15.2416 12.5094 15.31 12.4401L18.1 9.44012L15.89 7.44012L13.1 10.4401C13.0291 10.5091 12.934 10.5478 12.835 10.5478C12.736 10.5478 12.641 10.5091 12.57 10.4401L12 9.86012C11.9646 9.82565 11.9365 9.78444 11.9173 9.73893C11.8981 9.69341 11.8882 9.64452 11.8882 9.59512C11.8882 9.54572 11.8981 9.49683 11.9173 9.45131C11.9365 9.4058 11.9646 9.36459 12 9.33012L14.79 6.33012L12.58 4.33012L9.79003 7.33012C9.75555 7.3655 9.71435 7.39362 9.66883 7.41282C9.62332 7.43201 9.57442 7.44191 9.52503 7.44191C9.47563 7.44191 9.42673 7.43201 9.38122 7.41282C9.33571 7.39362 9.2945 7.3655 9.26003 7.33012L8.71003 6.82012C8.641 6.74918 8.60238 6.6541 8.60238 6.55512C8.60238 6.45614 8.641 6.36106 8.71003 6.29012L11.5 3.29012L9.29003 1.29012C9.14494 1.15678 8.97501 1.05333 8.78993 0.985684C8.60485 0.918039 8.40826 0.887523 8.21138 0.895881C8.0145 0.904239 7.82121 0.951306 7.64253 1.03439C7.46385 1.11748 7.30329 1.23496 7.17003 1.38012L1.00003 8.00012C0.866983 8.14437 0.763742 8.31347 0.696233 8.49773C0.628724 8.68199 0.598277 8.87776 0.606639 9.07382C0.615002 9.26988 0.66201 9.46235 0.744963 9.64019C0.827917 9.81803 0.945183 9.97773 1.09003 10.1101L16.57 24.3101C16.7143 24.4432 16.8834 24.5464 17.0676 24.6139C17.2519 24.6814 17.4477 24.7119 17.6437 24.7035C17.8398 24.6951 18.0323 24.6481 18.2101 24.5652C18.3879 24.4822 18.5476 24.365 18.68 24.2201L24.77 17.5901C24.9034 17.445 25.0068 17.2751 25.0745 17.09C25.1421 16.9049 25.1726 16.7083 25.1643 16.5115C25.1559 16.3146 25.1088 16.1213 25.0258 15.9426C24.9427 15.7639 24.8252 15.6034 24.68 15.4701L22.47 13.4701L19.68 16.4301Z" fill="white"/>
</svg>
