<svg width="54" height="54" viewBox="0 0 54 54" fill="none" xmlns="http://www.w3.org/2000/svg">
<g opacity="0.6">
<g clip-path="url(#clip0)">
<path d="M54 8.79766V10.8097L53.9626 44.7887C53.9626 45.2588 53.5887 45.6349 53.1212 45.6349L13.3691 45.4657V12.0696C13.3691 11.2798 14.0049 10.6593 14.7715 10.6593L28.4585 10.7157L44.0527 10.7721L44.651 9.66265L45.4176 8.25234C45.5859 7.93268 45.9225 7.72583 46.2964 7.72583L52.9903 7.74463C53.5513 7.76344 54 8.21474 54 8.79766Z" fill="#21705D"/>
<path d="M36.6297 29.1812H17.8008C17.2211 29.1812 16.7537 28.7111 16.7537 28.1282V8.15825C16.7537 7.57533 17.2211 7.10522 17.8008 7.10522H36.6297C37.2093 7.10522 37.6768 7.57533 37.6768 8.15825V28.147C37.6768 28.7111 37.2093 29.1812 36.6297 29.1812Z" fill="#EAB565"/>
<path d="M22.9989 10.208C22.6062 10.208 22.2883 10.5277 22.2883 10.9226C22.2883 11.3174 22.6062 11.6371 22.9989 11.6371C23.3915 11.6371 23.7094 11.3174 23.7094 10.9226C23.7094 10.5277 23.3915 10.208 22.9989 10.208ZM31.413 10.208C31.0203 10.208 30.7025 10.5277 30.7025 10.9226C30.7025 11.3174 31.0203 11.6371 31.413 11.6371C31.8056 11.6371 32.1235 11.3174 32.1235 10.9226C32.1235 10.5277 31.8056 10.208 31.413 10.208ZM27.2059 14.4013C25.8971 14.4013 24.7004 14.815 24.0086 15.5296C23.8964 15.6424 23.8964 15.8304 24.0086 15.9245C24.0646 15.9809 24.1394 15.9997 24.2142 15.9997C24.289 15.9997 24.3638 15.9621 24.4199 15.9057C24.9996 15.3227 26.0653 14.9466 27.2059 14.9466C28.3465 14.9466 29.431 15.3227 29.9919 15.9057C30.1041 16.0185 30.2724 16.0185 30.3846 15.9057C30.4968 15.7928 30.4968 15.6236 30.3846 15.5108C29.7115 14.8338 28.5148 14.4013 27.2059 14.4013Z" fill="white"/>
<path d="M52.6351 46.1051L9.83526 46.2743C9.25562 46.2743 8.75077 45.917 8.56379 45.3717L1.68291 24.6872L0.074873 19.8733C-0.224296 19.0084 0.430136 18.1058 1.32764 18.1058H2.35604L44.1275 17.9365C44.7071 17.9365 45.212 18.2938 45.399 18.8579L53.4391 42.946L53.6448 43.5665L53.9066 44.3563C54.1871 45.2213 53.5326 46.1051 52.6351 46.1051Z" fill="#3E9F88"/>
<path d="M47.5121 22.9293C49.4873 20.3564 49.0146 16.6604 46.4563 14.674C43.898 12.6876 40.2228 13.1629 38.2476 15.7358C36.2724 18.3086 36.7451 22.0046 39.3034 23.991C41.8617 25.9775 45.5369 25.5021 47.5121 22.9293Z" fill="white"/>
<path d="M45.2306 17.1655L40.7244 21.6973" stroke="#BACADD" stroke-miterlimit="10" stroke-linecap="round"/>
<path d="M45.2306 21.6973L40.7244 17.1655" stroke="#BACADD" stroke-miterlimit="10" stroke-linecap="round"/>
</g>
</g>
<defs>
<clipPath id="clip0">
<rect width="54" height="39.7895" fill="white" transform="translate(0 7.10522)"/>
</clipPath>
</defs>
</svg>
