<svg width="113" height="84" viewBox="0 0 113 84" fill="none" xmlns="http://www.w3.org/2000/svg">
<g opacity="0.6">
<g clip-path="url(#clip0_1428_59357)">
<path d="M112.5 4.24699V8.42011L112.422 78.8951C112.422 79.8701 111.647 80.6501 110.677 80.6501L28.2285 80.2991V11.0332C28.2285 9.39513 29.5471 8.1081 31.1371 8.1081L59.5249 8.2251L91.8684 8.3421L93.1094 6.04104L94.6994 3.11596C95.0485 2.45294 95.7465 2.02393 96.5222 2.02393L110.406 2.06293C111.569 2.10193 112.5 3.03795 112.5 4.24699Z" fill="#21705D"/>
<path d="M76.4724 46.5241H37.4198C36.2176 46.5241 35.248 45.5491 35.248 44.34V2.92088C35.248 1.71184 36.2176 0.736816 37.4198 0.736816H76.4724C77.6746 0.736816 78.6442 1.71184 78.6442 2.92088V44.379C78.6442 45.5491 77.6746 46.5241 76.4724 46.5241Z" fill="#EAB565"/>
<path d="M48.201 7.17188C47.3866 7.17188 46.7273 7.83489 46.7273 8.65392C46.7273 9.47294 47.3866 10.136 48.201 10.136C49.0154 10.136 49.6747 9.47294 49.6747 8.65392C49.6747 7.83489 49.0154 7.17188 48.201 7.17188ZM65.6525 7.17188C64.8381 7.17188 64.1788 7.83489 64.1788 8.65392C64.1788 9.47294 64.8381 10.136 65.6525 10.136C66.4669 10.136 67.1262 9.47294 67.1262 8.65392C67.1262 7.83489 66.4669 7.17188 65.6525 7.17188ZM56.9267 15.8691C54.2121 15.8691 51.7301 16.7271 50.2952 18.2092C50.0625 18.4432 50.0625 18.8332 50.2952 19.0282C50.4115 19.1452 50.5666 19.1842 50.7218 19.1842C50.8769 19.1842 51.032 19.1062 51.1484 18.9892C52.3506 17.7802 54.5611 17.0002 56.9267 17.0002C59.2924 17.0002 61.5417 17.7802 62.7051 18.9892C62.9378 19.2232 63.2869 19.2232 63.5195 18.9892C63.7522 18.7552 63.7522 18.4042 63.5195 18.1702C62.1234 16.7661 59.6414 15.8691 56.9267 15.8691Z" fill="white"/>
<path d="M109.669 81.625L20.899 81.9761C19.6967 81.9761 18.6496 81.235 18.2618 80.104L3.99036 37.2028L0.655184 27.2185C0.034685 25.4245 1.39203 23.5524 3.25352 23.5524H5.38649L92.0236 23.2014C93.2258 23.2014 94.2729 23.9424 94.6607 25.1125L111.337 75.0729L111.763 76.3599L112.306 77.998C112.888 79.792 111.531 81.625 109.669 81.625Z" fill="#3E9F88"/>
<path d="M99.0437 33.5568C103.14 28.2205 102.16 20.5547 96.854 16.4348C91.5478 12.3148 83.9252 13.3007 79.8285 18.637C75.7317 23.9732 76.7121 31.639 82.0183 35.759C87.3244 39.879 94.947 38.893 99.0437 33.5568Z" fill="white"/>
<path d="M94.3116 21.6023L84.9653 31.0016" stroke="#BACADD" stroke-width="3.5536" stroke-miterlimit="10" stroke-linecap="round"/>
<path d="M94.3116 31.0016L84.9653 21.6023" stroke="#BACADD" stroke-width="3.5536" stroke-miterlimit="10" stroke-linecap="round"/>
</g>
</g>
<defs>
<clipPath id="clip0_1428_59357">
<rect width="112" height="82.5263" fill="white" transform="translate(0.5 0.736816)"/>
</clipPath>
</defs>
</svg>
