<svg width="126" height="110" viewBox="0 0 126 110" fill="none" xmlns="http://www.w3.org/2000/svg">
<g opacity="0.6">
<path d="M117 17.247V21.4201L116.922 91.8951C116.922 92.8701 116.147 93.6501 115.177 93.6501L32.7285 93.2991V24.0332C32.7285 22.3951 34.0471 21.1081 35.6371 21.1081L64.0249 21.2251L96.3684 21.3421L97.6094 19.041L99.1994 16.116C99.5485 15.4529 100.247 15.0239 101.022 15.0239L114.906 15.0629C116.069 15.1019 117 16.038 117 17.247Z" fill="#21705D"/>
<path d="M114.169 94.6252L25.399 94.9762C24.1967 94.9762 23.1496 94.2352 22.7618 93.1041L8.49036 50.2029L5.15518 40.2187C4.53469 38.4246 5.89203 36.5525 7.75352 36.5525H9.88649L96.5236 36.2015C97.7258 36.2015 98.7729 36.9426 99.1607 38.1126L115.837 88.073L116.263 89.36L116.806 90.9981C117.388 92.7921 116.031 94.6252 114.169 94.6252Z" fill="#3E9F88"/>
<path d="M108.369 89.4115L104.913 92.8679L98.8628 86.8179L102.319 83.3615L108.369 89.4115Z" fill="#9AAAB4"/>
<path d="M117.285 94.8723L110.1 87.6869C109.641 87.2286 109.02 86.9712 108.372 86.9712C107.723 86.9712 107.102 87.2286 106.643 87.6869L103.187 91.1433C102.729 91.6017 102.471 92.2234 102.471 92.8716C102.471 93.5197 102.729 94.1414 103.187 94.5998L110.372 101.785C110.823 102.252 111.363 102.625 111.959 102.881C112.556 103.137 113.197 103.272 113.846 103.278C114.496 103.283 115.139 103.16 115.74 102.914C116.341 102.668 116.887 102.305 117.346 101.846C117.805 101.387 118.168 100.841 118.414 100.24C118.66 99.6393 118.783 98.9955 118.778 98.3464C118.772 97.6972 118.637 97.0557 118.381 96.4592C118.125 95.8628 117.752 95.3233 117.285 94.8723Z" fill="#66757F"/>
<path d="M91.5 92.5C100.613 92.5 108 85.1127 108 76C108 66.8873 100.613 59.5 91.5 59.5C82.3873 59.5 75 66.8873 75 76C75 85.1127 82.3873 92.5 91.5 92.5Z" fill="#557187"/>
<path d="M91.5003 87.6111C97.9129 87.6111 103.111 82.4127 103.111 76C103.111 69.5874 97.9129 64.3889 91.5003 64.3889C85.0876 64.3889 79.8892 69.5874 79.8892 76C79.8892 82.4127 85.0876 87.6111 91.5003 87.6111Z" fill="#BBDDF5"/>
</g>
</svg>
