<svg width="30" height="28" viewBox="0 0 30 28" fill="none" xmlns="http://www.w3.org/2000/svg">
<path d="M23.5278 10.749L23.6446 11.0846H24H27.6938C28.6066 11.0846 29.3666 11.8457 29.3666 12.8117V25.5062C29.3666 26.4723 28.6066 27.2333 27.6938 27.2333H8.57281C7.66002 27.2333 6.89997 26.4723 6.89997 25.5062V12.8117C6.89997 11.8457 7.66002 11.0846 8.57281 11.0846H12.2666H12.6216L12.7387 10.7495L13.6214 8.22171L13.6219 8.22023C13.6761 8.06354 13.8182 7.96668 13.9669 7.96668H22.2997H22.3002C22.3737 7.96662 22.4466 7.98973 22.5089 8.03461C22.5713 8.07951 22.6206 8.14446 22.648 8.22205C22.6481 8.22226 22.6482 8.22246 22.6483 8.22267L23.5278 10.749ZM23.3666 2.93385V6.43335H22.3666V2.93335V2.43335H21.8666H18.3666V1.43335H21.8664C22.2641 1.43381 22.6455 1.59201 22.9267 1.87327C23.208 2.15459 23.3662 2.53601 23.3666 2.93385ZM0.366638 22.9331V19.4333H1.36664V22.9333V23.4333H1.86664H5.36664V24.4333H1.86714C1.4693 24.433 1.08787 24.2747 0.806563 23.9934C0.525303 23.7122 0.367094 23.3308 0.366638 22.9331ZM1.86691 1.43335H5.36664V2.43335H1.86664H1.36664V2.93335V6.43335H0.366638V2.93363C0.367094 2.53587 0.525303 2.15453 0.806563 1.87327C1.08782 1.59201 1.46916 1.43381 1.86691 1.43335ZM13.2876 18.8249C13.2876 21.5503 15.4446 23.7791 18.1333 23.7791C20.822 23.7791 22.979 21.5503 22.979 18.8249C22.979 16.0995 20.822 13.8707 18.1333 13.8707C15.4446 13.8707 13.2876 16.0995 13.2876 18.8249ZM16.6475 20.3655C16.2508 19.959 16.0259 19.405 16.0259 18.8249C16.0259 18.2448 16.2508 17.6909 16.6475 17.2843C17.0437 16.8782 17.5784 16.6524 18.1333 16.6524C18.6882 16.6524 19.2229 16.8782 19.6191 17.2843C20.0158 17.6909 20.2407 18.2448 20.2407 18.8249C20.2407 19.405 20.0158 19.959 19.6191 20.3655C19.2229 20.7716 18.6882 20.9975 18.1333 20.9975C17.5784 20.9975 17.0437 20.7716 16.6475 20.3655ZM0.366638 11.4333H1.36664V14.4333H0.366638V11.4333ZM10.3666 1.43335H13.3666V2.43335H10.3666V1.43335Z" fill="white" stroke="white"/>
</svg>
