<svg width="21" height="22" viewBox="0 0 21 22" fill="none" xmlns="http://www.w3.org/2000/svg">
<g clip-path="url(#clip0)">
<path d="M2.21476 6.97656H18.8155C19.2452 6.97656 19.5967 6.625 19.5967 6.19531C19.5967 5.76562 19.2452 5.41406 18.8155 5.41406H2.21476C1.78509 5.41406 1.43355 5.76562 1.43355 6.19531C1.43355 6.625 1.78509 6.97656 2.21476 6.97656ZM20.2334 19.4531C20.5889 19.8086 20.5889 20.3828 20.2334 20.7344C20.0576 20.9102 19.8233 21 19.5928 21C19.3624 21 19.128 20.9102 18.9522 20.7344L17.4171 19.2031C16.8078 19.5664 16.093 19.7773 15.3313 19.7773C13.0814 19.7773 11.2534 17.9492 11.2534 15.6992C11.2534 13.4492 13.0814 11.6211 15.3313 11.6211C17.5812 11.6211 19.4092 13.4492 19.4092 15.6992C19.4092 16.5312 19.1592 17.3047 18.7296 17.9531L20.2334 19.4531ZM15.3352 18.0391C16.6281 18.0391 17.6749 16.9883 17.6749 15.6992C17.6749 14.4102 16.6242 13.3594 15.3352 13.3594C14.0462 13.3594 12.9955 14.4102 12.9955 15.6992C12.9955 16.9883 14.0423 18.0391 15.3352 18.0391ZM17.3742 1H3.62485C1.90228 1 0.5 2.40234 0.5 4.125V17.875C0.5 19.5977 1.90228 21 3.62485 21H11.6713C12.101 21 12.4525 20.6484 12.4525 20.2188C12.4525 19.7891 12.101 19.4375 11.6713 19.4375H3.62485C2.76161 19.4375 2.06242 18.7383 2.06242 17.875V4.125C2.06242 3.26172 2.76161 2.5625 3.62485 2.5625H17.3742C18.2374 2.5625 18.9366 3.26172 18.9366 4.125V11.8594C18.9366 12.2891 19.2881 12.6406 19.7178 12.6406C20.1475 12.6406 20.499 12.2891 20.499 11.8594V4.125C20.499 2.40234 19.0967 1 17.3742 1Z" fill="#3E9F88" stroke="#3E9F88" stroke-width="0.5"/>
</g>
<defs>
<clipPath id="clip0">
<rect width="21" height="21" fill="white" transform="translate(0 0.5)"/>
</clipPath>
</defs>
</svg>
