<svg width="22" height="22" viewBox="0 0 22 22" fill="none" xmlns="http://www.w3.org/2000/svg">
<path d="M15.2281 11.0144C15.1314 11.0047 15.0343 10.9999 14.9372 11C14.8398 10.9999 14.7424 11.0048 14.6456 11.0148C14.0438 11.0922 13.4887 11.3795 13.078 11.8261C12.6673 12.2727 12.4274 12.8499 12.4006 13.456C12.3774 14.1176 12.5948 14.7652 13.0126 15.2786L14.9372 17.7948L16.8617 15.2788C17.2795 14.7653 17.4969 14.1177 17.4737 13.4561C17.4468 12.8499 17.2069 12.2726 16.7961 11.8259C16.3853 11.3792 15.83 11.0919 15.2281 11.0144ZM14.9372 14.9375C14.6776 14.9375 14.4238 14.8605 14.208 14.7163C13.9921 14.5721 13.8239 14.3671 13.7246 14.1273C13.6252 13.8874 13.5992 13.6235 13.6499 13.3689C13.7005 13.1143 13.8255 12.8805 14.0091 12.6969C14.1926 12.5134 14.4265 12.3884 14.6811 12.3377C14.9357 12.2871 15.1996 12.3131 15.4394 12.4124C15.6793 12.5118 15.8842 12.68 16.0285 12.8958C16.1727 13.1117 16.2497 13.3654 16.2497 13.625C16.2493 13.973 16.1108 14.3066 15.8648 14.5526C15.6187 14.7987 15.2851 14.9371 14.9372 14.9375Z" fill="#3E9F88"/>
<path d="M9.5825 7.52279L1.15625 6.31909V17.5625C1.15727 18.4324 1.50331 19.2664 2.11844 19.8816C2.73357 20.4967 3.56757 20.8427 4.4375 20.8437H6.91812L9.5825 7.52279Z" fill="#3E9F88"/>
<path d="M10.8837 7.7085L8.25684 20.8436H17.5625C18.4324 20.8426 19.2664 20.4965 19.8815 19.8814C20.4967 19.2663 20.8427 18.4323 20.8437 17.5624V9.13125L10.8837 7.7085ZM17.9056 16.0757H17.905L15.4587 19.2733C15.3975 19.3534 15.3187 19.4183 15.2283 19.463C15.138 19.5077 15.0385 19.5309 14.9377 19.5309C14.8369 19.5309 14.7375 19.5077 14.6471 19.463C14.5568 19.4183 14.4779 19.3534 14.4167 19.2733L11.9705 16.0757C11.3588 15.3089 11.0464 14.346 11.0916 13.3661C11.1375 12.4503 11.5064 11.5804 12.1329 10.9107C12.7593 10.2411 13.6027 9.81508 14.5135 9.70829C14.7954 9.68073 15.0794 9.68073 15.3613 9.70829C16.2722 9.81486 17.1159 10.2408 17.7425 10.9104C18.3692 11.5801 18.7382 12.4501 18.7842 13.3661C18.829 14.346 18.5167 15.3088 17.9054 16.0759L17.9056 16.0757Z" fill="#3E9F88"/>
<path d="M20.8438 7.80583V4.4375C20.8427 3.56757 20.4967 2.73357 19.8816 2.11844C19.2664 1.50331 18.4324 1.15727 17.5625 1.15625H4.4375C3.56757 1.15727 2.73357 1.50331 2.11844 2.11844C1.50331 2.73357 1.15727 3.56757 1.15625 4.4375V4.99347L20.8438 7.80583Z" fill="#3E9F88"/>
</svg>
