<svg width="26" height="28" viewBox="0 0 26 28" fill="none" xmlns="http://www.w3.org/2000/svg">
<path d="M13 5.8333C14.6108 5.8333 15.9166 4.52747 15.9166 2.91665C15.9166 1.30583 14.6108 0 13 0C11.3892 0 10.0833 1.30583 10.0833 2.91665C10.0833 4.52747 11.3892 5.8333 13 5.8333Z" fill="white"/>
<path d="M16.5 19.9767V17.5H17.6666C17.9891 17.5 18.25 17.2391 18.25 16.9166V9.95996C18.25 9.36124 17.9629 8.81666 17.4809 8.50336C15.9463 7.50641 14.8309 7 13 7C11.1691 7 10.0537 7.50641 8.51899 8.50391C8.03709 8.81666 7.74998 9.36124 7.74998 9.95996V16.9166C7.74998 17.2391 8.01089 17.5 8.33333 17.5H9.49998V19.9767C5.6672 20.2723 0.166626 21.1739 0.166626 23.9166C0.166626 24.9121 0.887079 25.7393 2.29408 26.3803L2.07954 26.7712C1.96787 26.9746 1.98723 27.2246 2.12969 27.4081C2.24136 27.5533 2.41341 27.6353 2.59114 27.6353C2.63784 27.6353 2.6857 27.6297 2.7324 27.6177L5.06575 27.0343C5.23096 26.9933 5.36998 26.8822 5.44627 26.7301C5.52256 26.578 5.5283 26.4003 5.46224 26.2431L4.59063 24.1632C4.50406 23.957 4.30691 23.818 4.08362 23.8061C3.85803 23.7896 3.64842 23.9121 3.54128 24.108L3.41266 24.3423C3.39259 24.3323 3.37984 24.3141 3.35895 24.3051C2.98637 24.1444 2.76308 24.006 2.63205 23.9081C3.33309 23.3626 5.76685 22.614 9.49987 22.3075V23.9166C9.49987 24.239 9.76078 24.4999 10.0832 24.4999H15.9166C16.239 24.4999 16.4999 24.239 16.4999 23.9166V22.3076C20.2523 22.6157 22.6924 23.3704 23.3792 23.9166C22.4973 24.6179 18.7353 25.6666 12.9999 25.6666C12.355 25.6666 11.8333 26.189 11.8333 26.8332C11.8333 27.4775 12.3551 28 13 28C14.3136 28 25.8333 27.8855 25.8333 23.9166C25.8333 21.1739 20.3328 20.2723 16.5 19.9767Z" fill="white"/>
</svg>
