<svg width="31" height="30" viewBox="0 0 31 30" fill="none" xmlns="http://www.w3.org/2000/svg">
<path fill-rule="evenodd" clip-rule="evenodd" d="M15.0723 27.5C21.9758 27.5 27.5723 21.9036 27.5723 15C27.5723 8.09644 21.9758 2.5 15.0723 2.5C8.16871 2.5 2.57227 8.09644 2.57227 15C2.57227 21.9036 8.16871 27.5 15.0723 27.5ZM15.0723 30C23.3565 30 30.0723 23.2843 30.0723 15C30.0723 6.71573 23.3565 0 15.0723 0C6.78799 0 0.0722656 6.71573 0.0722656 15C0.0722656 23.2843 6.78799 30 15.0723 30Z" fill="#4D9886"/>
<path fill-rule="evenodd" clip-rule="evenodd" d="M21.8295 10.8097C22.3687 11.3856 22.3389 12.2897 21.763 12.8289L13.3701 20.686C13.0764 20.961 12.6803 21.0994 12.2793 21.0671C11.8783 21.0349 11.5094 20.835 11.2634 20.5166L8.22768 16.5881C7.74526 15.9638 7.86028 15.0666 8.48459 14.5842C9.10889 14.1017 10.0061 14.2168 10.4885 14.8411L12.5639 17.527L19.8103 10.7431C20.3863 10.2039 21.2903 10.2337 21.8295 10.8097Z" fill="#4D9886"/>
</svg>
