<svg width="8" height="10" viewBox="0 0 8 10" fill="none" xmlns="http://www.w3.org/2000/svg">
<path d="M7.47955 5.32849C7.54515 5.28332 7.59878 5.22288 7.63582 5.15238C7.67287 5.08188 7.69223 5.00343 7.69223 4.92378C7.69223 4.84414 7.67287 4.76568 7.63582 4.69518C7.59878 4.62468 7.54515 4.56424 7.47955 4.51907L1.07999 0.0879573C1.00618 0.0366668 0.919726 0.00658986 0.830021 0.000992752C0.740316 -0.00460531 0.650792 0.014492 0.571177 0.0562086C0.491562 0.0979252 0.4249 0.160666 0.378434 0.237614C0.331969 0.314561 0.307476 0.402774 0.307617 0.492666L0.307618 9.3549C0.307988 9.44458 0.332796 9.53247 0.379373 9.60911C0.42595 9.68574 0.492534 9.74823 0.571965 9.78985C0.651396 9.83147 0.740669 9.85065 0.830182 9.84532C0.919695 9.83999 1.00606 9.81036 1.08 9.75961L7.47955 5.32849Z" fill="#494949"/>
</svg>
