<svg width="12" height="9" viewBox="0 0 12 9" fill="none" xmlns="http://www.w3.org/2000/svg">
<path d="M6.45601 0.239189C6.40519 0.165399 6.3372 0.105065 6.25789 0.0633845C6.17857 0.0217042 6.09031 -7.39103e-05 6.00071 -7.39025e-05C5.91111 -7.38946e-05 5.82285 0.0217042 5.74353 0.0633846C5.66422 0.105065 5.59623 0.165399 5.54541 0.239189L0.560408 7.43869C0.502706 7.52173 0.468869 7.619 0.462572 7.71991C0.456275 7.82083 0.477758 7.92155 0.52469 8.01111C0.571621 8.10068 0.642204 8.17567 0.72877 8.22795C0.815337 8.28022 0.914576 8.30778 1.01571 8.30762L10.9857 8.30762C11.0866 8.3072 11.1855 8.27929 11.2717 8.22689C11.3579 8.17449 11.4282 8.09959 11.475 8.01023C11.5219 7.92087 11.5434 7.82043 11.5374 7.71973C11.5314 7.61903 11.4981 7.52187 11.441 7.43869L6.45601 0.239189Z" fill="white"/>
</svg>
