<svg width="31" height="31" viewBox="0 0 31 31" fill="none" xmlns="http://www.w3.org/2000/svg">
<path fill-rule="evenodd" clip-rule="evenodd" d="M15.1445 28.3164C22.0481 28.3164 27.6445 22.72 27.6445 15.8164C27.6445 8.91285 22.0481 3.31641 15.1445 3.31641C8.24097 3.31641 2.64453 8.91285 2.64453 15.8164C2.64453 22.72 8.24097 28.3164 15.1445 28.3164ZM15.1445 30.8164C23.4288 30.8164 30.1445 24.1007 30.1445 15.8164C30.1445 7.53214 23.4288 0.816406 15.1445 0.816406C6.86026 0.816406 0.144531 7.53214 0.144531 15.8164C0.144531 24.1007 6.86026 30.8164 15.1445 30.8164Z" fill="#DBB64E"/>
<path fill-rule="evenodd" clip-rule="evenodd" d="M14.7875 9.3877C15.5764 9.3877 16.216 10.0273 16.216 10.8163V17.7806C16.216 18.5695 15.5764 19.2091 14.7875 19.2091C13.9985 19.2091 13.3589 18.5695 13.3589 17.7806V10.8163C13.3589 10.0273 13.9985 9.3877 14.7875 9.3877Z" fill="#DBB64E"/>
<path d="M16.5729 21.8878C16.5729 22.874 15.7734 23.6735 14.7872 23.6735C13.801 23.6735 13.0015 22.874 13.0015 21.8878C13.0015 20.9015 13.801 20.1021 14.7872 20.1021C15.7734 20.1021 16.5729 20.9015 16.5729 21.8878Z" fill="#DBB64E"/>
</svg>
