<svg width="19" height="19" viewBox="0 0 19 19" fill="none" xmlns="http://www.w3.org/2000/svg">
<path d="M9.95601 5.23919C9.90519 5.1654 9.8372 5.10506 9.75789 5.06338C9.67857 5.0217 9.59031 4.99993 9.50071 4.99993C9.41111 4.99993 9.32285 5.0217 9.24353 5.06338C9.16422 5.10506 9.09623 5.1654 9.04541 5.23919L4.06041 12.4387C4.00271 12.5217 3.96887 12.619 3.96257 12.7199C3.95627 12.8208 3.97776 12.9215 4.02469 13.0111C4.07162 13.1007 4.1422 13.1757 4.22877 13.2279C4.31534 13.2802 4.41458 13.3078 4.51571 13.3076L14.4857 13.3076C14.5866 13.3072 14.6855 13.2793 14.7717 13.2269C14.8579 13.1745 14.9282 13.0996 14.975 13.0102C15.0219 12.9209 15.0434 12.8204 15.0374 12.7197C15.0314 12.619 14.9981 12.5219 14.941 12.4387L9.95601 5.23919Z" fill="white"/>
</svg>
