<svg width="27" height="27" viewBox="0 0 27 27" fill="none" xmlns="http://www.w3.org/2000/svg">
<path d="M27 23.9923L22.0091 19.0014C23.3773 17.0424 24.1858 14.6635 24.1858 12.0929C24.1858 5.41415 18.7699 0 12.0929 0C5.41591 0 0 5.41415 0 12.0929C0 18.7716 5.41415 24.1858 12.0929 24.1858C14.6635 24.1858 17.0441 23.3773 19.0031 22.0091L23.994 27L27 23.9923ZM12.0912 20.7324C7.32141 20.7324 3.45339 16.8661 3.45339 12.0946C3.45339 7.32312 7.32141 3.45686 12.0912 3.45686C16.8627 3.45686 20.729 7.32312 20.729 12.0946C20.7307 16.8661 16.8644 20.7324 12.0912 20.7324ZM6.90851 13.8205H17.2739V10.3653H6.90851V13.8205Z" fill="white"/>
</svg>
