<svg width="27" height="28" viewBox="0 0 27 28" fill="none" xmlns="http://www.w3.org/2000/svg">
<g clip-path="url(#clip0)">
<path fill-rule="evenodd" clip-rule="evenodd" d="M23.6733 12.2348V24.3788H3.32581V12.2348L13.4995 5.82843L23.6733 12.2348Z" fill="#DB805B"/>
<path fill-rule="evenodd" clip-rule="evenodd" d="M23.6733 12.2348V24.3788H3.32581V22.9009H21.0364C21.7614 22.9009 22.3548 22.2356 22.3548 21.4229V11.4036L23.6733 12.2348Z" fill="#C26E4A"/>
<path d="M1.55446 13.6458C1.05222 13.9609 0.415398 13.7597 0.132847 13.1967C-0.148174 12.6336 0.031228 11.9197 0.53347 11.603L12.9898 3.76064C13.3231 3.55119 13.7148 3.56958 14.0227 3.76898L26.4656 11.603C26.9693 11.9197 27.1487 12.6336 26.8662 13.1967C26.5837 13.7597 25.9484 13.9609 25.4447 13.6458L13.8673 6.35629C13.6311 6.20714 13.3695 6.20714 13.1318 6.35629L1.55446 13.6458Z" fill="#FFBF81"/>
<path fill-rule="evenodd" clip-rule="evenodd" d="M16.3216 24.3788V14.2909C16.3216 14.0311 16.1318 13.8184 15.9 13.8184H11.0987C10.867 13.8184 10.6771 14.0312 10.6771 14.2909V24.3788H16.3216Z" fill="#C26E4A"/>
<path fill-rule="evenodd" clip-rule="evenodd" d="M16.3216 24.3788V14.2909C16.3216 14.0311 16.1318 13.8184 15.9 13.8184H15.0031V22.0144C15.0031 22.502 14.6474 22.9009 14.2124 22.9009H10.6771V24.3788H16.3216Z" fill="#AD5C3C"/>
<path fill-rule="evenodd" clip-rule="evenodd" d="M12.9107 15.8493H14.0886C14.3203 15.8493 14.5102 16.0622 14.5102 16.3219V17.6424C14.5102 17.9021 14.3203 18.1149 14.0886 18.1149H12.9107C12.679 18.1149 12.4891 17.9021 12.4891 17.6424V16.3219C12.4892 16.0622 12.679 15.8493 12.9107 15.8493Z" fill="#A7DDFF"/>
<path d="M12.0944 20.0688C12.0944 19.8226 12.2708 19.6248 12.489 19.6248C12.7072 19.6248 12.8851 19.8226 12.8851 20.0688V21.1228C12.8851 21.3675 12.7072 21.5653 12.489 21.5653C12.2708 21.5653 12.0944 21.3675 12.0944 21.1228V20.0688Z" fill="#6C5062"/>
<path fill-rule="evenodd" clip-rule="evenodd" d="M8.06129 13.8184H5.94316C5.71145 13.8184 5.52161 14.0312 5.52161 14.2909V18.5138C5.52161 18.7753 5.71145 18.988 5.94316 18.988H8.06129C8.29301 18.988 8.48285 18.7752 8.48285 18.5138V14.2909C8.48285 14.0312 8.29301 13.8184 8.06129 13.8184Z" fill="#A7DDFF"/>
<path fill-rule="evenodd" clip-rule="evenodd" d="M8.06129 13.8184H7.16444V16.6236C7.16444 17.1112 6.80864 17.51 6.37369 17.51H5.52161V18.5138C5.52161 18.7752 5.71145 18.988 5.94316 18.988H8.06129C8.29301 18.988 8.48285 18.7751 8.48285 18.5138V14.2909C8.48285 14.0312 8.29301 13.8184 8.06129 13.8184Z" fill="#6FCCFF"/>
<path fill-rule="evenodd" clip-rule="evenodd" d="M21.0572 13.8184H18.939C18.7073 13.8184 18.5175 14.0312 18.5175 14.2909V18.5138C18.5175 18.7753 18.7073 18.988 18.939 18.988H21.0572C21.2889 18.988 21.4788 18.7752 21.4788 18.5138V14.2909C21.4788 14.0312 21.2889 13.8184 21.0572 13.8184Z" fill="#A7DDFF"/>
<path fill-rule="evenodd" clip-rule="evenodd" d="M21.0571 13.8184H20.1602V16.6236C20.1602 17.1112 19.8044 17.51 19.3695 17.51H18.5175V18.5138C18.5175 18.7752 18.7073 18.988 18.939 18.988H21.0572C21.2889 18.988 21.4788 18.7751 21.4788 18.5138V14.2909C21.4787 14.0312 21.2889 13.8184 21.0571 13.8184Z" fill="#6FCCFF"/>
<path d="M12.5414 9.49669C12.3231 9.49669 12.1468 9.299 12.1468 9.0526C12.1468 8.80792 12.3231 8.61029 12.5414 8.61029H14.4577C14.676 8.61029 14.8539 8.80798 14.8539 9.0526C14.8539 9.299 14.676 9.49669 14.4577 9.49669H12.5414ZM10.6773 11.4489C10.4591 11.4489 10.2827 11.2512 10.2827 11.0066C10.2827 10.7619 10.4591 10.5625 10.6773 10.5625H16.3217C16.54 10.5625 16.7179 10.7619 16.7179 11.0066C16.7179 11.2513 16.54 11.4489 16.3217 11.4489H10.6773Z" fill="#C26E4A"/>
</g>
<defs>
<clipPath id="clip0">
<rect width="27" height="27" fill="white" transform="translate(0 0.5)"/>
</clipPath>
</defs>
</svg>
