<svg width="27" height="28" viewBox="0 0 27 28" fill="none" xmlns="http://www.w3.org/2000/svg">
<g clip-path="url(#clip0)">
<path d="M16.0313 3.875H3.09375C1.38375 3.875 0 5.25875 0 6.96875V21.0312C0 22.7412 1.38375 24.125 3.09375 24.125H11.3963L11.6438 22.7413C11.7574 22.1112 12.0488 21.5487 12.4999 21.0875L13.9624 19.625H4.21875C3.7575 19.625 3.375 19.2425 3.375 18.7812C3.375 18.32 3.7575 17.9375 4.21875 17.9375H14.9063C15.1088 17.9375 15.3 18.0163 15.4463 18.14L19.125 14.4725V6.96875C19.125 5.25875 17.7413 3.875 16.0313 3.875ZM14.9063 15.9688H4.21875C3.7575 15.9688 3.375 15.5863 3.375 15.125C3.375 14.6637 3.7575 14.2812 4.21875 14.2812H14.9063C15.3675 14.2812 15.75 14.6637 15.75 15.125C15.75 15.5863 15.3675 15.9688 14.9063 15.9688ZM14.9063 12.3125H4.21875C3.7575 12.3125 3.375 11.93 3.375 11.4688C3.375 11.0075 3.7575 10.625 4.21875 10.625H14.9063C15.3675 10.625 15.75 11.0075 15.75 11.4688C15.75 11.93 15.3675 12.3125 14.9063 12.3125Z" fill="#3E9F88"/>
<path d="M13.7812 2.75H12.5437C12.1725 1.45625 10.98 0.5 9.5625 0.5C8.145 0.5 6.9525 1.45625 6.58125 2.75H5.34375C4.8825 2.75 4.5 3.1325 4.5 3.59375V5.84375C4.5 6.92375 5.38875 7.8125 6.46875 7.8125H12.6562C13.7362 7.8125 14.625 6.92375 14.625 5.84375V3.59375C14.625 3.1325 14.2425 2.75 13.7812 2.75Z" fill="#21705D"/>
<path d="M15.75 11.4688C15.75 11.93 15.3675 12.3125 14.9062 12.3125H4.21875C3.7575 12.3125 3.375 11.93 3.375 11.4688C3.375 11.0075 3.7575 10.625 4.21875 10.625H14.9062C15.3675 10.625 15.75 11.0075 15.75 11.4688Z" fill="white"/>
<path d="M15.75 15.125C15.75 15.5862 15.3675 15.9688 14.9062 15.9688H4.21875C3.7575 15.9688 3.375 15.5862 3.375 15.125C3.375 14.6637 3.7575 14.2812 4.21875 14.2812H14.9062C15.3675 14.2812 15.75 14.6637 15.75 15.125Z" fill="white"/>
<path d="M15.4462 18.14L13.9612 19.625H4.21875C3.7575 19.625 3.375 19.2425 3.375 18.7812C3.375 18.32 3.7575 17.9375 4.21875 17.9375H14.9062C15.1087 17.9375 15.3 18.0163 15.4462 18.14Z" fill="white"/>
<path d="M4.5 3.875H3.09375C1.38375 3.875 0 5.25875 0 6.96875V21.0312C0 22.7412 1.38375 24.125 3.09375 24.125H9.5625V19.625H4.21875C3.7575 19.625 3.375 19.2425 3.375 18.7812C3.375 18.32 3.7575 17.9375 4.21875 17.9375H9.5625V15.9688H4.21875C3.7575 15.9688 3.375 15.5863 3.375 15.125C3.375 14.6637 3.7575 14.2812 4.21875 14.2812H9.5625V12.3125H4.21875C3.7575 12.3125 3.375 11.93 3.375 11.4688C3.375 11.0075 3.7575 10.625 4.21875 10.625H9.5625V7.8125H6.46875C5.38875 7.8125 4.5 6.92375 4.5 5.84375V3.875Z" fill="#3E9F88"/>
<path d="M9.5625 0.5C8.145 0.5 6.9525 1.45625 6.58125 2.75H5.34375C4.8825 2.75 4.5 3.1325 4.5 3.59375V3.875V5.84375C4.5 6.92375 5.38875 7.8125 6.46875 7.8125H9.5625V0.5Z" fill="#21705D"/>
<path d="M9.56249 10.625H4.21875C3.7575 10.625 3.375 11.0075 3.375 11.4688C3.375 11.93 3.7575 12.3125 4.21875 12.3125H9.56249V10.625Z" fill="#DEDEDE"/>
<path d="M9.56249 14.2812H4.21875C3.7575 14.2812 3.375 14.6637 3.375 15.125C3.375 15.5862 3.7575 15.9688 4.21875 15.9688H9.56249V14.2812Z" fill="#DEDEDE"/>
<path d="M9.56249 17.9375H4.21875C3.7575 17.9375 3.375 18.32 3.375 18.7812C3.375 19.2425 3.7575 19.625 4.21875 19.625H9.56249V17.9375Z" fill="#DEDEDE"/>
<path d="M14.0928 27.5C13.8712 27.5 13.6552 27.4123 13.4966 27.2525C13.3019 27.0579 13.2142 26.7811 13.2626 26.5089L13.8588 23.1283C13.8881 22.9584 13.9713 22.8009 14.0928 22.6794L22.4459 14.3263C23.4719 13.2991 24.4799 13.5759 25.0312 14.1271L26.4228 15.5188C27.1912 16.2871 27.1912 17.5348 26.4228 18.3031L18.0697 26.6563C17.9482 26.7789 17.7907 26.861 17.6197 26.8914L14.2391 27.4865L14.0928 27.5ZM17.4734 26.06H17.4847H17.4734Z" fill="#FFC107"/>
<path d="M23.8837 13.6344C23.4427 13.6344 22.9466 13.8256 22.4459 14.3263L14.0928 22.6794C13.9713 22.8009 13.8881 22.9584 13.8588 23.1283L13.2626 26.5089C13.2142 26.7811 13.3019 27.0579 13.4966 27.2525C13.5056 27.2615 13.5135 27.2694 13.5225 27.2773L25.8513 14.9473L25.0301 14.126C24.7488 13.8448 24.3461 13.6344 23.8837 13.6344Z" fill="#DEA806"/>
</g>
<defs>
<clipPath id="clip0">
<rect width="27" height="27" fill="white" transform="translate(0 0.5)"/>
</clipPath>
</defs>
</svg>
