<svg width="27" height="28" viewBox="0 0 27 28" fill="none" xmlns="http://www.w3.org/2000/svg">
<g clip-path="url(#clip0)">
<path d="M20.8586 19.0658L18.7258 18.3549H8.27424L6.1415 19.0658C5.07452 19.4214 4.35486 20.4199 4.35486 21.5446V26.629C4.35486 27.1101 4.74483 27.5 5.22582 27.5H21.7742C22.2552 27.5 22.6451 27.11 22.6451 26.629V21.5445C22.6451 20.4199 21.9255 19.4214 20.8586 19.0658Z" fill="#FFDC64"/>
<path d="M16.548 14H10.4514V19.226H16.548V14Z" fill="#F5AF73"/>
<path d="M10.4517 16.1478C11.3347 16.7163 12.3812 17.0484 13.5 17.0484C14.6189 17.0484 15.6654 16.7163 16.5484 16.1478V14H10.4517V16.1478Z" fill="#F5965F"/>
<path d="M19.1611 7.46777H17.4193V9.64517H19.1611V7.46777Z" fill="#9B735A"/>
<path d="M18.7258 9.20963H18.2903C17.8093 9.20963 17.4194 8.81966 17.4194 8.33867V7.46771H9.5806V8.33867C9.5806 8.81972 9.19063 9.20963 8.70964 9.20963H8.27416C7.79312 9.20963 7.4032 9.59961 7.4032 10.0806V10.8954C7.4032 11.3205 7.68269 11.7189 8.09919 11.8045C8.33201 11.8524 8.5479 11.8014 8.72514 11.6934C8.88388 14.1956 10.9578 16.1774 13.5 16.1774C16.0422 16.1774 18.1161 14.1955 18.2748 11.6934C18.4521 11.8014 18.668 11.8524 18.9008 11.8045C19.3172 11.7189 19.5968 11.3206 19.5968 10.8954V10.0806C19.5968 9.59961 19.2068 9.20963 18.7258 9.20963Z" fill="#F5C882"/>
<path d="M9.58081 7.46777H7.83899V9.64517H9.58081V7.46777Z" fill="#9B735A"/>
<path d="M9.5806 7.46771V8.33867C9.5806 8.81972 9.19063 9.20963 8.70964 9.20963H8.27416C7.79312 9.20963 7.4032 9.59961 7.4032 10.0806V10.8954C7.4032 11.3205 7.68269 11.7189 8.09919 11.8045C8.33201 11.8524 8.5479 11.8014 8.72514 11.6934C8.88387 14.1956 10.9578 16.1774 13.5 16.1774C13.7993 16.1774 14.0914 16.1477 14.3754 16.0952C12.144 15.6868 10.4516 13.7364 10.4516 11.3871V8.77421C10.4516 8.53369 10.6466 8.33873 10.8871 8.33873H17.4194V7.46777H9.5806V7.46771Z" fill="#F5AF73"/>
<path d="M18.7258 5.72582L17.6668 1.48961C17.5214 0.908006 16.9988 0.5 16.3993 0.5H10.2519C9.61323 0.5 9.06822 0.961742 8.96323 1.59165L8.2742 5.72577L5.29244 7.05098C5.07755 7.14648 5.14568 7.46769 5.38087 7.46769H21.6191C21.8543 7.46769 21.9224 7.14648 21.7075 7.05098L18.7258 5.72582Z" fill="#FFDC64"/>
<path d="M5.38085 7.46775H21.6191C21.8543 7.46775 21.9224 7.14655 21.7075 7.05104L18.7258 5.72583H8.27423L5.29247 7.05104C5.07752 7.14655 5.14571 7.46775 5.38085 7.46775Z" fill="#FFC850"/>
<path d="M11.3683 4.85485C11.1106 4.85485 10.9094 4.63241 10.935 4.37602L10.9742 3.98389H8.56453L8.27417 5.72581H18.7258L18.5081 4.85485H11.3683Z" fill="#FFC850"/>
<path d="M10.9742 3.9839L11.2441 1.28432C11.2887 0.839029 11.6634 0.5 12.1109 0.5H10.2519C9.6133 0.5 9.06824 0.961742 8.96325 1.59165L8.56458 3.98384H10.9742V3.9839H10.9742Z" fill="#FFC850"/>
<path d="M16.5484 6.59679C16.7889 6.59679 16.9839 6.40178 16.9839 6.16131C16.9839 5.92079 16.7889 5.72583 16.5484 5.72583H8.27424L6.31458 6.59679H16.5484Z" fill="#E1A546"/>
<path d="M7.40322 18.6451L6.1415 19.0657C5.07452 19.4213 4.35486 20.4198 4.35486 21.5445V26.629C4.35486 27.11 4.74483 27.4999 5.22582 27.4999H7.40322V18.6451Z" fill="#FFC850"/>
<path d="M19.5968 18.6451L20.8585 19.0657C21.9255 19.4213 22.6452 20.4198 22.6452 21.5445V26.629C22.6452 27.11 22.2552 27.4999 21.7742 27.4999H19.5968V18.6451Z" fill="#FFC850"/>
<path d="M9.14512 18.3549H8.27421L7.4032 18.6452V24.8871H9.14512V18.3549Z" fill="#55D7CF"/>
<path d="M17.8547 18.3549H18.7257L19.5967 18.6452V24.8871H17.8547V18.3549Z" fill="#55D7CF"/>
<path d="M7.40319 27.5H6.53223V23.5806C6.53223 23.3401 6.72719 23.1451 6.96771 23.1451C7.20823 23.1451 7.40319 23.3401 7.40319 23.5806V27.5Z" fill="#E1A546"/>
<path d="M20.4678 27.5H19.5968V23.5806C19.5968 23.3401 19.7918 23.1451 20.0323 23.1451C20.2728 23.1451 20.4678 23.3401 20.4678 23.5806V27.5Z" fill="#E1A546"/>
<path d="M8.27421 18.3557L7.4032 18.646V24.888H8.27421V18.3557Z" fill="#3D96B1"/>
<path d="M18.7257 18.3548H17.8547V24.887H18.7257V18.3548Z" fill="#3D96B1"/>
<path d="M19.5968 27.5H7.4032V24.8871C7.4032 24.4061 7.79317 24.0162 8.27416 24.0162H18.7258C19.2068 24.0162 19.5968 24.4061 19.5968 24.8871V27.5Z" fill="#3D96B1"/>
<path d="M13.7176 22.7097H13.2822C13.0416 22.7097 12.8467 22.5147 12.8467 22.2742V18.7903H14.1531V22.2742C14.1531 22.5147 13.9582 22.7097 13.7176 22.7097Z" fill="#FFC850"/>
<path d="M10.2447 16.9818L13.5 18.7903L11.9331 20.6706C11.6053 21.064 11.0103 21.091 10.6482 20.7289L8.27417 18.3549L9.12488 17.2206C9.38602 16.8724 9.86422 16.7704 10.2447 16.9818Z" fill="#B3A187"/>
<path d="M16.7553 16.9818L13.5 18.7903L15.0668 20.6706C15.3947 21.064 15.9896 21.091 16.3518 20.7289L18.7258 18.3549L17.8751 17.2206C17.614 16.8724 17.1359 16.7704 16.7553 16.9818Z" fill="#B3A187"/>
<path d="M9.14516 26.4114C9.50593 26.4114 9.79838 26.119 9.79838 25.7582C9.79838 25.3974 9.50593 25.105 9.14516 25.105C8.7844 25.105 8.49194 25.3974 8.49194 25.7582C8.49194 26.119 8.7844 26.4114 9.14516 26.4114Z" fill="#B3A187"/>
<path d="M17.8548 26.4114C18.2155 26.4114 18.508 26.119 18.508 25.7582C18.508 25.3974 18.2155 25.105 17.8548 25.105C17.494 25.105 17.2015 25.3974 17.2015 25.7582C17.2015 26.119 17.494 26.4114 17.8548 26.4114Z" fill="#B3A187"/>
</g>
<defs>
<clipPath id="clip0">
<rect width="27" height="27" fill="white" transform="translate(0 0.5)"/>
</clipPath>
</defs>
</svg>
