<svg width="27" height="28" viewBox="0 0 27 28" fill="none" xmlns="http://www.w3.org/2000/svg">
<g clip-path="url(#clip0)">
<path d="M17.6063 3.08752H3.43126C2.81252 3.08752 2.30627 3.59377 2.30627 4.21251V26.375C2.30627 26.9938 2.81252 27.5 3.43126 27.5H21.0375C21.6563 27.5 22.1625 26.9938 22.1625 26.375V7.64377L17.6063 3.08752Z" fill="#3E9F88"/>
<path d="M24.6938 23.7875V5.33748L19.8562 0.5H5.96251C5.34377 0.5 4.83752 1.00625 4.83752 1.62498V23.7875C4.83752 24.4062 5.34377 24.9125 5.96251 24.9125H23.5688C24.1875 24.9125 24.6938 24.4062 24.6938 23.7875Z" fill="#F2F2F2"/>
<path d="M19.8562 4.49373C19.8562 4.99998 20.25 5.39375 20.7562 5.39375H24.6937L19.8562 0.5V4.49373Z" fill="#CDD6E0"/>
<path d="M22.7045 9.09094H6.75V10.3182H22.7045V9.09094Z" fill="#FFD15C"/>
<path d="M22.7253 12.0873H6.8064V13.4935H22.7253V12.0873Z" fill="#CDD6E0"/>
<path d="M22.7253 15.2377H6.8064V16.6439H22.7253V15.2377Z" fill="#CDD6E0"/>
<path d="M22.7253 18.3875H6.8064V19.7937H22.7253V18.3875Z" fill="#ACB3BA"/>
<path d="M14.1191 21.5372H6.8064V22.9435H14.1191V21.5372Z" fill="#ACB3BA"/>
</g>
<defs>
<clipPath id="clip0">
<rect width="27" height="27" fill="white" transform="translate(0 0.5)"/>
</clipPath>
</defs>
</svg>
