<svg width="27" height="28" viewBox="0 0 27 28" fill="none" xmlns="http://www.w3.org/2000/svg">
<path d="M27 17.9471L13.5 26.7116L0 17.9471L5.24185 15.1786H21.7582L27 17.9471Z" fill="#3D96B1"/>
<path d="M27 17.9471L13.5 26.7116V15.1786H21.7582L27 17.9471Z" fill="#3D96B1"/>
<path d="M27 13.201L13.5 21.9656L0 13.201L5.24185 10.4325H21.7582L27 13.201Z" fill="#EAB565"/>
<path d="M27 13.201L13.5 21.9656V10.4325H21.7582L27 13.201Z" fill="#EAB565"/>
<path d="M13.5 1.28839L0 8.45505L13.5 17.2194L27 8.45505L13.5 1.28839Z" fill="#3E9F88"/>
<path d="M27 8.45505L13.5 17.2194V1.28839L27 8.45505Z" fill="#3E9F88"/>
<path d="M13.5 3.09186L3.15356 8.58145L13.5 15.321L23.8464 8.58151L13.5 3.09186Z" fill="#21705D"/>
<path d="M23.8464 8.58145L13.5 15.321V3.09186L23.8464 8.58145Z" fill="#21705D"/>
<path d="M21.7424 7.01537L20.8881 5.68652L17.376 7.94882L14.9396 6.44589L17.5817 4.81635L16.7748 3.47162L13.5 5.51239L10.1778 3.50326L9.35505 4.84799L11.9021 6.43002L9.51325 7.88543L6.11194 5.68646L5.25754 7.01537L8.01038 8.80306L5.24182 10.48L6.06442 11.8406L9.49738 9.75239L12.0445 11.3976L9.32336 13.1695L10.1777 14.4985L13.5 12.3468L16.8222 14.4984L17.6765 13.1695L14.9554 11.3976L17.3918 9.83138L20.7773 11.9197L21.6158 10.5749L18.8631 8.88217L21.7424 7.01537ZM13.5 10.4642L11.0003 8.83476L13.5 7.36347L15.9047 8.89799L13.5 10.4642Z" fill="#3E9F88"/>
<path d="M18.8631 8.88217L21.6158 10.5749L20.7773 11.9197L17.3918 9.83144L14.9554 11.3976L17.6766 13.1695L16.8222 14.4984L13.5 12.3468V10.4642L15.9047 8.89799L13.5 7.36347V5.51239L16.7748 3.47162L17.5817 4.81629L14.9396 6.44584L17.376 7.94882L20.888 5.68652L21.7424 7.01537L18.8631 8.88217Z" fill="#3E9F88"/>
</svg>
