<svg width="28" height="28" viewBox="0 0 28 28" fill="none" xmlns="http://www.w3.org/2000/svg">
<path d="M12.495 0.874451C9.84162 0.874451 7.57706 3.06039 7.65773 5.71256V7.83858H10.7194V5.71256C10.7194 4.70282 11.4853 3.93609 12.495 3.93609H15.5062C16.516 3.93609 17.2827 4.70282 17.2827 5.71256V7.83858H20.3444V5.71256C20.3444 3.05917 18.1596 0.874451 15.5062 0.874451H12.495Z" fill="#666666"/>
<path d="M7.65796 6.04156V7.83857H10.7196V6.04156H7.65796ZM17.283 6.04156V7.83857H20.3446V6.04156H17.283Z" fill="#4D4D4D"/>
<path d="M3.0625 7.51044H24.9375C26.1494 7.51044 27.125 8.48604 27.125 9.69792V24.9369C27.125 26.1488 26.1494 27.1245 24.9375 27.1245H3.0625C1.85063 27.1245 0.875 26.1488 0.875 24.9369V9.69792C0.875 8.48604 1.85063 7.51044 3.0625 7.51044Z" fill="#A0694C"/>
<path d="M3.0625 7.51044C1.85063 7.51044 0.875 8.48602 0.875 9.69792V13.9952C0.875 17.5514 3.73771 20.415 7.29395 20.415H20.7061C24.2623 20.415 27.125 17.5514 27.125 13.9952V9.69792C27.125 8.48602 26.1494 7.51044 24.9375 7.51044H3.0625Z" fill="#FFC861"/>
<path d="M12.1406 7.51044V19.3759H15.8594V7.51044H12.1406Z" fill="#666666"/>
<path d="M27.125 13.9952C27.125 17.2235 24.6987 20.0459 21.3435 20.3825C21.1336 20.403 20.9216 20.4149 20.7061 20.4149H16.3516V21.9291C16.3516 22.5653 15.8394 23.0775 15.2031 23.0775H13.4318C13.0661 23.6602 13.4847 24.4177 14.1726 24.4182H15.2194C16.6607 24.4182 17.7014 23.5221 17.7136 21.818H20.8419C23.8386 21.818 25.9974 20.0761 27.125 18.5239V13.9952ZM7.35206 20.415C6.9106 20.9985 7.33749 21.8339 8.06898 21.8181H11.6484V20.415H7.35206Z" fill="#8F4E40"/>
<path d="M12.7969 18.3744H15.2031C15.8394 18.3744 16.3516 18.8866 16.3516 19.5228V21.9291C16.3516 22.5653 15.8394 23.0775 15.2031 23.0775H12.7969C12.1606 23.0775 11.6484 22.5653 11.6484 21.9291V19.5228C11.6484 18.8866 12.1606 18.3744 12.7969 18.3744Z" fill="#D1DCFF"/>
</svg>
