<svg width="27" height="28" viewBox="0 0 27 28" fill="none" xmlns="http://www.w3.org/2000/svg">
<path d="M5.91344 26.0053L3.54514 24.677C3.16066 24.4614 3.02661 23.9733 3.24704 23.5917L8.03927 15.2941L11.7878 17.3964L6.98585 25.7109C6.76927 26.086 6.29123 26.2172 5.91344 26.0053Z" fill="#494949"/>
<path d="M11.4146 18.0469L20.1531 23.2382C20.6805 23.5516 21.3486 23.1716 21.3486 22.5582V2.6857C21.3486 2.06765 20.6713 1.68833 20.1441 2.01112L11.4146 7.35554L10.8481 12.6111L11.4146 18.0469Z" fill="#E8E8E8"/>
<path d="M10.8618 12.7429L11.4145 18.0469L20.153 23.2383C20.6804 23.5516 21.3485 23.1716 21.3485 22.5583V12.7429H10.8618Z" fill="#C8C8C8"/>
<path d="M4.7221 16.1552H1.50224C0.672574 16.1552 0 15.4826 0 14.653V10.5693C0 9.73959 0.672574 9.06702 1.50224 9.06702H4.7221V16.1552Z" fill="#494949"/>
<path d="M0 12.7429V14.653C0 15.4826 0.672785 16.1552 1.50272 16.1552H4.72205V12.7429H0Z" fill="#494949"/>
<path d="M11.4145 18.0468H6.83149C5.34597 17.9568 4.14172 16.7529 4.14172 15.2678V9.95433C4.14172 8.46928 5.34597 7.26546 6.83149 7.35558H11.4145V18.0468Z" fill="#3E9F88"/>
<path d="M4.14172 12.7429V15.2679C4.14172 16.7529 5.34597 17.9568 6.83149 18.0469H11.4145V12.7429H4.14172Z" fill="#21705D"/>
<path d="M24.823 19.0778C24.6205 19.0778 24.418 19.0006 24.2635 18.8461L22.6673 17.2504C22.3583 16.9416 22.3583 16.4407 22.6673 16.1318C22.9763 15.8229 23.4774 15.8229 23.7863 16.1318L25.3826 17.7275C25.6916 18.0363 25.6916 18.5372 25.3826 18.8461C25.228 19.0006 25.0255 19.0778 24.823 19.0778Z" fill="#EDBE2C"/>
<path d="M23.2268 9.58565C23.0243 9.58565 22.8218 9.50845 22.6673 9.35399C22.3583 9.04512 22.3583 8.54425 22.6673 8.23534L24.2635 6.63965C24.5726 6.33073 25.0735 6.33073 25.3826 6.63965C25.6915 6.94851 25.6915 7.44944 25.3826 7.7583L23.7863 9.35399C23.6319 9.5084 23.4293 9.58565 23.2268 9.58565Z" fill="#F3D652"/>
<path d="M26.2087 13.5339H23.9513C23.5143 13.5339 23.16 13.1798 23.16 12.7429C23.16 12.3061 23.5143 11.9519 23.9513 11.9519H26.2087C26.6457 11.9519 27 12.3061 27 12.7429C27 13.1798 26.6457 13.5339 26.2087 13.5339Z" fill="#F3D652"/>
<path d="M23.9513 13.5339H26.2087C26.6457 13.5339 27 13.1798 27 12.7429H23.16C23.16 13.1798 23.5143 13.5339 23.9513 13.5339Z" fill="#EDBE2C"/>
</svg>
