<svg width="27" height="28" viewBox="0 0 27 28" fill="none" xmlns="http://www.w3.org/2000/svg">
<path d="M2.53125 9.7813V13.1563C2.53125 13.2682 2.5757 13.3755 2.65481 13.4546C2.73393 13.5337 2.84124 13.5782 2.95312 13.5782H4.64062C4.75251 13.5782 4.85982 13.5337 4.93894 13.4546C5.01805 13.3755 5.0625 13.2682 5.0625 13.1563V9.7813C5.20037 5.87474 10.8295 5.87183 10.9688 9.7813V13.1563C10.9688 13.2682 11.0132 13.3755 11.0923 13.4546C11.1714 13.5337 11.2787 13.5782 11.3906 13.5782H13.0781C13.19 13.5782 13.2973 13.5337 13.3764 13.4546C13.4556 13.3755 13.5 13.2682 13.5 13.1563V9.7813C13.2005 2.50936 2.83335 2.50396 2.53125 9.7813Z" fill="#46464E"/>
<path d="M13.9219 12.7344H2.10938C1.41039 12.7344 0.84375 13.301 0.84375 14V22.8594C0.84375 23.5584 1.41039 24.125 2.10938 24.125H13.9219C14.6209 24.125 15.1875 23.5584 15.1875 22.8594V14C15.1875 13.301 14.6209 12.7344 13.9219 12.7344Z" fill="#FFA000"/>
<path d="M24.8906 14H12.2344C11.5354 14 10.9688 14.5666 10.9688 15.2656V16.9531C10.9688 17.6521 11.5354 18.2188 12.2344 18.2188H24.8906C25.5896 18.2188 26.1562 17.6521 26.1562 16.9531V15.2656C26.1562 14.5666 25.5896 14 24.8906 14Z" fill="#3E9F88"/>
<path d="M24.8906 18.6406H12.2344C11.5354 18.6406 10.9688 19.2073 10.9688 19.9062V21.5938C10.9688 22.2927 11.5354 22.8594 12.2344 22.8594H24.8906C25.5896 22.8594 26.1562 22.2927 26.1562 21.5938V19.9062C26.1562 19.2073 25.5896 18.6406 24.8906 18.6406Z" fill="#3E9F88"/>
<path d="M22.9921 19.6954C21.5858 19.6763 21.5858 21.8236 22.9921 21.8046C24.3984 21.8239 24.3984 19.6766 22.9921 19.6954Z" fill="#EEEEEE"/>
<path d="M20.039 19.6954C18.6326 19.6763 18.6327 21.8236 20.039 21.8046C21.4453 21.8239 21.4453 19.6766 20.039 19.6954Z" fill="#EEEEEE"/>
<path d="M17.0859 19.6954C15.6795 19.6763 15.6796 21.8236 17.0859 21.8046C18.4921 21.8239 18.4921 19.6766 17.0859 19.6954Z" fill="#EEEEEE"/>
<path d="M14.1328 19.6954C12.7264 19.6763 12.7264 21.8236 14.1328 21.8046C15.539 21.8239 15.539 19.6766 14.1328 19.6954Z" fill="#EEEEEE"/>
</svg>
