<svg width="27" height="27" viewBox="0 0 27 27" fill="none" xmlns="http://www.w3.org/2000/svg">
<path d="M22.8176 21.0705H4.18234C3.13187 21.0705 3.13134 19.4822 4.18234 19.4822H22.8176C23.8681 19.4822 23.8686 21.0705 22.8176 21.0705Z" fill="#494949"/>
<path d="M22.8176 21.0705H13.5V19.4822H22.8176C23.8681 19.4822 23.8686 21.0705 22.8176 21.0705Z" fill="#494949"/>
<path d="M22.738 14.2145H4.10273C3.05226 14.2145 3.05226 12.6267 4.10273 12.6267H22.738C23.789 12.6267 23.789 14.2145 22.738 14.2145Z" fill="#494949"/>
<path d="M22.738 14.2145H13.5V12.6267H22.738C23.789 12.6267 23.789 14.2145 22.738 14.2145Z" fill="#494949"/>
<path d="M22.738 7.43821H4.10273C3.05226 7.43821 3.05226 5.84985 4.10273 5.84985H22.738C23.789 5.84985 23.789 7.43821 22.738 7.43821Z" fill="#494949"/>
<path d="M22.738 7.43821H13.5V5.84985H22.738C23.789 5.84985 23.789 7.43821 22.738 7.43821Z" fill="#494949"/>
<path d="M18.5823 15.9882C19.9565 15.9882 21.0706 14.8741 21.0706 13.4999C21.0706 12.1257 19.9565 11.0117 18.5823 11.0117C17.2081 11.0117 16.0941 12.1257 16.0941 13.4999C16.0941 14.8741 17.2081 15.9882 18.5823 15.9882Z" fill="#3E9F88"/>
<path d="M21.0706 13.5C21.0706 14.8722 19.9546 15.9882 18.5824 15.9882V11.0117C19.9546 11.0118 21.0706 12.1277 21.0706 13.5Z" fill="#21705D"/>
<path d="M11.8059 22.7645C13.1801 22.7645 14.2941 21.6505 14.2941 20.2763C14.2941 18.9021 13.1801 17.7881 11.8059 17.7881C10.4317 17.7881 9.31769 18.9021 9.31769 20.2763C9.31769 21.6505 10.4317 22.7645 11.8059 22.7645Z" fill="#EAB565"/>
<path d="M14.2941 20.2766C14.2941 21.6489 13.1781 22.7648 11.8059 22.7648V17.7883C13.1781 17.7884 14.2941 18.9043 14.2941 20.2766Z" fill="#D6A45A"/>
<path d="M8.41766 9.21179C9.79187 9.21179 10.9059 8.09777 10.9059 6.72357C10.9059 5.34936 9.79187 4.23535 8.41766 4.23535C7.04346 4.23535 5.92944 5.34936 5.92944 6.72357C5.92944 8.09777 7.04346 9.21179 8.41766 9.21179Z" fill="#3E9F88"/>
<path d="M10.9059 6.72349C10.9059 8.07824 9.81848 9.1826 8.47064 9.21066V4.23633C9.81848 4.26438 10.9059 5.36875 10.9059 6.72349Z" fill="#21705D"/>
</svg>
