<svg width="27" height="28" viewBox="0 0 27 28" fill="none" xmlns="http://www.w3.org/2000/svg">
<g clip-path="url(#clip0)">
<path d="M10.3304 19.8557H16.6695V24.2925H10.3304V19.8557Z" fill="#B4AAAA"/>
<path d="M15.0397 19.8556H16.6695V24.2925H15.0397V19.8556Z" fill="#9B9696"/>
<path d="M27 17.8714V3.94452C27 3.58857 26.7115 3.30005 26.3555 3.30005H0.644469C0.288525 3.30005 0 3.58857 0 3.94452V17.8714L13.6418 19.1646L27 17.8714Z" fill="#C4DED8"/>
<path d="M26.3555 3.30005H24.7257C25.0817 3.30005 25.3702 3.58857 25.3702 3.94452V21.0929C25.3702 21.4488 25.0817 21.7374 24.7257 21.7374H26.3555C26.7114 21.7374 27 21.4488 27 21.0929V3.94452C27 3.58857 26.7114 3.30005 26.3555 3.30005Z" fill="#3E9F88"/>
<path d="M10.6911 17.8713C10.6601 17.7027 10.6431 17.529 10.6431 17.3514C10.6431 15.7735 11.9222 14.4944 13.5 14.4944C15.0779 14.4944 16.357 15.7735 16.357 17.3514C16.357 17.529 16.3399 17.7027 16.3089 17.8713L18.2659 18.4146H20.7507C21.0296 18.4146 21.2557 18.1885 21.2557 17.9096V16.8924C21.2557 16.6135 21.0296 16.3874 20.7507 16.3874H20.2312C19.9933 16.3874 19.7885 16.2211 19.7379 15.9886C19.5743 15.2362 19.2778 14.5335 18.8745 13.9058C18.7457 13.7053 18.7722 13.4426 18.9408 13.2741L19.3088 12.9062C19.506 12.709 19.506 12.3892 19.3088 12.1919L18.6596 11.5428C18.4624 11.3455 18.1426 11.3455 17.9453 11.5428L17.5774 11.9107C17.4089 12.0792 17.1462 12.1058 16.9457 11.977C16.3181 11.5737 15.6152 11.2773 14.8629 11.1136C14.6304 11.063 14.4641 10.8582 14.4641 10.6204V10.1008C14.4641 9.82187 14.238 9.59576 13.9591 9.59576H13.041C12.7621 9.59576 12.536 9.82187 12.536 10.1008V10.6204C12.536 10.8582 12.3697 11.063 12.1372 11.1136C11.3848 11.2773 10.6821 11.5737 10.0544 11.977C9.85393 12.1058 9.59126 12.0792 9.42274 11.9107L9.05479 11.5428C8.85759 11.3455 8.53783 11.3455 8.34057 11.5428L7.69137 12.1919C7.49417 12.3892 7.49417 12.7089 7.69137 12.9062L8.05932 13.2741C8.22784 13.4426 8.25446 13.7053 8.1256 13.9058C7.72228 14.5335 7.42588 15.2363 7.2622 15.9886C7.21162 16.2211 7.00687 16.3874 6.76897 16.3874H6.2494C5.97049 16.3874 5.74438 16.6135 5.74438 16.8924V17.9096C5.74438 18.1885 5.97049 18.4146 6.2494 18.4146H8.27532L10.6911 17.8713Z" fill="#3E9F88"/>
<path d="M17.8584 24.6999H9.14157C8.91656 24.6999 8.73413 24.5175 8.73413 24.2924C8.73413 24.0674 8.91656 23.885 9.14157 23.885H17.8584C18.0834 23.885 18.2658 24.0674 18.2658 24.2924C18.2658 24.5175 18.0834 24.6999 17.8584 24.6999Z" fill="#C8BEB9"/>
<path d="M7.43313 6.3509H2.11289C1.88787 6.3509 1.70544 6.16848 1.70544 5.94346C1.70544 5.71844 1.88787 5.53601 2.11289 5.53601H7.43308C7.65809 5.53601 7.84052 5.71844 7.84052 5.94346C7.84058 6.16848 7.65815 6.3509 7.43313 6.3509Z" fill="#3E9F88"/>
<path d="M3.83801 8.17701H2.11289C1.88787 8.17701 1.70544 7.99459 1.70544 7.76957C1.70544 7.54455 1.88787 7.36212 2.11289 7.36212H3.83801C4.06302 7.36212 4.24545 7.54455 4.24545 7.76957C4.24545 7.99459 4.06302 8.17701 3.83801 8.17701Z" fill="#3E9F88"/>
<path d="M24.5408 8.17701H22.8156C22.5906 8.17701 22.4082 7.99459 22.4082 7.76957C22.4082 7.54455 22.5906 7.36212 22.8156 7.36212H24.5408C24.7659 7.36212 24.9482 7.54455 24.9482 7.76957C24.9482 7.99459 24.7658 8.17701 24.5408 8.17701Z" fill="#3E9F88"/>
<path d="M24.5408 10.0031H22.8156C22.5906 10.0031 22.4082 9.8207 22.4082 9.59568C22.4082 9.37066 22.5906 9.18823 22.8156 9.18823H24.5408C24.7659 9.18823 24.9482 9.37066 24.9482 9.59568C24.9482 9.8207 24.7658 10.0031 24.5408 10.0031Z" fill="#3E9F88"/>
<path d="M24.5408 11.8292H22.8156C22.5906 11.8292 22.4082 11.6467 22.4082 11.4217C22.4082 11.1967 22.5906 11.0143 22.8156 11.0143H24.5408C24.7659 11.0143 24.9482 11.1967 24.9482 11.4217C24.9482 11.6467 24.7658 11.8292 24.5408 11.8292Z" fill="#3E9F88"/>
<path d="M0 17.8714V21.0929C0 21.4489 0.288525 21.7374 0.644469 21.7374H26.3555C26.7115 21.7374 27 21.4489 27 21.0929V17.8714H0Z" fill="#DCD2CD"/>
<path d="M25.3702 17.8714V21.0929C25.3702 21.4489 25.0817 21.7374 24.7257 21.7374H26.3555C26.7114 21.7374 27 21.4489 27 21.0929V17.8714H25.3702Z" fill="#C8BEB9"/>
</g>
<defs>
<clipPath id="clip0">
<rect width="27" height="27" fill="white" transform="translate(0 0.5)"/>
</clipPath>
</defs>
</svg>
